{"glyphs":{"0":{"ha":864,"x_min":46,"x_max":818,"o":"m 818 354 q 767 159 818 242 q 630 32 717 76 q 436 -12 543 -12 q 238 31 326 -12 q 97 158 149 75 q 46 354 46 242 q 99 544 46 465 q 242 663 153 624 q 436 703 331 703 q 634 662 547 703 q 769 542 721 621 q 818 354 818 464 m 271 390 q 294 253 271 322 q 360 138 317 183 q 460 92 403 92 q 556 156 522 92 q 589 314 589 219 q 567 448 589 379 q 503 562 544 517 q 408 607 463 607 q 309 543 347 607 q 271 390 271 479 z "},"1":{"ha":565,"x_min":63,"x_max":503,"o":"m 397 240 q 405 146 397 176 q 432 104 413 115 q 493 92 451 93 q 503 -4 503 58 q 283 0 421 0 q 63 -4 138 0 q 72 92 63 49 q 135 108 115 97 q 161 149 154 119 q 168 239 168 178 l 168 461 q 160 549 168 521 q 133 589 153 578 q 72 603 113 600 q 63 699 63 643 q 283 694 129 694 q 503 699 436 694 q 493 603 503 643 q 433 589 453 600 q 405 549 413 578 q 397 461 397 521 l 397 240 z "},"2":{"ha":711,"x_min":54,"x_max":663,"o":"m 647 260 q 663 50 647 121 q 635 11 654 25 q 588 -3 615 -3 q 325 0 460 0 q 85 -3 190 0 q 54 114 54 39 q 221 263 100 160 l 257 293 q 372 410 343 367 q 400 506 400 454 q 376 579 400 553 q 307 606 353 606 q 238 568 261 606 q 204 432 214 531 q 83 450 138 432 q 88 533 88 483 q 79 636 88 594 q 208 686 139 669 q 376 703 278 703 q 569 660 504 703 q 633 533 633 617 q 615 452 633 488 q 557 381 597 417 q 442 293 517 344 q 310 197 376 250 l 424 197 q 496 202 474 197 q 527 222 518 207 q 540 272 536 238 q 647 260 617 272 z "},"3":{"ha":707,"x_min":43,"x_max":658,"o":"m 274 -237 q 43 -172 119 -237 q 85 -87 50 -122 q 151 -122 115 -110 q 236 -135 188 -135 q 372 -90 319 -135 q 424 35 424 -44 q 391 132 424 96 q 293 168 358 168 q 250 161 275 168 q 225 202 233 178 q 218 250 217 226 q 414 500 358 421 l 296 500 q 231 493 253 500 q 193 465 208 486 q 163 396 178 443 q 60 421 92 396 q 74 542 71 485 q 76 699 76 600 q 351 694 247 694 q 608 699 450 694 q 629 653 622 679 q 635 600 636 628 q 407 303 531 468 q 593 239 528 300 q 658 64 658 178 q 557 -156 658 -75 q 274 -237 456 -237 z "},"4":{"ha":842,"x_min":38,"x_max":808,"o":"m 808 158 q 784 83 790 115 q 778 0 778 50 l 653 0 l 653 -200 q 454 -237 549 -200 q 431 -207 438 -225 q 424 -160 424 -189 l 424 0 l 392 0 q 79 -10 236 0 q 38 143 38 71 l 492 703 q 653 693 581 706 l 653 194 l 736 194 q 778 187 763 194 q 808 158 794 179 m 435 183 l 435 483 l 213 182 l 435 183 z "},"5":{"ha":668,"x_min":53,"x_max":621,"o":"m 151 700 q 428 694 279 694 q 478 714 461 694 q 496 768 496 733 q 600 778 525 778 q 592 538 592 693 q 522 500 575 500 q 207 494 271 500 l 188 404 q 441 336 346 379 q 578 228 536 293 q 621 71 621 164 q 565 -100 621 -31 q 421 -203 510 -169 q 233 -237 332 -237 q 53 -203 108 -237 q 78 -118 53 -149 q 199 -136 117 -136 q 334 -92 281 -136 q 388 28 388 -47 q 320 149 388 101 q 106 221 253 196 q 67 303 74 256 l 151 700 z "},"6":{"ha":788,"x_min":49,"x_max":742,"o":"m 463 549 q 668 481 594 549 q 742 294 742 413 q 691 119 742 188 q 562 19 640 50 q 397 -12 483 -12 q 49 333 49 -12 q 138 647 49 525 q 356 825 228 769 q 611 886 485 881 q 632 800 635 863 q 407 700 488 771 q 297 513 326 629 q 463 549 378 549 m 406 92 q 486 136 458 92 q 514 253 514 181 q 471 394 514 343 q 368 444 428 444 q 283 426 333 444 q 279 336 279 383 q 297 201 279 256 q 344 119 315 146 q 406 92 372 92 z "},"7":{"ha":660,"x_min":38,"x_max":624,"o":"m 199 -244 q 153 -147 153 -235 q 190 48 153 -51 q 284 245 226 147 q 444 497 342 343 l 308 497 q 233 489 260 497 q 189 459 206 481 q 160 394 172 438 q 38 417 83 393 q 63 697 60 510 q 319 694 128 694 q 594 697 483 694 q 617 654 610 681 q 624 600 624 628 q 520 437 568 521 q 453 301 472 353 q 415 185 428 238 q 394 54 401 133 q 388 -154 388 -25 q 287 -191 338 -167 q 199 -244 236 -215 z "},"8":{"ha":779,"x_min":64,"x_max":715,"o":"m 544 501 q 673 385 631 446 q 715 238 715 325 q 633 51 715 114 q 390 -12 550 -12 q 149 47 233 -12 q 64 215 64 106 q 222 451 64 367 q 124 540 160 492 q 89 657 89 589 q 169 823 89 761 q 397 885 250 885 q 610 835 531 885 q 690 694 690 785 q 651 578 690 628 q 544 501 613 529 m 388 801 q 328 778 350 801 q 307 714 307 754 q 337 633 307 664 q 440 561 367 601 l 442 561 q 482 679 482 606 q 456 768 482 735 q 388 801 431 801 m 404 81 q 471 108 447 81 q 494 183 494 136 q 451 297 494 249 q 326 392 407 346 q 292 333 303 367 q 282 251 282 300 q 315 126 282 172 q 404 81 349 81 z "},"9":{"ha":788,"x_min":46,"x_max":743,"o":"m 394 703 q 654 619 565 703 q 743 350 743 535 q 645 33 743 163 q 407 -161 547 -96 q 139 -235 267 -226 q 122 -198 128 -221 q 119 -147 117 -175 q 490 161 415 -72 q 331 128 414 128 q 180 162 244 128 q 81 256 115 196 q 46 393 46 317 q 97 573 46 504 q 226 672 147 642 q 394 703 306 703 m 426 235 q 510 253 463 235 q 514 329 514 290 q 479 533 514 465 q 385 600 444 600 q 306 556 335 600 q 276 436 276 511 q 297 327 276 372 q 353 258 318 282 q 426 235 388 235 z "},"\r":{"ha":278,"x_min":0,"x_max":0,"o":""}," ":{"ha":278,"x_min":0,"x_max":0,"o":""},"A":{"ha":992,"x_min":19,"x_max":972,"o":"m 961 92 q 972 -4 972 54 q 769 0 900 0 q 547 -4 617 0 q 558 92 547 58 q 604 109 590 99 q 618 140 618 119 q 603 199 618 160 l 581 250 q 251 238 390 250 l 240 210 q 229 158 229 181 q 292 92 229 100 q 303 -4 303 50 q 149 0 256 0 q 19 -4 61 0 q 32 92 19 53 q 88 126 67 99 q 143 235 110 154 l 436 940 q 479 946 457 944 q 528 947 501 947 l 842 250 q 891 150 872 182 q 925 106 910 118 q 961 92 940 94 m 543 333 l 478 483 q 410 668 436 581 q 346 485 385 582 l 288 333 l 543 333 z "},"Á":{"ha":992,"x_min":19,"x_max":972,"o":"m 961 92 q 972 -4 972 54 q 769 0 900 0 q 547 -4 617 0 q 558 92 547 58 q 604 109 590 99 q 618 140 618 119 q 603 199 618 160 l 581 250 q 251 238 390 250 l 240 210 q 229 158 229 181 q 292 92 229 100 q 303 -4 303 50 q 149 0 256 0 q 19 -4 61 0 q 32 92 19 53 q 88 126 67 99 q 143 235 110 154 l 436 940 q 479 946 457 944 q 528 947 501 947 l 842 250 q 891 150 872 182 q 925 106 910 118 q 961 92 940 94 m 543 333 l 478 483 q 410 668 436 581 q 346 485 385 582 l 288 333 l 543 333 m 514 1019 q 394 1040 446 1019 q 478 1211 446 1129 q 592 1224 532 1224 q 679 1214 644 1224 q 514 1019 600 1132 z "},"Ă":{"ha":992,"x_min":19,"x_max":972,"o":"m 961 92 q 972 -4 972 54 q 769 0 900 0 q 547 -4 617 0 q 558 92 547 58 q 604 109 590 99 q 618 140 618 119 q 603 199 618 160 l 581 250 q 251 238 390 250 l 240 210 q 229 158 229 181 q 292 92 229 100 q 303 -4 303 50 q 149 0 256 0 q 19 -4 61 0 q 32 92 19 53 q 88 126 67 99 q 143 235 110 154 l 436 940 q 479 946 457 944 q 528 947 501 947 l 842 250 q 891 150 872 182 q 925 106 910 118 q 961 92 940 94 m 543 333 l 478 483 q 410 668 436 581 q 346 485 385 582 l 288 333 l 543 333 m 724 1206 q 662 1055 724 1106 q 481 1004 600 1004 q 302 1053 363 1004 q 242 1200 242 1103 q 332 1217 285 1217 q 365 1214 343 1217 q 406 1155 371 1175 q 497 1135 440 1135 q 583 1155 551 1135 q 617 1214 615 1175 q 656 1217 629 1217 q 724 1206 690 1217 z "},"Ắ":{"ha":992,"x_min":19,"x_max":972,"o":"m 961 92 q 972 -4 972 54 q 769 0 900 0 q 547 -4 617 0 q 558 92 547 58 q 604 109 590 99 q 618 140 618 119 q 603 199 618 160 l 581 250 q 251 238 390 250 l 240 210 q 229 158 229 181 q 292 92 229 100 q 303 -4 303 50 q 149 0 256 0 q 19 -4 61 0 q 32 92 19 53 q 88 126 67 99 q 143 235 110 154 l 436 940 q 479 946 457 944 q 528 947 501 947 l 842 250 q 891 150 872 182 q 925 106 910 118 q 961 92 940 94 m 543 333 l 478 483 q 410 668 436 581 q 346 485 385 582 l 288 333 l 543 333 z "},"Ặ":{"ha":992,"x_min":19,"x_max":972,"o":"m 961 92 q 972 -4 972 54 q 769 0 900 0 q 547 -4 617 0 q 558 92 547 58 q 604 109 590 99 q 618 140 618 119 q 603 199 618 160 l 581 250 q 251 238 390 250 l 240 210 q 229 158 229 181 q 292 92 229 100 q 303 -4 303 50 q 149 0 256 0 q 19 -4 61 0 q 32 92 19 53 q 88 126 67 99 q 143 235 110 154 l 436 940 q 479 946 457 944 q 528 947 501 947 l 842 250 q 891 150 872 182 q 925 106 910 118 q 961 92 940 94 m 543 333 l 478 483 q 410 668 436 581 q 346 485 385 582 l 288 333 l 543 333 m 418 -318 q 326 -290 360 -318 q 292 -214 292 -261 q 328 -130 292 -160 q 425 -100 365 -100 q 524 -129 489 -100 q 558 -212 558 -158 q 520 -288 558 -258 q 418 -318 482 -318 m 724 1206 q 662 1055 724 1106 q 481 1004 600 1004 q 302 1053 363 1004 q 242 1200 242 1103 q 332 1217 285 1217 q 365 1214 343 1217 q 406 1155 371 1175 q 497 1135 440 1135 q 583 1155 551 1135 q 617 1214 615 1175 q 656 1217 629 1217 q 724 1206 690 1217 z "},"Ằ":{"ha":992,"x_min":19,"x_max":972,"o":"m 961 92 q 972 -4 972 54 q 769 0 900 0 q 547 -4 617 0 q 558 92 547 58 q 604 109 590 99 q 618 140 618 119 q 603 199 618 160 l 581 250 q 251 238 390 250 l 240 210 q 229 158 229 181 q 292 92 229 100 q 303 -4 303 50 q 149 0 256 0 q 19 -4 61 0 q 32 92 19 53 q 88 126 67 99 q 143 235 110 154 l 436 940 q 479 946 457 944 q 528 947 501 947 l 842 250 q 891 150 872 182 q 925 106 910 118 q 961 92 940 94 m 543 333 l 478 483 q 410 668 436 581 q 346 485 385 582 l 288 333 l 543 333 z "},"Ẳ":{"ha":992,"x_min":19,"x_max":972,"o":"m 961 92 q 972 -4 972 54 q 769 0 900 0 q 547 -4 617 0 q 558 92 547 58 q 604 109 590 99 q 618 140 618 119 q 603 199 618 160 l 581 250 q 251 238 390 250 l 240 210 q 229 158 229 181 q 292 92 229 100 q 303 -4 303 50 q 149 0 256 0 q 19 -4 61 0 q 32 92 19 53 q 88 126 67 99 q 143 235 110 154 l 436 940 q 479 946 457 944 q 528 947 501 947 l 842 250 q 891 150 872 182 q 925 106 910 118 q 961 92 940 94 m 543 333 l 478 483 q 410 668 436 581 q 346 485 385 582 l 288 333 l 543 333 z "},"Ẵ":{"ha":992,"x_min":19,"x_max":972,"o":"m 961 92 q 972 -4 972 54 q 769 0 900 0 q 547 -4 617 0 q 558 92 547 58 q 604 109 590 99 q 618 140 618 119 q 603 199 618 160 l 581 250 q 251 238 390 250 l 240 210 q 229 158 229 181 q 292 92 229 100 q 303 -4 303 50 q 149 0 256 0 q 19 -4 61 0 q 32 92 19 53 q 88 126 67 99 q 143 235 110 154 l 436 940 q 479 946 457 944 q 528 947 501 947 l 842 250 q 891 150 872 182 q 925 106 910 118 q 961 92 940 94 m 543 333 l 478 483 q 410 668 436 581 q 346 485 385 582 l 288 333 l 543 333 m 724 1206 q 662 1055 724 1106 q 481 1004 600 1004 q 302 1053 363 1004 q 242 1200 242 1103 q 332 1217 285 1217 q 365 1214 343 1217 q 406 1155 371 1175 q 497 1135 440 1135 q 583 1155 551 1135 q 617 1214 615 1175 q 656 1217 629 1217 q 724 1206 690 1217 m 553 1258 q 496 1267 519 1258 q 440 1293 472 1276 q 399 1315 417 1308 q 358 1322 381 1322 q 253 1263 301 1322 q 210 1351 211 1300 q 299 1428 247 1404 q 399 1453 350 1453 q 453 1444 429 1453 q 513 1419 478 1436 q 558 1400 539 1407 q 596 1393 576 1393 q 678 1443 643 1393 q 754 1403 726 1435 q 668 1296 719 1333 q 553 1258 617 1258 z "},"Ǎ":{"ha":992,"x_min":19,"x_max":972,"o":"m 961 92 q 972 -4 972 54 q 769 0 900 0 q 547 -4 617 0 q 558 92 547 58 q 604 109 590 99 q 618 140 618 119 q 603 199 618 160 l 581 250 q 251 238 390 250 l 240 210 q 229 158 229 181 q 292 92 229 100 q 303 -4 303 50 q 149 0 256 0 q 19 -4 61 0 q 32 92 19 53 q 88 126 67 99 q 143 235 110 154 l 436 940 q 479 946 457 944 q 528 947 501 947 l 842 250 q 891 150 872 182 q 925 106 910 118 q 961 92 940 94 m 543 333 l 478 483 q 410 668 436 581 q 346 485 385 582 l 288 333 l 543 333 m 407 1010 q 213 1169 342 1079 q 322 1236 253 1222 q 485 1153 385 1196 q 551 1183 493 1157 q 644 1233 608 1210 q 691 1210 671 1229 q 719 1167 711 1190 q 513 1022 592 1092 q 407 1010 476 1010 z "},"Â":{"ha":992,"x_min":19,"x_max":972,"o":"m 961 92 q 972 -4 972 54 q 769 0 900 0 q 547 -4 617 0 q 558 92 547 58 q 604 109 590 99 q 618 140 618 119 q 603 199 618 160 l 581 250 q 251 238 390 250 l 240 210 q 229 158 229 181 q 292 92 229 100 q 303 -4 303 50 q 149 0 256 0 q 19 -4 61 0 q 32 92 19 53 q 88 126 67 99 q 143 235 110 154 l 436 940 q 479 946 457 944 q 528 947 501 947 l 842 250 q 891 150 872 182 q 925 106 910 118 q 961 92 940 94 m 543 333 l 478 483 q 410 668 436 581 q 346 485 385 582 l 288 333 l 543 333 m 303 1011 q 255 1036 275 1017 q 228 1078 235 1056 q 433 1224 368 1164 q 539 1236 476 1236 q 735 1075 615 1157 q 688 1033 713 1049 q 625 1010 663 1017 q 461 1093 550 1056 l 414 1071 q 363 1044 400 1064 q 303 1011 325 1025 z "},"Ấ":{"ha":992,"x_min":19,"x_max":972,"o":"m 961 92 q 972 -4 972 54 q 769 0 900 0 q 547 -4 617 0 q 558 92 547 58 q 604 109 590 99 q 618 140 618 119 q 603 199 618 160 l 581 250 q 251 238 390 250 l 240 210 q 229 158 229 181 q 292 92 229 100 q 303 -4 303 50 q 149 0 256 0 q 19 -4 61 0 q 32 92 19 53 q 88 126 67 99 q 143 235 110 154 l 436 940 q 479 946 457 944 q 528 947 501 947 l 842 250 q 891 150 872 182 q 925 106 910 118 q 961 92 940 94 m 543 333 l 478 483 q 410 668 436 581 q 346 485 385 582 l 288 333 l 543 333 m 744 1199 q 635 1217 689 1199 q 711 1372 679 1290 q 815 1385 761 1385 q 894 1376 861 1385 q 744 1199 817 1294 m 303 1011 q 255 1036 275 1017 q 228 1078 235 1056 q 433 1224 368 1164 q 539 1236 476 1236 q 735 1075 615 1157 q 688 1033 713 1049 q 625 1010 663 1017 q 461 1093 550 1056 l 414 1071 q 363 1044 400 1064 q 303 1011 325 1025 z "},"Ậ":{"ha":992,"x_min":19,"x_max":972,"o":"m 961 92 q 972 -4 972 54 q 769 0 900 0 q 547 -4 617 0 q 558 92 547 58 q 604 109 590 99 q 618 140 618 119 q 603 199 618 160 l 581 250 q 251 238 390 250 l 240 210 q 229 158 229 181 q 292 92 229 100 q 303 -4 303 50 q 149 0 256 0 q 19 -4 61 0 q 32 92 19 53 q 88 126 67 99 q 143 235 110 154 l 436 940 q 479 946 457 944 q 528 947 501 947 l 842 250 q 891 150 872 182 q 925 106 910 118 q 961 92 940 94 m 543 333 l 478 483 q 410 668 436 581 q 346 485 385 582 l 288 333 l 543 333 m 418 -318 q 326 -290 360 -318 q 292 -214 292 -261 q 328 -130 292 -160 q 425 -100 365 -100 q 524 -129 489 -100 q 558 -212 558 -158 q 520 -288 558 -258 q 418 -318 482 -318 m 303 1011 q 255 1036 275 1017 q 228 1078 235 1056 q 433 1224 368 1164 q 539 1236 476 1236 q 735 1075 615 1157 q 688 1033 713 1049 q 625 1010 663 1017 q 461 1093 550 1056 l 414 1071 q 363 1044 400 1064 q 303 1011 325 1025 z "},"Ầ":{"ha":992,"x_min":19,"x_max":972,"o":"m 961 92 q 972 -4 972 54 q 769 0 900 0 q 547 -4 617 0 q 558 92 547 58 q 604 109 590 99 q 618 140 618 119 q 603 199 618 160 l 581 250 q 251 238 390 250 l 240 210 q 229 158 229 181 q 292 92 229 100 q 303 -4 303 50 q 149 0 256 0 q 19 -4 61 0 q 32 92 19 53 q 88 126 67 99 q 143 235 110 154 l 436 940 q 479 946 457 944 q 528 947 501 947 l 842 250 q 891 150 872 182 q 925 106 910 118 q 961 92 940 94 m 543 333 l 478 483 q 410 668 436 581 q 346 485 385 582 l 288 333 l 543 333 z "},"Ẩ":{"ha":992,"x_min":19,"x_max":972,"o":"m 961 92 q 972 -4 972 54 q 769 0 900 0 q 547 -4 617 0 q 558 92 547 58 q 604 109 590 99 q 618 140 618 119 q 603 199 618 160 l 581 250 q 251 238 390 250 l 240 210 q 229 158 229 181 q 292 92 229 100 q 303 -4 303 50 q 149 0 256 0 q 19 -4 61 0 q 32 92 19 53 q 88 126 67 99 q 143 235 110 154 l 436 940 q 479 946 457 944 q 528 947 501 947 l 842 250 q 891 150 872 182 q 925 106 910 118 q 961 92 940 94 m 543 333 l 478 483 q 410 668 436 581 q 346 485 385 582 l 288 333 l 543 333 z "},"Ẫ":{"ha":992,"x_min":19,"x_max":972,"o":"m 961 92 q 972 -4 972 54 q 769 0 900 0 q 547 -4 617 0 q 558 92 547 58 q 604 109 590 99 q 618 140 618 119 q 603 199 618 160 l 581 250 q 251 238 390 250 l 240 210 q 229 158 229 181 q 292 92 229 100 q 303 -4 303 50 q 149 0 256 0 q 19 -4 61 0 q 32 92 19 53 q 88 126 67 99 q 143 235 110 154 l 436 940 q 479 946 457 944 q 528 947 501 947 l 842 250 q 891 150 872 182 q 925 106 910 118 q 961 92 940 94 m 543 333 l 478 483 q 410 668 436 581 q 346 485 385 582 l 288 333 l 543 333 z "},"Ȁ":{"ha":992,"x_min":19,"x_max":972,"o":"m 961 92 q 972 -4 972 54 q 769 0 900 0 q 547 -4 617 0 q 558 92 547 58 q 604 109 590 99 q 618 140 618 119 q 603 199 618 160 l 581 250 q 251 238 390 250 l 240 210 q 229 158 229 181 q 292 92 229 100 q 303 -4 303 50 q 149 0 256 0 q 19 -4 61 0 q 32 92 19 53 q 88 126 67 99 q 143 235 110 154 l 436 940 q 479 946 457 944 q 528 947 501 947 l 842 250 q 891 150 872 182 q 925 106 910 118 q 961 92 940 94 m 543 333 l 478 483 q 410 668 436 581 q 346 485 385 582 l 288 333 l 543 333 m 317 996 q 163 1167 233 1096 q 245 1191 196 1183 q 343 1197 294 1199 q 436 1015 379 1103 q 317 996 382 996 m 576 996 q 433 1171 492 1107 q 512 1192 465 1185 q 603 1197 558 1199 q 696 1015 639 1103 q 576 996 642 996 z "},"Ä":{"ha":992,"x_min":19,"x_max":972,"o":"m 961 92 q 972 -4 972 54 q 769 0 900 0 q 547 -4 617 0 q 558 92 547 58 q 604 109 590 99 q 618 140 618 119 q 603 199 618 160 l 581 250 q 251 238 390 250 l 240 210 q 229 158 229 181 q 292 92 229 100 q 303 -4 303 50 q 149 0 256 0 q 19 -4 61 0 q 32 92 19 53 q 88 126 67 99 q 143 235 110 154 l 436 940 q 479 946 457 944 q 528 947 501 947 l 842 250 q 891 150 872 182 q 925 106 910 118 q 961 92 940 94 m 543 333 l 478 483 q 410 668 436 581 q 346 485 385 582 l 288 333 l 543 333 z "},"Ạ":{"ha":992,"x_min":19,"x_max":972,"o":"m 961 92 q 972 -4 972 54 q 769 0 900 0 q 547 -4 617 0 q 558 92 547 58 q 604 109 590 99 q 618 140 618 119 q 603 199 618 160 l 581 250 q 251 238 390 250 l 240 210 q 229 158 229 181 q 292 92 229 100 q 303 -4 303 50 q 149 0 256 0 q 19 -4 61 0 q 32 92 19 53 q 88 126 67 99 q 143 235 110 154 l 436 940 q 479 946 457 944 q 528 947 501 947 l 842 250 q 891 150 872 182 q 925 106 910 118 q 961 92 940 94 m 543 333 l 478 483 q 410 668 436 581 q 346 485 385 582 l 288 333 l 543 333 m 418 -318 q 326 -290 360 -318 q 292 -214 292 -261 q 328 -130 292 -160 q 425 -100 365 -100 q 524 -129 489 -100 q 558 -212 558 -158 q 520 -288 558 -258 q 418 -318 482 -318 z "},"À":{"ha":992,"x_min":19,"x_max":972,"o":"m 961 92 q 972 -4 972 54 q 769 0 900 0 q 547 -4 617 0 q 558 92 547 58 q 604 109 590 99 q 618 140 618 119 q 603 199 618 160 l 581 250 q 251 238 390 250 l 240 210 q 229 158 229 181 q 292 92 229 100 q 303 -4 303 50 q 149 0 256 0 q 19 -4 61 0 q 32 92 19 53 q 88 126 67 99 q 143 235 110 154 l 436 940 q 479 946 457 944 q 528 947 501 947 l 842 250 q 891 150 872 182 q 925 106 910 118 q 961 92 940 94 m 543 333 l 478 483 q 410 668 436 581 q 346 485 385 582 l 288 333 l 543 333 m 442 1019 q 296 1190 372 1115 q 378 1215 329 1207 q 476 1221 428 1222 q 518 1129 493 1179 q 569 1040 543 1079 q 442 1019 519 1019 z "},"Ả":{"ha":992,"x_min":19,"x_max":972,"o":"m 961 92 q 972 -4 972 54 q 769 0 900 0 q 547 -4 617 0 q 558 92 547 58 q 604 109 590 99 q 618 140 618 119 q 603 199 618 160 l 581 250 q 251 238 390 250 l 240 210 q 229 158 229 181 q 292 92 229 100 q 303 -4 303 50 q 149 0 256 0 q 19 -4 61 0 q 32 92 19 53 q 88 126 67 99 q 143 235 110 154 l 436 940 q 479 946 457 944 q 528 947 501 947 l 842 250 q 891 150 872 182 q 925 106 910 118 q 961 92 940 94 m 543 333 l 478 483 q 410 668 436 581 q 346 485 385 582 l 288 333 l 543 333 m 444 1000 q 435 1039 435 1019 q 446 1078 435 1063 q 476 1110 457 1094 q 501 1135 493 1125 q 508 1160 508 1144 q 499 1183 508 1175 q 476 1192 490 1192 q 441 1172 454 1192 q 421 1099 428 1151 q 333 1117 368 1099 q 338 1168 338 1144 q 333 1210 338 1192 q 492 1253 396 1253 q 629 1163 629 1253 q 613 1110 629 1129 q 568 1069 597 1090 q 542 1049 550 1058 q 533 1029 533 1040 q 538 1008 533 1019 q 475 997 508 997 q 444 1000 464 997 z "},"Ȃ":{"ha":992,"x_min":19,"x_max":972,"o":"m 961 92 q 972 -4 972 54 q 769 0 900 0 q 547 -4 617 0 q 558 92 547 58 q 604 109 590 99 q 618 140 618 119 q 603 199 618 160 l 581 250 q 251 238 390 250 l 240 210 q 229 158 229 181 q 292 92 229 100 q 303 -4 303 50 q 149 0 256 0 q 19 -4 61 0 q 32 92 19 53 q 88 126 67 99 q 143 235 110 154 l 436 940 q 479 946 457 944 q 528 947 501 947 l 842 250 q 891 150 872 182 q 925 106 910 118 q 961 92 940 94 m 543 333 l 478 483 q 410 668 436 581 q 346 485 385 582 l 288 333 l 543 333 m 242 1017 q 303 1167 242 1117 q 485 1218 365 1218 q 663 1169 603 1218 q 724 1022 724 1119 q 635 1006 681 1006 q 600 1008 622 1006 q 559 1067 593 1047 q 468 1088 525 1088 q 382 1067 414 1088 q 349 1008 350 1046 q 310 1004 331 1004 q 242 1017 279 1004 z "},"Ā":{"ha":992,"x_min":19,"x_max":972,"o":"m 961 92 q 972 -4 972 54 q 769 0 900 0 q 547 -4 617 0 q 558 92 547 58 q 604 109 590 99 q 618 140 618 119 q 603 199 618 160 l 581 250 q 251 238 390 250 l 240 210 q 229 158 229 181 q 292 92 229 100 q 303 -4 303 50 q 149 0 256 0 q 19 -4 61 0 q 32 92 19 53 q 88 126 67 99 q 143 235 110 154 l 436 940 q 479 946 457 944 q 528 947 501 947 l 842 250 q 891 150 872 182 q 925 106 910 118 q 961 92 940 94 m 543 333 l 478 483 q 410 668 436 581 q 346 485 385 582 l 288 333 l 543 333 m 750 1142 q 738 1060 750 1104 q 214 1044 443 1060 q 226 1142 214 1108 l 750 1142 z "},"Ą":{"ha":992,"x_min":19,"x_max":972,"o":"m 824 -189 q 874 -183 853 -189 q 890 -221 883 -194 q 896 -271 896 -247 l 894 -286 q 729 -344 794 -304 q 699 -346 717 -346 q 621 -330 661 -346 q 553 -280 581 -314 q 526 -194 526 -246 q 706 0 526 -68 l 547 -4 q 558 92 547 58 q 604 109 590 99 q 618 140 618 119 q 603 199 618 160 l 581 250 q 251 238 390 250 l 240 210 q 229 158 229 181 q 292 92 229 100 q 303 -4 303 50 q 149 0 256 0 q 19 -4 61 0 q 32 92 19 53 q 88 126 67 99 q 143 235 110 154 l 436 940 q 479 946 457 944 q 528 947 501 947 l 842 250 q 891 150 872 182 q 925 106 910 118 q 961 92 940 94 q 972 -4 972 54 q 858 -1 919 -1 q 755 -56 788 -22 q 722 -125 722 -90 q 749 -172 722 -156 q 824 -189 775 -189 m 543 333 l 478 483 q 410 668 436 581 q 346 485 385 582 l 288 333 l 543 333 z "},"Å":{"ha":992,"x_min":19,"x_max":972,"o":"m 961 92 q 972 -4 972 54 q 769 0 900 0 q 547 -4 617 0 q 558 92 547 58 q 604 109 590 99 q 618 140 618 119 q 603 199 618 160 l 581 250 q 251 238 390 250 l 240 210 q 229 158 229 181 q 292 92 229 100 q 303 -4 303 50 q 149 0 256 0 q 19 -4 61 0 q 32 92 19 53 q 88 126 67 99 q 143 235 110 154 l 436 940 q 479 946 457 944 q 528 947 501 947 l 842 250 q 891 150 872 182 q 925 106 910 118 q 961 92 940 94 m 543 333 l 478 483 q 410 668 436 581 q 346 485 385 582 l 288 333 l 543 333 m 474 994 q 358 1026 404 994 q 313 1113 313 1058 q 361 1205 313 1171 q 488 1239 410 1239 q 606 1209 561 1239 q 651 1121 651 1179 q 602 1029 651 1064 q 474 994 553 994 m 486 1053 q 522 1069 507 1053 q 536 1111 536 1085 q 521 1163 536 1139 q 476 1186 506 1186 q 442 1169 456 1186 q 429 1119 429 1151 q 444 1071 429 1089 q 486 1053 458 1053 z "},"Ǻ":{"ha":992,"x_min":19,"x_max":972,"o":"m 961 92 q 972 -4 972 54 q 769 0 900 0 q 547 -4 617 0 q 558 92 547 58 q 604 109 590 99 q 618 140 618 119 q 603 199 618 160 l 581 250 q 251 238 390 250 l 240 210 q 229 158 229 181 q 292 92 229 100 q 303 -4 303 50 q 149 0 256 0 q 19 -4 61 0 q 32 92 19 53 q 88 126 67 99 q 143 235 110 154 l 436 940 q 479 946 457 944 q 528 947 501 947 l 842 250 q 891 150 872 182 q 925 106 910 118 q 961 92 940 94 m 543 333 l 478 483 q 410 668 436 581 q 346 485 385 582 l 288 333 l 543 333 m 474 994 q 358 1026 404 994 q 313 1113 313 1058 q 361 1205 313 1171 q 488 1239 410 1239 q 606 1209 561 1239 q 651 1121 651 1179 q 602 1029 651 1064 q 474 994 553 994 m 486 1053 q 522 1069 507 1053 q 536 1111 536 1085 q 521 1163 536 1139 q 476 1186 506 1186 q 442 1169 456 1186 q 429 1119 429 1151 q 444 1071 429 1089 q 486 1053 458 1053 m 514 1319 q 394 1340 446 1319 q 478 1511 446 1429 q 592 1524 532 1524 q 679 1514 644 1524 q 514 1319 600 1432 z "},"Ã":{"ha":992,"x_min":19,"x_max":972,"o":"m 961 92 q 972 -4 972 54 q 769 0 900 0 q 547 -4 617 0 q 558 92 547 58 q 604 109 590 99 q 618 140 618 119 q 603 199 618 160 l 581 250 q 251 238 390 250 l 240 210 q 229 158 229 181 q 292 92 229 100 q 303 -4 303 50 q 149 0 256 0 q 19 -4 61 0 q 32 92 19 53 q 88 126 67 99 q 143 235 110 154 l 436 940 q 479 946 457 944 q 528 947 501 947 l 842 250 q 891 150 872 182 q 925 106 910 118 q 961 92 940 94 m 543 333 l 478 483 q 410 668 436 581 q 346 485 385 582 l 288 333 l 543 333 m 553 1025 q 496 1034 519 1025 q 440 1060 472 1043 q 399 1082 417 1075 q 358 1089 381 1089 q 253 1029 301 1089 q 210 1118 211 1067 q 299 1195 247 1171 q 399 1219 350 1219 q 453 1211 429 1219 q 513 1186 478 1203 q 558 1167 539 1174 q 596 1160 576 1160 q 678 1210 643 1160 q 754 1169 726 1201 q 668 1063 719 1100 q 553 1025 617 1025 z "},"Æ":{"ha":1358,"x_min":19,"x_max":1328,"o":"m 1328 235 q 1285 -3 1297 140 q 904 0 1135 0 q 536 -4 626 0 q 547 92 536 57 q 605 108 586 96 q 631 149 624 119 q 639 242 639 179 l 639 397 q 383 382 475 393 q 299 231 321 274 q 271 149 271 178 q 335 92 271 103 q 349 -4 349 61 q 189 0 285 0 q 19 -4 61 0 q 32 92 19 58 q 105 120 78 97 q 172 211 132 143 l 475 733 q 499 800 499 772 q 482 832 499 821 q 429 847 465 843 q 419 890 424 860 q 414 942 414 921 q 685 939 558 939 l 838 939 q 1247 943 1117 939 q 1257 817 1249 883 q 1276 703 1265 751 q 1225 687 1263 693 q 1156 681 1188 681 q 1100 805 1143 763 q 954 847 1057 847 l 878 847 l 878 485 l 908 485 q 976 493 954 485 q 1008 524 999 501 q 1018 592 1017 547 q 1125 608 1071 608 q 1122 446 1122 528 q 1125 281 1122 356 q 1021 292 1046 281 q 1008 360 1017 338 q 976 392 999 382 q 906 401 953 401 l 878 401 l 878 247 q 888 151 878 183 q 921 106 899 118 q 983 93 943 93 l 1011 93 q 1101 110 1068 93 q 1158 165 1135 126 q 1210 279 1182 203 q 1328 235 1300 263 m 639 485 l 639 750 q 643 838 639 792 q 600 758 624 800 l 443 485 l 639 485 z "},"Ǽ":{"ha":1358,"x_min":19,"x_max":1328,"o":"m 1328 235 q 1285 -3 1297 140 q 904 0 1135 0 q 536 -4 626 0 q 547 92 536 57 q 605 108 586 96 q 631 149 624 119 q 639 242 639 179 l 639 397 q 383 382 475 393 q 299 231 321 274 q 271 149 271 178 q 335 92 271 103 q 349 -4 349 61 q 189 0 285 0 q 19 -4 61 0 q 32 92 19 58 q 105 120 78 97 q 172 211 132 143 l 475 733 q 499 800 499 772 q 482 832 499 821 q 429 847 465 843 q 419 890 424 860 q 414 942 414 921 q 685 939 558 939 l 838 939 q 1247 943 1117 939 q 1257 817 1249 883 q 1276 703 1265 751 q 1225 687 1263 693 q 1156 681 1188 681 q 1100 805 1143 763 q 954 847 1057 847 l 878 847 l 878 485 l 908 485 q 976 493 954 485 q 1008 524 999 501 q 1018 592 1017 547 q 1125 608 1071 608 q 1122 446 1122 528 q 1125 281 1122 356 q 1021 292 1046 281 q 1008 360 1017 338 q 976 392 999 382 q 906 401 953 401 l 878 401 l 878 247 q 888 151 878 183 q 921 106 899 118 q 983 93 943 93 l 1011 93 q 1101 110 1068 93 q 1158 165 1135 126 q 1210 279 1182 203 q 1328 235 1300 263 m 639 485 l 639 750 q 643 838 639 792 q 600 758 624 800 l 443 485 l 639 485 m 796 1019 q 676 1040 728 1019 q 760 1211 728 1129 q 874 1224 814 1224 q 961 1214 926 1224 q 796 1019 882 1132 z "},"B":{"ha":958,"x_min":51,"x_max":908,"o":"m 636 513 q 908 271 908 499 q 809 72 908 144 q 496 0 710 0 q 51 -4 238 0 q 61 92 51 58 q 119 106 100 94 q 147 149 139 118 q 154 242 154 179 l 154 703 q 147 791 154 763 q 120 831 139 819 q 60 847 101 842 q 51 943 51 885 q 200 939 104 939 q 340 940 288 939 l 488 942 q 767 891 682 942 q 853 729 853 840 q 796 587 853 646 q 636 513 739 528 m 610 692 q 566 806 610 765 q 457 846 522 846 q 394 835 425 846 l 394 531 l 443 531 q 568 573 526 531 q 610 692 610 615 m 499 92 q 603 135 564 92 q 642 254 642 178 q 586 397 642 356 q 428 438 531 438 l 394 438 l 394 233 q 419 120 394 149 q 499 92 444 92 z "},"C":{"ha":888,"x_min":49,"x_max":849,"o":"m 517 -12 q 273 49 379 -12 q 108 222 167 111 q 49 475 49 332 q 114 734 49 626 q 288 897 179 842 q 522 951 396 951 q 829 879 681 951 q 814 664 814 801 q 761 651 796 656 q 693 646 726 646 q 649 808 692 760 q 529 857 607 857 q 353 759 410 857 q 297 511 297 661 q 372 219 297 331 q 593 107 447 107 q 814 171 704 107 q 849 103 842 146 q 517 -12 711 -12 z "},"Ć":{"ha":888,"x_min":49,"x_max":849,"o":"m 517 -12 q 273 49 379 -12 q 108 222 167 111 q 49 475 49 332 q 114 734 49 626 q 288 897 179 842 q 522 951 396 951 q 829 879 681 951 q 814 664 814 801 q 761 651 796 656 q 693 646 726 646 q 649 808 692 760 q 529 857 607 857 q 353 759 410 857 q 297 511 297 661 q 372 219 297 331 q 593 107 447 107 q 814 171 704 107 q 849 103 842 146 q 517 -12 711 -12 m 554 1019 q 435 1040 486 1019 q 518 1211 486 1129 q 632 1224 572 1224 q 719 1214 685 1224 q 554 1019 640 1132 z "},"Č":{"ha":888,"x_min":49,"x_max":849,"o":"m 517 -12 q 273 49 379 -12 q 108 222 167 111 q 49 475 49 332 q 114 734 49 626 q 288 897 179 842 q 522 951 396 951 q 829 879 681 951 q 814 664 814 801 q 761 651 796 656 q 693 646 726 646 q 649 808 692 760 q 529 857 607 857 q 353 759 410 857 q 297 511 297 661 q 372 219 297 331 q 593 107 447 107 q 814 171 704 107 q 849 103 842 146 q 517 -12 711 -12 m 447 1010 q 253 1169 382 1079 q 363 1236 293 1222 q 525 1153 425 1196 q 591 1183 533 1157 q 685 1233 649 1210 q 731 1210 711 1229 q 760 1167 751 1190 q 553 1022 632 1092 q 447 1010 517 1010 z "},"Ç":{"ha":888,"x_min":49,"x_max":849,"o":"m 517 -62 q 608 -108 575 -72 q 640 -193 640 -144 q 578 -299 640 -261 q 413 -336 517 -336 q 400 -272 400 -312 q 478 -255 446 -272 q 510 -207 510 -237 q 486 -166 510 -182 q 426 -150 463 -150 q 401 -87 401 -122 l 461 -10 q 244 67 338 3 q 100 236 151 131 q 49 475 49 342 q 114 734 49 626 q 288 897 179 842 q 522 951 396 951 q 829 879 681 951 q 814 664 814 801 q 761 651 796 656 q 693 646 726 646 q 649 808 692 760 q 529 857 607 857 q 353 759 410 857 q 297 511 297 661 q 372 219 297 331 q 593 107 447 107 q 814 171 704 107 q 849 103 842 146 q 556 -11 725 -1 l 517 -62 z "},"Ḉ":{"ha":888,"x_min":49,"x_max":849,"o":"m 719 1214 q 556 1019 629 1117 q 435 1040 489 1019 q 518 1211 482 1118 q 632 1224 575 1224 q 719 1214 686 1224 m 517 -62 q 608 -108 575 -72 q 640 -193 640 -144 q 578 -299 640 -261 q 413 -336 517 -336 q 400 -272 400 -312 q 478 -255 446 -272 q 510 -207 510 -237 q 486 -166 510 -182 q 426 -150 463 -150 q 401 -87 401 -122 l 461 -10 q 244 67 338 3 q 100 236 151 131 q 49 475 49 342 q 114 734 49 626 q 288 897 179 842 q 522 951 396 951 q 829 879 681 951 q 814 664 814 801 q 761 651 796 656 q 693 646 726 646 q 649 808 692 760 q 529 857 607 857 q 353 759 410 857 q 297 511 297 661 q 372 219 297 331 q 593 107 447 107 q 814 171 704 107 q 849 103 842 146 q 556 -11 725 -1 l 517 -62 z "},"Ĉ":{"ha":888,"x_min":49,"x_max":849,"o":"m 517 -12 q 273 49 379 -12 q 108 222 167 111 q 49 475 49 332 q 114 734 49 626 q 288 897 179 842 q 522 951 396 951 q 829 879 681 951 q 814 664 814 801 q 761 651 796 656 q 693 646 726 646 q 649 808 692 760 q 529 857 607 857 q 353 759 410 857 q 297 511 297 661 q 372 219 297 331 q 593 107 447 107 q 814 171 704 107 q 849 103 842 146 q 517 -12 711 -12 m 343 1011 q 295 1036 315 1017 q 268 1078 275 1056 q 474 1224 408 1164 q 579 1236 517 1236 q 775 1075 656 1157 q 728 1033 753 1049 q 665 1010 703 1017 q 501 1093 590 1056 l 454 1071 q 403 1044 440 1064 q 343 1011 365 1025 z "},"Ċ":{"ha":888,"x_min":49,"x_max":849,"o":"m 517 -12 q 273 49 379 -12 q 108 222 167 111 q 49 475 49 332 q 114 734 49 626 q 288 897 179 842 q 522 951 396 951 q 829 879 681 951 q 814 664 814 801 q 761 651 796 656 q 693 646 726 646 q 649 808 692 760 q 529 857 607 857 q 353 759 410 857 q 297 511 297 661 q 372 219 297 331 q 593 107 447 107 q 814 171 704 107 q 849 103 842 146 q 517 -12 711 -12 z "},"D":{"ha":1024,"x_min":51,"x_max":975,"o":"m 468 942 q 728 906 618 942 q 907 771 839 869 q 975 493 975 672 q 885 179 975 289 q 681 35 794 69 q 463 0 567 0 q 51 -4 247 0 q 61 92 51 58 q 119 106 100 94 q 147 149 139 118 q 154 242 154 179 l 154 703 q 147 791 154 763 q 120 831 139 819 q 60 847 101 842 q 51 943 51 885 q 317 939 140 939 q 381 940 358 939 l 468 942 m 507 93 q 663 172 597 93 q 729 469 729 250 q 655 763 729 675 q 463 850 581 850 q 394 839 424 850 l 394 247 q 404 152 394 185 q 438 106 414 119 q 507 93 461 93 z "},"Ǳ":{"ha":1853,"x_min":51,"x_max":1800,"o":"m 468 942 q 728 906 618 942 q 907 771 839 869 q 975 493 975 672 q 885 179 975 289 q 681 35 794 69 q 463 0 567 0 q 51 -4 247 0 q 61 92 51 58 q 119 106 100 94 q 147 149 139 118 q 154 242 154 179 l 154 703 q 147 791 154 763 q 120 831 139 819 q 60 847 101 842 q 51 943 51 885 q 317 939 140 939 q 381 940 358 939 l 468 942 m 507 93 q 663 172 597 93 q 729 469 729 250 q 655 763 729 675 q 463 850 581 850 q 394 839 424 850 l 394 247 q 404 152 394 185 q 438 106 414 119 q 507 93 461 93 m 1669 279 q 1800 243 1753 272 q 1777 121 1788 193 q 1765 -4 1767 49 q 1406 0 1650 0 q 1099 -4 1215 0 q 1075 81 1075 32 q 1310 491 1215 321 q 1503 847 1406 661 l 1397 847 q 1317 831 1347 847 q 1266 774 1286 815 q 1228 651 1246 732 q 1097 669 1138 651 q 1122 801 1114 728 q 1131 942 1131 875 q 1458 939 1196 939 q 1757 942 1668 939 q 1782 857 1781 903 q 1363 93 1586 468 l 1454 93 q 1563 108 1524 93 q 1626 162 1601 122 q 1669 279 1650 201 z "},"Ǆ":{"ha":1853,"x_min":51,"x_max":1800,"o":"m 468 942 q 728 906 618 942 q 907 771 839 869 q 975 493 975 672 q 885 179 975 289 q 681 35 794 69 q 463 0 567 0 q 51 -4 247 0 q 61 92 51 58 q 119 106 100 94 q 147 149 139 118 q 154 242 154 179 l 154 703 q 147 791 154 763 q 120 831 139 819 q 60 847 101 842 q 51 943 51 885 q 317 939 140 939 q 381 940 358 939 l 468 942 m 507 93 q 663 172 597 93 q 729 469 729 250 q 655 763 729 675 q 463 850 581 850 q 394 839 424 850 l 394 247 q 404 152 394 185 q 438 106 414 119 q 507 93 461 93 m 1669 279 q 1800 243 1753 272 q 1777 121 1788 193 q 1765 -4 1767 49 q 1406 0 1650 0 q 1099 -4 1215 0 q 1075 81 1075 32 q 1310 491 1215 321 q 1503 847 1406 661 l 1397 847 q 1317 831 1347 847 q 1266 774 1286 815 q 1228 651 1246 732 q 1097 669 1138 651 q 1122 801 1114 728 q 1131 942 1131 875 q 1458 939 1196 939 q 1757 942 1668 939 q 1782 857 1781 903 q 1363 93 1586 468 l 1454 93 q 1563 108 1524 93 q 1626 162 1601 122 q 1669 279 1650 201 m 1375 1010 q 1181 1169 1310 1079 q 1290 1236 1221 1222 q 1453 1153 1353 1196 q 1519 1183 1461 1157 q 1613 1233 1576 1210 q 1659 1210 1639 1229 q 1688 1167 1679 1190 q 1481 1022 1560 1092 q 1375 1010 1444 1010 z "},"Ð":{"ha":1024,"x_min":26,"x_max":975,"o":"m 468 942 q 728 906 618 942 q 907 771 839 869 q 975 493 975 672 q 885 179 975 289 q 681 35 794 69 q 463 0 567 0 q 51 -4 247 0 q 61 92 51 58 q 119 106 100 94 q 147 149 139 118 q 154 242 154 179 l 154 417 l 26 415 q 43 526 26 489 l 154 526 l 154 703 q 147 791 154 763 q 120 831 139 819 q 60 847 101 842 q 51 943 51 885 q 317 939 140 939 q 381 940 358 939 l 468 942 m 507 93 q 663 172 597 93 q 729 469 729 250 q 655 763 729 675 q 463 850 581 850 q 394 839 424 850 l 394 526 l 576 526 q 560 417 576 460 q 394 418 490 418 l 394 247 q 404 152 394 185 q 438 106 414 119 q 507 93 461 93 z "},"Ď":{"ha":1024,"x_min":51,"x_max":975,"o":"m 468 942 q 728 906 618 942 q 907 771 839 869 q 975 493 975 672 q 885 179 975 289 q 681 35 794 69 q 463 0 567 0 q 51 -4 247 0 q 61 92 51 58 q 119 106 100 94 q 147 149 139 118 q 154 242 154 179 l 154 703 q 147 791 154 763 q 120 831 139 819 q 60 847 101 842 q 51 943 51 885 q 317 939 140 939 q 381 940 358 939 l 468 942 m 507 93 q 663 172 597 93 q 729 469 729 250 q 655 763 729 675 q 463 850 581 850 q 394 839 424 850 l 394 247 q 404 152 394 185 q 438 106 414 119 q 507 93 461 93 m 413 1010 q 218 1169 347 1079 q 328 1236 258 1222 q 490 1153 390 1196 q 556 1183 499 1157 q 650 1233 614 1210 q 697 1210 676 1229 q 725 1167 717 1190 q 518 1022 597 1092 q 413 1010 482 1010 z "},"Ḑ":{"ha":1024,"x_min":51,"x_max":975,"o":"m 468 942 q 728 906 618 942 q 907 771 839 869 q 975 493 975 672 q 885 179 975 289 q 681 35 794 69 q 463 0 567 0 q 51 -4 247 0 q 61 92 51 58 q 119 106 100 94 q 147 149 139 118 q 154 242 154 179 l 154 703 q 147 791 154 763 q 120 831 139 819 q 60 847 101 842 q 51 943 51 885 q 317 939 140 939 q 381 940 358 939 l 468 942 m 507 93 q 663 172 597 93 q 729 469 729 250 q 655 763 729 675 q 463 850 581 850 q 394 839 424 850 l 394 247 q 404 152 394 185 q 438 106 414 119 q 507 93 461 93 m 506 -54 q 558 -90 542 -64 q 574 -164 574 -115 q 419 -425 574 -318 q 368 -417 392 -426 q 331 -390 344 -408 q 390 -331 369 -361 q 410 -274 410 -300 q 390 -235 410 -249 q 328 -217 369 -222 q 347 -96 324 -150 q 506 -54 447 -92 z "},"Đ":{"ha":1024,"x_min":26,"x_max":975,"o":"m 468 942 q 728 906 618 942 q 907 771 839 869 q 975 493 975 672 q 885 179 975 289 q 681 35 794 69 q 463 0 567 0 q 51 -4 247 0 q 61 92 51 58 q 119 106 100 94 q 147 149 139 118 q 154 242 154 179 l 154 417 l 26 415 q 43 526 26 489 l 154 526 l 154 703 q 147 791 154 763 q 120 831 139 819 q 60 847 101 842 q 51 943 51 885 q 317 939 140 939 q 381 940 358 939 l 468 942 m 507 93 q 663 172 597 93 q 729 469 729 250 q 655 763 729 675 q 463 850 581 850 q 394 839 424 850 l 394 526 l 576 526 q 560 417 576 460 q 394 418 490 418 l 394 247 q 404 152 394 185 q 438 106 414 119 q 507 93 461 93 z "},"Ḍ":{"ha":1024,"x_min":51,"x_max":975,"o":"m 468 942 q 728 906 618 942 q 907 771 839 869 q 975 493 975 672 q 885 179 975 289 q 681 35 794 69 q 463 0 567 0 q 51 -4 247 0 q 61 92 51 58 q 119 106 100 94 q 147 149 139 118 q 154 242 154 179 l 154 703 q 147 791 154 763 q 120 831 139 819 q 60 847 101 842 q 51 943 51 885 q 317 939 140 939 q 381 940 358 939 l 468 942 m 507 93 q 663 172 597 93 q 729 469 729 250 q 655 763 729 675 q 463 850 581 850 q 394 839 424 850 l 394 247 q 404 152 394 185 q 438 106 414 119 q 507 93 461 93 m 446 -318 q 353 -290 388 -318 q 319 -214 319 -261 q 356 -130 319 -160 q 453 -100 393 -100 q 551 -129 517 -100 q 586 -212 586 -158 q 548 -288 586 -258 q 446 -318 510 -318 z "},"Ḏ":{"ha":1024,"x_min":51,"x_max":975,"o":"m 468 942 q 728 906 618 942 q 907 771 839 869 q 975 493 975 672 q 885 179 975 289 q 681 35 794 69 q 463 0 567 0 q 51 -4 247 0 q 61 92 51 58 q 119 106 100 94 q 147 149 139 118 q 154 242 154 179 l 154 703 q 147 791 154 763 q 120 831 139 819 q 60 847 101 842 q 51 943 51 885 q 317 939 140 939 q 381 940 358 939 l 468 942 m 507 93 q 663 172 597 93 q 729 469 729 250 q 655 763 729 675 q 463 850 581 850 q 394 839 424 850 l 394 247 q 404 152 394 185 q 438 106 414 119 q 507 93 461 93 m 190 -221 q 203 -135 190 -165 l 717 -135 q 704 -210 717 -176 q 190 -221 422 -210 z "},"ǲ":{"ha":1736,"x_min":51,"x_max":1700,"o":"m 468 942 q 728 906 618 942 q 907 771 839 869 q 975 493 975 672 q 885 179 975 289 q 681 35 794 69 q 463 0 567 0 q 51 -4 247 0 q 61 92 51 58 q 119 106 100 94 q 147 149 139 118 q 154 242 154 179 l 154 703 q 147 791 154 763 q 120 831 139 819 q 60 847 101 842 q 51 943 51 885 q 317 939 140 939 q 381 940 358 939 l 468 942 m 507 93 q 663 172 597 93 q 729 469 729 250 q 655 763 729 675 q 463 850 581 850 q 394 839 424 850 l 394 247 q 404 152 394 185 q 438 106 414 119 q 507 93 461 93 m 1689 239 q 1700 29 1689 96 q 1640 -3 1686 -3 q 1526 -1 1571 -3 l 1369 0 q 1111 -3 1211 0 q 1091 39 1099 14 q 1083 88 1083 64 q 1255 322 1164 194 q 1406 543 1346 450 l 1333 543 q 1274 532 1296 543 q 1240 492 1253 521 q 1218 406 1228 463 q 1148 408 1183 403 q 1089 425 1113 413 q 1104 640 1104 511 q 1389 636 1189 636 q 1656 640 1567 636 q 1676 560 1676 608 q 1358 93 1558 368 l 1453 93 q 1521 108 1497 93 q 1555 156 1544 122 q 1569 253 1565 189 q 1689 239 1631 257 z "},"ǅ":{"ha":1736,"x_min":51,"x_max":1700,"o":"m 468 942 q 728 906 618 942 q 907 771 839 869 q 975 493 975 672 q 885 179 975 289 q 681 35 794 69 q 463 0 567 0 q 51 -4 247 0 q 61 92 51 58 q 119 106 100 94 q 147 149 139 118 q 154 242 154 179 l 154 703 q 147 791 154 763 q 120 831 139 819 q 60 847 101 842 q 51 943 51 885 q 317 939 140 939 q 381 940 358 939 l 468 942 m 507 93 q 663 172 597 93 q 729 469 729 250 q 655 763 729 675 q 463 850 581 850 q 394 839 424 850 l 394 247 q 404 152 394 185 q 438 106 414 119 q 507 93 461 93 m 1689 239 q 1700 29 1689 96 q 1640 -3 1686 -3 q 1526 -1 1571 -3 l 1369 0 q 1111 -3 1211 0 q 1091 39 1099 14 q 1083 88 1083 64 q 1255 322 1164 194 q 1406 543 1346 450 l 1333 543 q 1274 532 1296 543 q 1240 492 1253 521 q 1218 406 1228 463 q 1148 408 1183 403 q 1089 425 1113 413 q 1104 640 1104 511 q 1389 636 1189 636 q 1656 640 1567 636 q 1676 560 1676 608 q 1358 93 1558 368 l 1453 93 q 1521 108 1497 93 q 1555 156 1544 122 q 1569 253 1565 189 q 1689 239 1631 257 m 1321 717 q 1115 928 1229 825 q 1197 996 1131 974 q 1385 882 1303 919 q 1480 935 1425 900 q 1568 996 1535 969 q 1615 971 1594 990 q 1643 929 1635 951 q 1426 729 1511 829 q 1321 717 1388 717 z "},"E":{"ha":882,"x_min":51,"x_max":851,"o":"m 731 279 q 803 262 771 274 q 851 235 835 250 q 808 -3 821 139 q 463 0 658 0 q 51 -4 247 0 q 61 92 51 58 q 119 106 100 94 q 147 149 139 118 q 154 242 154 179 l 154 703 q 147 791 154 763 q 119 831 139 819 q 60 847 100 842 q 51 943 51 878 q 392 939 168 939 q 769 943 665 939 q 780 815 772 883 q 799 703 788 747 q 678 681 750 681 q 623 805 665 763 q 478 847 581 847 l 394 847 l 394 515 l 417 515 q 514 537 489 515 q 540 617 539 558 q 649 632 582 632 q 643 472 643 543 q 649 308 643 392 q 543 321 581 308 q 511 401 538 381 q 417 422 485 422 l 394 422 l 394 247 q 404 152 394 185 q 438 106 414 119 q 507 93 461 93 l 526 93 q 658 135 614 93 q 731 279 701 178 z "},"É":{"ha":882,"x_min":51,"x_max":851,"o":"m 731 279 q 803 262 771 274 q 851 235 835 250 q 808 -3 821 139 q 463 0 658 0 q 51 -4 247 0 q 61 92 51 58 q 119 106 100 94 q 147 149 139 118 q 154 242 154 179 l 154 703 q 147 791 154 763 q 119 831 139 819 q 60 847 100 842 q 51 943 51 878 q 392 939 168 939 q 769 943 665 939 q 780 815 772 883 q 799 703 788 747 q 678 681 750 681 q 623 805 665 763 q 478 847 581 847 l 394 847 l 394 515 l 417 515 q 514 537 489 515 q 540 617 539 558 q 649 632 582 632 q 643 472 643 543 q 649 308 643 392 q 543 321 581 308 q 511 401 538 381 q 417 422 485 422 l 394 422 l 394 247 q 404 152 394 185 q 438 106 414 119 q 507 93 461 93 l 526 93 q 658 135 614 93 q 731 279 701 178 m 458 1019 q 339 1040 390 1019 q 422 1211 390 1129 q 536 1224 476 1224 q 624 1214 589 1224 q 458 1019 544 1132 z "},"Ĕ":{"ha":882,"x_min":51,"x_max":851,"o":"m 731 279 q 803 262 771 274 q 851 235 835 250 q 808 -3 821 139 q 463 0 658 0 q 51 -4 247 0 q 61 92 51 58 q 119 106 100 94 q 147 149 139 118 q 154 242 154 179 l 154 703 q 147 791 154 763 q 119 831 139 819 q 60 847 100 842 q 51 943 51 878 q 392 939 168 939 q 769 943 665 939 q 780 815 772 883 q 799 703 788 747 q 678 681 750 681 q 623 805 665 763 q 478 847 581 847 l 394 847 l 394 515 l 417 515 q 514 537 489 515 q 540 617 539 558 q 649 632 582 632 q 643 472 643 543 q 649 308 643 392 q 543 321 581 308 q 511 401 538 381 q 417 422 485 422 l 394 422 l 394 247 q 404 152 394 185 q 438 106 414 119 q 507 93 461 93 l 526 93 q 658 135 614 93 q 731 279 701 178 m 668 1206 q 606 1055 668 1106 q 425 1004 544 1004 q 247 1053 307 1004 q 186 1200 186 1103 q 276 1217 229 1217 q 310 1214 288 1217 q 350 1155 315 1175 q 442 1135 385 1135 q 528 1155 496 1135 q 561 1214 560 1175 q 600 1217 574 1217 q 668 1206 635 1217 z "},"Ě":{"ha":882,"x_min":51,"x_max":851,"o":"m 731 279 q 803 262 771 274 q 851 235 835 250 q 808 -3 821 139 q 463 0 658 0 q 51 -4 247 0 q 61 92 51 58 q 119 106 100 94 q 147 149 139 118 q 154 242 154 179 l 154 703 q 147 791 154 763 q 119 831 139 819 q 60 847 100 842 q 51 943 51 878 q 392 939 168 939 q 769 943 665 939 q 780 815 772 883 q 799 703 788 747 q 678 681 750 681 q 623 805 665 763 q 478 847 581 847 l 394 847 l 394 515 l 417 515 q 514 537 489 515 q 540 617 539 558 q 649 632 582 632 q 643 472 643 543 q 649 308 643 392 q 543 321 581 308 q 511 401 538 381 q 417 422 485 422 l 394 422 l 394 247 q 404 152 394 185 q 438 106 414 119 q 507 93 461 93 l 526 93 q 658 135 614 93 q 731 279 701 178 m 351 1010 q 157 1169 286 1079 q 267 1236 197 1222 q 429 1153 329 1196 q 495 1183 438 1157 q 589 1233 553 1210 q 635 1210 615 1229 q 664 1167 656 1190 q 457 1022 536 1092 q 351 1010 421 1010 z "},"Ȩ":{"ha":882,"x_min":51,"x_max":851,"o":"m 808 -3 q 506 0 675 0 l 460 -62 q 549 -108 517 -72 q 582 -193 582 -144 q 520 -299 582 -261 q 354 -336 458 -336 q 343 -272 343 -312 q 420 -255 389 -272 q 451 -207 451 -237 q 428 -166 451 -182 q 368 -150 404 -150 q 343 -87 343 -119 l 411 0 l 269 -1 q 153 -3 211 -3 q 51 -4 94 -3 q 61 92 51 58 q 119 106 100 94 q 147 149 139 118 q 154 242 154 179 l 154 703 q 147 791 154 763 q 119 831 139 819 q 60 847 100 842 q 51 943 51 878 q 392 939 168 939 q 769 943 665 939 q 780 815 772 883 q 799 703 788 747 q 678 681 750 681 q 623 805 665 763 q 478 847 581 847 l 394 847 l 394 515 l 417 515 q 514 537 489 515 q 540 617 539 558 q 649 632 582 632 q 643 472 643 543 q 649 308 643 392 q 543 321 581 308 q 511 401 538 381 q 417 422 485 422 l 394 422 l 394 247 q 404 152 394 185 q 438 106 414 119 q 507 93 461 93 l 526 93 q 658 135 614 93 q 731 279 701 178 q 803 262 771 274 q 851 235 835 250 q 808 -3 821 139 z "},"Ḝ":{"ha":882,"x_min":51,"x_max":851,"o":"m 424 1004 q 247 1053 307 1004 q 186 1200 186 1103 q 276 1217 229 1217 q 310 1214 288 1217 q 350 1155 315 1175 q 440 1135 385 1135 q 528 1155 496 1135 q 561 1214 560 1175 q 600 1217 574 1217 q 668 1206 635 1217 q 606 1055 668 1106 q 424 1004 544 1004 m 808 -3 q 506 0 675 0 l 460 -62 q 549 -108 517 -72 q 582 -193 582 -144 q 520 -299 582 -261 q 354 -336 458 -336 q 343 -272 343 -312 q 420 -255 389 -272 q 451 -207 451 -237 q 428 -166 451 -182 q 368 -150 404 -150 q 343 -87 343 -119 l 411 0 l 269 -1 q 153 -3 211 -3 q 51 -4 94 -3 q 61 92 51 58 q 119 106 100 94 q 147 149 139 118 q 154 242 154 179 l 154 703 q 147 791 154 763 q 119 831 139 819 q 60 847 100 842 q 51 943 51 878 q 392 939 168 939 q 769 943 665 939 q 780 815 772 883 q 799 703 788 747 q 678 681 750 681 q 623 805 665 763 q 478 847 581 847 l 394 847 l 394 515 l 417 515 q 514 537 489 515 q 540 617 539 558 q 649 632 582 632 q 643 472 643 543 q 649 308 643 392 q 543 321 581 308 q 511 401 538 381 q 417 422 485 422 l 394 422 l 394 247 q 404 152 394 185 q 438 106 414 119 q 507 93 461 93 l 526 93 q 658 135 614 93 q 731 279 701 178 q 803 262 771 274 q 851 235 835 250 q 808 -3 821 139 z "},"Ê":{"ha":882,"x_min":51,"x_max":851,"o":"m 731 279 q 803 262 771 274 q 851 235 835 250 q 808 -3 821 139 q 463 0 658 0 q 51 -4 247 0 q 61 92 51 58 q 119 106 100 94 q 147 149 139 118 q 154 242 154 179 l 154 703 q 147 791 154 763 q 119 831 139 819 q 60 847 100 842 q 51 943 51 878 q 392 939 168 939 q 769 943 665 939 q 780 815 772 883 q 799 703 788 747 q 678 681 750 681 q 623 805 665 763 q 478 847 581 847 l 394 847 l 394 515 l 417 515 q 514 537 489 515 q 540 617 539 558 q 649 632 582 632 q 643 472 643 543 q 649 308 643 392 q 543 321 581 308 q 511 401 538 381 q 417 422 485 422 l 394 422 l 394 247 q 404 152 394 185 q 438 106 414 119 q 507 93 461 93 l 526 93 q 658 135 614 93 q 731 279 701 178 m 247 1011 q 199 1036 219 1017 q 172 1078 179 1056 q 378 1224 313 1164 q 483 1236 421 1236 q 679 1075 560 1157 q 632 1033 657 1049 q 569 1010 607 1017 q 406 1093 494 1056 l 358 1071 q 307 1044 344 1064 q 247 1011 269 1025 z "},"Ế":{"ha":882,"x_min":51,"x_max":851,"o":"m 731 279 q 803 262 771 274 q 851 235 835 250 q 808 -3 821 139 q 463 0 658 0 q 51 -4 247 0 q 61 92 51 58 q 119 106 100 94 q 147 149 139 118 q 154 242 154 179 l 154 703 q 147 791 154 763 q 119 831 139 819 q 60 847 100 842 q 51 943 51 878 q 392 939 168 939 q 769 943 665 939 q 780 815 772 883 q 799 703 788 747 q 678 681 750 681 q 623 805 665 763 q 478 847 581 847 l 394 847 l 394 515 l 417 515 q 514 537 489 515 q 540 617 539 558 q 649 632 582 632 q 643 472 643 543 q 649 308 643 392 q 543 321 581 308 q 511 401 538 381 q 417 422 485 422 l 394 422 l 394 247 q 404 152 394 185 q 438 106 414 119 q 507 93 461 93 l 526 93 q 658 135 614 93 q 731 279 701 178 m 689 1199 q 579 1217 633 1199 q 656 1372 624 1290 q 760 1385 706 1385 q 839 1376 806 1385 q 689 1199 761 1294 m 247 1011 q 199 1036 219 1017 q 172 1078 179 1056 q 378 1224 313 1164 q 483 1236 421 1236 q 679 1075 560 1157 q 632 1033 657 1049 q 569 1010 607 1017 q 406 1093 494 1056 l 358 1071 q 307 1044 344 1064 q 247 1011 269 1025 z "},"Ệ":{"ha":882,"x_min":51,"x_max":851,"o":"m 731 279 q 803 262 771 274 q 851 235 835 250 q 808 -3 821 139 q 463 0 658 0 q 51 -4 247 0 q 61 92 51 58 q 119 106 100 94 q 147 149 139 118 q 154 242 154 179 l 154 703 q 147 791 154 763 q 119 831 139 819 q 60 847 100 842 q 51 943 51 878 q 392 939 168 939 q 769 943 665 939 q 780 815 772 883 q 799 703 788 747 q 678 681 750 681 q 623 805 665 763 q 478 847 581 847 l 394 847 l 394 515 l 417 515 q 514 537 489 515 q 540 617 539 558 q 649 632 582 632 q 643 472 643 543 q 649 308 643 392 q 543 321 581 308 q 511 401 538 381 q 417 422 485 422 l 394 422 l 394 247 q 404 152 394 185 q 438 106 414 119 q 507 93 461 93 l 526 93 q 658 135 614 93 q 731 279 701 178 m 456 -318 q 363 -290 397 -318 q 329 -214 329 -261 q 366 -130 329 -160 q 463 -100 403 -100 q 561 -129 526 -100 q 596 -212 596 -158 q 558 -288 596 -258 q 456 -318 519 -318 m 247 1011 q 199 1036 219 1017 q 172 1078 179 1056 q 378 1224 313 1164 q 483 1236 421 1236 q 679 1075 560 1157 q 632 1033 657 1049 q 569 1010 607 1017 q 406 1093 494 1056 l 358 1071 q 307 1044 344 1064 q 247 1011 269 1025 z "},"Ề":{"ha":882,"x_min":51,"x_max":851,"o":"m 731 279 q 803 262 771 274 q 851 235 835 250 q 808 -3 821 139 q 463 0 658 0 q 51 -4 247 0 q 61 92 51 58 q 119 106 100 94 q 147 149 139 118 q 154 242 154 179 l 154 703 q 147 791 154 763 q 119 831 139 819 q 60 847 100 842 q 51 943 51 878 q 392 939 168 939 q 769 943 665 939 q 780 815 772 883 q 799 703 788 747 q 678 681 750 681 q 623 805 665 763 q 478 847 581 847 l 394 847 l 394 515 l 417 515 q 514 537 489 515 q 540 617 539 558 q 649 632 582 632 q 643 472 643 543 q 649 308 643 392 q 543 321 581 308 q 511 401 538 381 q 417 422 485 422 l 394 422 l 394 247 q 404 152 394 185 q 438 106 414 119 q 507 93 461 93 l 526 93 q 658 135 614 93 q 731 279 701 178 z "},"Ể":{"ha":882,"x_min":51,"x_max":851,"o":"m 731 279 q 803 262 771 274 q 851 235 835 250 q 808 -3 821 139 q 463 0 658 0 q 51 -4 247 0 q 61 92 51 58 q 119 106 100 94 q 147 149 139 118 q 154 242 154 179 l 154 703 q 147 791 154 763 q 119 831 139 819 q 60 847 100 842 q 51 943 51 878 q 392 939 168 939 q 769 943 665 939 q 780 815 772 883 q 799 703 788 747 q 678 681 750 681 q 623 805 665 763 q 478 847 581 847 l 394 847 l 394 515 l 417 515 q 514 537 489 515 q 540 617 539 558 q 649 632 582 632 q 643 472 643 543 q 649 308 643 392 q 543 321 581 308 q 511 401 538 381 q 417 422 485 422 l 394 422 l 394 247 q 404 152 394 185 q 438 106 414 119 q 507 93 461 93 l 526 93 q 658 135 614 93 q 731 279 701 178 m 247 1011 q 199 1036 219 1017 q 172 1078 179 1056 q 378 1224 313 1164 q 483 1236 421 1236 q 679 1075 560 1157 q 632 1033 657 1049 q 569 1010 607 1017 q 406 1093 494 1056 l 358 1071 q 307 1044 344 1064 q 247 1011 269 1025 m 600 1201 q 590 1240 590 1221 q 601 1280 590 1264 q 632 1311 613 1296 q 656 1336 649 1326 q 664 1361 664 1346 q 655 1385 664 1376 q 632 1393 646 1393 q 597 1373 610 1393 q 576 1300 583 1353 q 489 1318 524 1300 q 493 1369 493 1346 q 489 1411 493 1393 q 647 1454 551 1454 q 785 1364 785 1454 q 769 1311 785 1331 q 724 1271 753 1292 q 697 1251 706 1260 q 689 1231 689 1242 q 693 1210 689 1221 q 631 1199 664 1199 q 600 1201 619 1199 z "},"Ễ":{"ha":882,"x_min":51,"x_max":851,"o":"m 731 279 q 803 262 771 274 q 851 235 835 250 q 808 -3 821 139 q 463 0 658 0 q 51 -4 247 0 q 61 92 51 58 q 119 106 100 94 q 147 149 139 118 q 154 242 154 179 l 154 703 q 147 791 154 763 q 119 831 139 819 q 60 847 100 842 q 51 943 51 878 q 392 939 168 939 q 769 943 665 939 q 780 815 772 883 q 799 703 788 747 q 678 681 750 681 q 623 805 665 763 q 478 847 581 847 l 394 847 l 394 515 l 417 515 q 514 537 489 515 q 540 617 539 558 q 649 632 582 632 q 643 472 643 543 q 649 308 643 392 q 543 321 581 308 q 511 401 538 381 q 417 422 485 422 l 394 422 l 394 247 q 404 152 394 185 q 438 106 414 119 q 507 93 461 93 l 526 93 q 658 135 614 93 q 731 279 701 178 m 247 1011 q 199 1036 219 1017 q 172 1078 179 1056 q 378 1224 313 1164 q 483 1236 421 1236 q 679 1075 560 1157 q 632 1033 657 1049 q 569 1010 607 1017 q 406 1093 494 1056 l 358 1071 q 307 1044 344 1064 q 247 1011 269 1025 m 499 1294 q 442 1303 465 1294 q 386 1329 418 1313 q 344 1351 363 1344 q 304 1358 326 1358 q 199 1299 247 1358 q 156 1388 157 1336 q 244 1465 193 1440 q 344 1489 296 1489 q 399 1481 375 1489 q 458 1456 424 1472 q 503 1436 485 1443 q 542 1429 522 1429 q 624 1479 589 1429 q 700 1439 672 1471 q 614 1332 665 1369 q 499 1294 563 1294 z "},"Ȅ":{"ha":882,"x_min":51,"x_max":851,"o":"m 731 279 q 803 262 771 274 q 851 235 835 250 q 808 -3 821 139 q 463 0 658 0 q 51 -4 247 0 q 61 92 51 58 q 119 106 100 94 q 147 149 139 118 q 154 242 154 179 l 154 703 q 147 791 154 763 q 119 831 139 819 q 60 847 100 842 q 51 943 51 878 q 392 939 168 939 q 769 943 665 939 q 780 815 772 883 q 799 703 788 747 q 678 681 750 681 q 623 805 665 763 q 478 847 581 847 l 394 847 l 394 515 l 417 515 q 514 537 489 515 q 540 617 539 558 q 649 632 582 632 q 643 472 643 543 q 649 308 643 392 q 543 321 581 308 q 511 401 538 381 q 417 422 485 422 l 394 422 l 394 247 q 404 152 394 185 q 438 106 414 119 q 507 93 461 93 l 526 93 q 658 135 614 93 q 731 279 701 178 m 261 996 q 107 1167 178 1096 q 190 1191 140 1183 q 288 1197 239 1199 q 381 1015 324 1103 q 261 996 326 996 m 521 996 q 378 1171 436 1107 q 456 1192 410 1185 q 547 1197 503 1199 q 640 1015 583 1103 q 521 996 586 996 z "},"Ë":{"ha":882,"x_min":51,"x_max":851,"o":"m 731 279 q 803 262 771 274 q 851 235 835 250 q 808 -3 821 139 q 463 0 658 0 q 51 -4 247 0 q 61 92 51 58 q 119 106 100 94 q 147 149 139 118 q 154 242 154 179 l 154 703 q 147 791 154 763 q 119 831 139 819 q 60 847 100 842 q 51 943 51 878 q 392 939 168 939 q 769 943 665 939 q 780 815 772 883 q 799 703 788 747 q 678 681 750 681 q 623 805 665 763 q 478 847 581 847 l 394 847 l 394 515 l 417 515 q 514 537 489 515 q 540 617 539 558 q 649 632 582 632 q 643 472 643 543 q 649 308 643 392 q 543 321 581 308 q 511 401 538 381 q 417 422 485 422 l 394 422 l 394 247 q 404 152 394 185 q 438 106 414 119 q 507 93 461 93 l 526 93 q 658 135 614 93 q 731 279 701 178 z "},"Ė":{"ha":882,"x_min":51,"x_max":851,"o":"m 731 279 q 803 262 771 274 q 851 235 835 250 q 808 -3 821 139 q 463 0 658 0 q 51 -4 247 0 q 61 92 51 58 q 119 106 100 94 q 147 149 139 118 q 154 242 154 179 l 154 703 q 147 791 154 763 q 119 831 139 819 q 60 847 100 842 q 51 943 51 878 q 392 939 168 939 q 769 943 665 939 q 780 815 772 883 q 799 703 788 747 q 678 681 750 681 q 623 805 665 763 q 478 847 581 847 l 394 847 l 394 515 l 417 515 q 514 537 489 515 q 540 617 539 558 q 649 632 582 632 q 643 472 643 543 q 649 308 643 392 q 543 321 581 308 q 511 401 538 381 q 417 422 485 422 l 394 422 l 394 247 q 404 152 394 185 q 438 106 414 119 q 507 93 461 93 l 526 93 q 658 135 614 93 q 731 279 701 178 z "},"Ẹ":{"ha":882,"x_min":51,"x_max":851,"o":"m 731 279 q 803 262 771 274 q 851 235 835 250 q 808 -3 821 139 q 463 0 658 0 q 51 -4 247 0 q 61 92 51 58 q 119 106 100 94 q 147 149 139 118 q 154 242 154 179 l 154 703 q 147 791 154 763 q 119 831 139 819 q 60 847 100 842 q 51 943 51 878 q 392 939 168 939 q 769 943 665 939 q 780 815 772 883 q 799 703 788 747 q 678 681 750 681 q 623 805 665 763 q 478 847 581 847 l 394 847 l 394 515 l 417 515 q 514 537 489 515 q 540 617 539 558 q 649 632 582 632 q 643 472 643 543 q 649 308 643 392 q 543 321 581 308 q 511 401 538 381 q 417 422 485 422 l 394 422 l 394 247 q 404 152 394 185 q 438 106 414 119 q 507 93 461 93 l 526 93 q 658 135 614 93 q 731 279 701 178 m 456 -318 q 363 -290 397 -318 q 329 -214 329 -261 q 366 -130 329 -160 q 463 -100 403 -100 q 561 -129 526 -100 q 596 -212 596 -158 q 558 -288 596 -258 q 456 -318 519 -318 z "},"È":{"ha":882,"x_min":51,"x_max":851,"o":"m 731 279 q 803 262 771 274 q 851 235 835 250 q 808 -3 821 139 q 463 0 658 0 q 51 -4 247 0 q 61 92 51 58 q 119 106 100 94 q 147 149 139 118 q 154 242 154 179 l 154 703 q 147 791 154 763 q 119 831 139 819 q 60 847 100 842 q 51 943 51 878 q 392 939 168 939 q 769 943 665 939 q 780 815 772 883 q 799 703 788 747 q 678 681 750 681 q 623 805 665 763 q 478 847 581 847 l 394 847 l 394 515 l 417 515 q 514 537 489 515 q 540 617 539 558 q 649 632 582 632 q 643 472 643 543 q 649 308 643 392 q 543 321 581 308 q 511 401 538 381 q 417 422 485 422 l 394 422 l 394 247 q 404 152 394 185 q 438 106 414 119 q 507 93 461 93 l 526 93 q 658 135 614 93 q 731 279 701 178 m 386 1019 q 240 1190 317 1115 q 323 1215 274 1207 q 421 1221 372 1222 q 463 1129 438 1179 q 514 1040 488 1079 q 386 1019 464 1019 z "},"Ẻ":{"ha":882,"x_min":51,"x_max":851,"o":"m 731 279 q 803 262 771 274 q 851 235 835 250 q 808 -3 821 139 q 463 0 658 0 q 51 -4 247 0 q 61 92 51 58 q 119 106 100 94 q 147 149 139 118 q 154 242 154 179 l 154 703 q 147 791 154 763 q 119 831 139 819 q 60 847 100 842 q 51 943 51 878 q 392 939 168 939 q 769 943 665 939 q 780 815 772 883 q 799 703 788 747 q 678 681 750 681 q 623 805 665 763 q 478 847 581 847 l 394 847 l 394 515 l 417 515 q 514 537 489 515 q 540 617 539 558 q 649 632 582 632 q 643 472 643 543 q 649 308 643 392 q 543 321 581 308 q 511 401 538 381 q 417 422 485 422 l 394 422 l 394 247 q 404 152 394 185 q 438 106 414 119 q 507 93 461 93 l 526 93 q 658 135 614 93 q 731 279 701 178 m 389 1000 q 379 1039 379 1019 q 390 1078 379 1063 q 421 1110 401 1094 q 445 1135 438 1125 q 453 1160 453 1144 q 444 1183 453 1175 q 421 1192 435 1192 q 385 1172 399 1192 q 365 1099 372 1151 q 278 1117 313 1099 q 282 1168 282 1144 q 278 1210 282 1192 q 436 1253 340 1253 q 574 1163 574 1253 q 558 1110 574 1129 q 513 1069 542 1090 q 486 1049 494 1058 q 478 1029 478 1040 q 482 1008 478 1019 q 419 997 453 997 q 389 1000 408 997 z "},"Ȇ":{"ha":882,"x_min":51,"x_max":851,"o":"m 731 279 q 803 262 771 274 q 851 235 835 250 q 808 -3 821 139 q 463 0 658 0 q 51 -4 247 0 q 61 92 51 58 q 119 106 100 94 q 147 149 139 118 q 154 242 154 179 l 154 703 q 147 791 154 763 q 119 831 139 819 q 60 847 100 842 q 51 943 51 878 q 392 939 168 939 q 769 943 665 939 q 780 815 772 883 q 799 703 788 747 q 678 681 750 681 q 623 805 665 763 q 478 847 581 847 l 394 847 l 394 515 l 417 515 q 514 537 489 515 q 540 617 539 558 q 649 632 582 632 q 643 472 643 543 q 649 308 643 392 q 543 321 581 308 q 511 401 538 381 q 417 422 485 422 l 394 422 l 394 247 q 404 152 394 185 q 438 106 414 119 q 507 93 461 93 l 526 93 q 658 135 614 93 q 731 279 701 178 m 186 1017 q 248 1167 186 1117 q 429 1218 310 1218 q 608 1169 547 1218 q 668 1022 668 1119 q 579 1006 625 1006 q 544 1008 567 1006 q 503 1067 538 1047 q 413 1088 469 1088 q 326 1067 358 1088 q 293 1008 294 1046 q 254 1004 275 1004 q 186 1017 224 1004 z "},"Ē":{"ha":882,"x_min":51,"x_max":851,"o":"m 731 279 q 803 262 771 274 q 851 235 835 250 q 808 -3 821 139 q 463 0 658 0 q 51 -4 247 0 q 61 92 51 58 q 119 106 100 94 q 147 149 139 118 q 154 242 154 179 l 154 703 q 147 791 154 763 q 119 831 139 819 q 60 847 100 842 q 51 943 51 878 q 392 939 168 939 q 769 943 665 939 q 780 815 772 883 q 799 703 788 747 q 678 681 750 681 q 623 805 665 763 q 478 847 581 847 l 394 847 l 394 515 l 417 515 q 514 537 489 515 q 540 617 539 558 q 649 632 582 632 q 643 472 643 543 q 649 308 643 392 q 543 321 581 308 q 511 401 538 381 q 417 422 485 422 l 394 422 l 394 247 q 404 152 394 185 q 438 106 414 119 q 507 93 461 93 l 526 93 q 658 135 614 93 q 731 279 701 178 m 694 1142 q 682 1060 694 1104 q 158 1044 388 1060 q 171 1142 158 1108 l 694 1142 z "},"Ḗ":{"ha":882,"x_min":51,"x_max":851,"o":"m 731 279 q 803 262 771 274 q 851 235 835 250 q 808 -3 821 139 q 463 0 658 0 q 51 -4 247 0 q 61 92 51 58 q 119 106 100 94 q 147 149 139 118 q 154 242 154 179 l 154 703 q 147 791 154 763 q 119 831 139 819 q 60 847 100 842 q 51 943 51 878 q 392 939 168 939 q 769 943 665 939 q 780 815 772 883 q 799 703 788 747 q 678 681 750 681 q 623 805 665 763 q 478 847 581 847 l 394 847 l 394 515 l 417 515 q 514 537 489 515 q 540 617 539 558 q 649 632 582 632 q 643 472 643 543 q 649 308 643 392 q 543 321 581 308 q 511 401 538 381 q 417 422 485 422 l 394 422 l 394 247 q 404 152 394 185 q 438 106 414 119 q 507 93 461 93 l 526 93 q 658 135 614 93 q 731 279 701 178 m 694 1142 q 682 1060 694 1104 q 158 1044 388 1060 q 171 1142 158 1108 l 694 1142 m 458 1222 q 339 1243 390 1222 q 422 1414 390 1332 q 536 1426 476 1426 q 624 1417 589 1426 q 458 1222 544 1335 z "},"Ḕ":{"ha":882,"x_min":51,"x_max":851,"o":"m 731 279 q 803 262 771 274 q 851 235 835 250 q 808 -3 821 139 q 463 0 658 0 q 51 -4 247 0 q 61 92 51 58 q 119 106 100 94 q 147 149 139 118 q 154 242 154 179 l 154 703 q 147 791 154 763 q 119 831 139 819 q 60 847 100 842 q 51 943 51 878 q 392 939 168 939 q 769 943 665 939 q 780 815 772 883 q 799 703 788 747 q 678 681 750 681 q 623 805 665 763 q 478 847 581 847 l 394 847 l 394 515 l 417 515 q 514 537 489 515 q 540 617 539 558 q 649 632 582 632 q 643 472 643 543 q 649 308 643 392 q 543 321 581 308 q 511 401 538 381 q 417 422 485 422 l 394 422 l 394 247 q 404 152 394 185 q 438 106 414 119 q 507 93 461 93 l 526 93 q 658 135 614 93 q 731 279 701 178 m 694 1142 q 682 1060 694 1104 q 158 1044 388 1060 q 171 1142 158 1108 l 694 1142 m 386 1222 q 240 1393 317 1318 q 323 1417 274 1410 q 421 1424 372 1425 q 463 1332 438 1382 q 514 1243 488 1282 q 386 1222 464 1222 z "},"Ę":{"ha":882,"x_min":51,"x_max":851,"o":"m 733 -1 q 632 -57 664 -22 q 600 -125 600 -92 q 626 -172 600 -156 q 701 -189 653 -189 q 751 -183 731 -189 q 766 -219 760 -194 q 772 -267 772 -244 q 771 -286 772 -281 q 607 -344 671 -306 q 576 -346 594 -346 q 499 -330 539 -346 q 431 -280 458 -314 q 404 -194 404 -246 q 583 0 404 -68 l 463 0 q 51 -4 247 0 q 61 92 51 58 q 119 106 100 94 q 147 149 139 118 q 154 242 154 179 l 154 703 q 147 791 154 763 q 119 831 139 819 q 60 847 100 842 q 51 943 51 878 q 392 939 168 939 q 769 943 665 939 q 780 815 772 883 q 799 703 788 747 q 678 681 750 681 q 623 805 665 763 q 478 847 581 847 l 394 847 l 394 515 l 417 515 q 514 537 489 515 q 540 617 539 558 q 649 632 582 632 q 643 472 643 543 q 649 308 643 392 q 543 321 581 308 q 511 401 538 381 q 417 422 485 422 l 394 422 l 394 247 q 404 152 394 185 q 438 106 414 119 q 507 93 461 93 l 526 93 q 658 135 614 93 q 731 279 701 178 q 803 262 771 274 q 851 235 835 250 q 808 -3 821 139 l 733 -1 z "},"Ǝ":{"ha":882,"x_min":31,"x_max":831,"o":"m 728 242 q 735 149 728 179 q 763 106 743 118 q 821 92 782 94 q 831 -4 831 50 q 419 0 635 0 q 74 -3 224 0 q 31 235 58 150 q 78 262 46 250 q 151 279 111 274 q 224 135 181 178 q 354 93 267 93 l 375 93 q 444 106 419 93 q 478 153 468 119 q 488 247 488 186 l 488 422 l 464 422 q 369 401 396 422 q 338 321 343 381 q 233 308 300 308 q 238 472 238 371 q 233 632 238 565 q 340 617 300 632 q 367 537 342 558 q 464 515 393 515 l 488 515 l 488 847 l 404 847 q 258 805 301 847 q 203 681 215 763 q 82 703 133 681 q 102 817 94 747 q 111 943 110 886 q 490 939 215 939 q 831 943 714 939 q 821 847 831 882 q 762 831 781 842 q 735 791 743 819 q 728 703 728 763 l 728 242 z "},"Ẽ":{"ha":882,"x_min":51,"x_max":851,"o":"m 731 279 q 803 262 771 274 q 851 235 835 250 q 808 -3 821 139 q 463 0 658 0 q 51 -4 247 0 q 61 92 51 58 q 119 106 100 94 q 147 149 139 118 q 154 242 154 179 l 154 703 q 147 791 154 763 q 119 831 139 819 q 60 847 100 842 q 51 943 51 878 q 392 939 168 939 q 769 943 665 939 q 780 815 772 883 q 799 703 788 747 q 678 681 750 681 q 623 805 665 763 q 478 847 581 847 l 394 847 l 394 515 l 417 515 q 514 537 489 515 q 540 617 539 558 q 649 632 582 632 q 643 472 643 543 q 649 308 643 392 q 543 321 581 308 q 511 401 538 381 q 417 422 485 422 l 394 422 l 394 247 q 404 152 394 185 q 438 106 414 119 q 507 93 461 93 l 526 93 q 658 135 614 93 q 731 279 701 178 m 499 1025 q 442 1034 465 1025 q 386 1060 418 1043 q 344 1082 363 1075 q 304 1089 326 1089 q 199 1029 247 1089 q 156 1118 157 1067 q 244 1195 193 1171 q 344 1219 296 1219 q 399 1211 375 1219 q 458 1186 424 1203 q 503 1167 485 1174 q 542 1160 522 1160 q 624 1210 589 1160 q 700 1169 672 1201 q 614 1063 665 1100 q 499 1025 563 1025 z "},"Ʒ":{"ha":844,"x_min":65,"x_max":793,"o":"m 529 514 q 724 438 656 500 q 793 269 793 375 q 685 62 793 136 q 375 -12 578 -12 q 206 3 282 -12 q 76 47 129 19 q 78 106 78 64 q 65 282 78 201 q 189 300 118 300 q 247 140 204 188 q 369 92 290 92 q 499 135 451 92 q 547 254 547 178 q 481 385 547 342 q 292 429 415 429 q 273 479 282 447 q 264 532 264 511 q 380 677 321 594 q 489 847 439 760 l 367 847 q 286 831 317 847 q 235 774 256 815 q 197 651 215 732 q 67 669 107 651 q 92 801 83 728 q 100 942 100 875 q 428 939 165 939 q 736 942 644 939 q 761 857 760 903 q 529 514 665 679 z "},"Ǯ":{"ha":844,"x_min":65,"x_max":793,"o":"m 529 514 q 724 438 656 500 q 793 269 793 375 q 685 62 793 136 q 375 -12 578 -12 q 206 3 282 -12 q 76 47 129 19 q 78 106 78 64 q 65 282 78 201 q 189 300 118 300 q 247 140 204 188 q 369 92 290 92 q 499 135 451 92 q 547 254 547 178 q 481 385 547 342 q 292 429 415 429 q 273 479 282 447 q 264 532 264 511 q 380 677 321 594 q 489 847 439 760 l 367 847 q 286 831 317 847 q 235 774 256 815 q 197 651 215 732 q 67 669 107 651 q 92 801 83 728 q 100 942 100 875 q 428 939 165 939 q 736 942 644 939 q 761 857 760 903 q 529 514 665 679 m 338 1010 q 143 1169 272 1079 q 253 1236 183 1222 q 415 1153 315 1196 q 481 1183 424 1157 q 575 1233 539 1210 q 622 1210 601 1229 q 650 1167 642 1190 q 443 1022 522 1092 q 338 1010 407 1010 z "},"F":{"ha":838,"x_min":51,"x_max":808,"o":"m 394 847 l 394 472 l 450 472 q 547 494 522 472 q 574 574 572 515 q 682 589 614 589 q 676 429 676 500 q 682 265 676 349 q 576 278 614 265 q 544 358 571 338 q 450 379 518 379 l 394 379 l 394 256 q 425 132 394 167 q 538 92 456 97 q 549 -4 549 61 q 308 0 474 0 q 51 -4 138 0 q 60 92 51 64 q 119 106 99 94 q 147 148 139 118 q 154 239 154 178 l 154 703 q 147 791 154 763 q 122 831 140 819 q 63 847 103 842 q 51 943 51 888 q 390 939 169 939 q 779 943 675 939 q 788 817 781 886 q 808 703 796 747 q 688 681 757 681 q 632 805 675 763 q 486 847 589 847 l 394 847 z "},"G":{"ha":982,"x_min":49,"x_max":933,"o":"m 532 -12 q 274 46 383 -12 q 107 215 165 104 q 49 478 49 325 q 110 733 49 626 q 283 896 172 840 q 542 951 394 951 q 717 931 631 951 q 869 881 804 911 q 854 665 854 793 q 803 651 831 654 q 733 649 775 649 q 679 809 728 763 q 540 856 631 856 q 358 756 418 856 q 297 511 297 657 q 328 292 297 389 q 415 142 358 196 q 551 88 472 88 q 624 97 596 88 q 658 128 647 107 q 669 199 669 149 l 669 251 q 662 322 669 300 q 633 353 654 344 q 565 364 611 363 q 556 460 556 401 q 743 456 631 456 q 933 458 831 456 q 925 364 933 400 q 888 355 899 363 q 873 328 876 347 q 869 268 869 310 l 869 228 q 874 152 869 179 q 892 94 878 125 q 731 17 825 46 q 532 -12 638 -12 z "},"Ğ":{"ha":982,"x_min":49,"x_max":933,"o":"m 532 -12 q 274 46 383 -12 q 107 215 165 104 q 49 478 49 325 q 110 733 49 626 q 283 896 172 840 q 542 951 394 951 q 717 931 631 951 q 869 881 804 911 q 854 665 854 793 q 803 651 831 654 q 733 649 775 649 q 679 809 728 763 q 540 856 631 856 q 358 756 418 856 q 297 511 297 657 q 328 292 297 389 q 415 142 358 196 q 551 88 472 88 q 624 97 596 88 q 658 128 647 107 q 669 199 669 149 l 669 251 q 662 322 669 300 q 633 353 654 344 q 565 364 611 363 q 556 460 556 401 q 743 456 631 456 q 933 458 831 456 q 925 364 933 400 q 888 355 899 363 q 873 328 876 347 q 869 268 869 310 l 869 228 q 874 152 869 179 q 892 94 878 125 q 731 17 825 46 q 532 -12 638 -12 m 775 1206 q 713 1055 775 1106 q 532 1004 651 1004 q 353 1053 414 1004 q 293 1200 293 1103 q 383 1217 336 1217 q 417 1214 394 1217 q 457 1155 422 1175 q 549 1135 492 1135 q 635 1155 603 1135 q 668 1214 667 1175 q 707 1217 681 1217 q 775 1206 742 1217 z "},"Ǧ":{"ha":982,"x_min":49,"x_max":933,"o":"m 532 -12 q 274 46 383 -12 q 107 215 165 104 q 49 478 49 325 q 110 733 49 626 q 283 896 172 840 q 542 951 394 951 q 717 931 631 951 q 869 881 804 911 q 854 665 854 793 q 803 651 831 654 q 733 649 775 649 q 679 809 728 763 q 540 856 631 856 q 358 756 418 856 q 297 511 297 657 q 328 292 297 389 q 415 142 358 196 q 551 88 472 88 q 624 97 596 88 q 658 128 647 107 q 669 199 669 149 l 669 251 q 662 322 669 300 q 633 353 654 344 q 565 364 611 363 q 556 460 556 401 q 743 456 631 456 q 933 458 831 456 q 925 364 933 400 q 888 355 899 363 q 873 328 876 347 q 869 268 869 310 l 869 228 q 874 152 869 179 q 892 94 878 125 q 731 17 825 46 q 532 -12 638 -12 m 458 1010 q 264 1169 393 1079 q 374 1236 304 1222 q 536 1153 436 1196 q 602 1183 544 1157 q 696 1233 660 1210 q 742 1210 722 1229 q 771 1167 763 1190 q 564 1022 643 1092 q 458 1010 528 1010 z "},"Ĝ":{"ha":982,"x_min":49,"x_max":933,"o":"m 532 -12 q 274 46 383 -12 q 107 215 165 104 q 49 478 49 325 q 110 733 49 626 q 283 896 172 840 q 542 951 394 951 q 717 931 631 951 q 869 881 804 911 q 854 665 854 793 q 803 651 831 654 q 733 649 775 649 q 679 809 728 763 q 540 856 631 856 q 358 756 418 856 q 297 511 297 657 q 328 292 297 389 q 415 142 358 196 q 551 88 472 88 q 624 97 596 88 q 658 128 647 107 q 669 199 669 149 l 669 251 q 662 322 669 300 q 633 353 654 344 q 565 364 611 363 q 556 460 556 401 q 743 456 631 456 q 933 458 831 456 q 925 364 933 400 q 888 355 899 363 q 873 328 876 347 q 869 268 869 310 l 869 228 q 874 152 869 179 q 892 94 878 125 q 731 17 825 46 q 532 -12 638 -12 m 354 1011 q 306 1036 326 1017 q 279 1078 286 1056 q 485 1224 419 1164 q 590 1236 528 1236 q 786 1075 667 1157 q 739 1033 764 1049 q 676 1010 714 1017 q 513 1093 601 1056 l 465 1071 q 414 1044 451 1064 q 354 1011 376 1025 z "},"Ģ":{"ha":982,"x_min":49,"x_max":933,"o":"m 532 -12 q 274 46 383 -12 q 107 215 165 104 q 49 478 49 325 q 110 733 49 626 q 283 896 172 840 q 542 951 394 951 q 717 931 631 951 q 869 881 804 911 q 854 665 854 793 q 803 651 831 654 q 733 649 775 649 q 679 809 728 763 q 540 856 631 856 q 358 756 418 856 q 297 511 297 657 q 328 292 297 389 q 415 142 358 196 q 551 88 472 88 q 624 97 596 88 q 658 128 647 107 q 669 199 669 149 l 669 251 q 662 322 669 300 q 633 353 654 344 q 565 364 611 363 q 556 460 556 401 q 743 456 631 456 q 933 458 831 456 q 925 364 933 400 q 888 355 899 363 q 873 328 876 347 q 869 268 869 310 l 869 228 q 874 152 869 179 q 892 94 878 125 q 731 17 825 46 q 532 -12 638 -12 m 588 -54 q 640 -90 624 -64 q 656 -164 656 -115 q 501 -425 656 -318 q 450 -417 474 -426 q 413 -390 426 -408 q 472 -331 451 -361 q 492 -274 492 -300 q 472 -235 492 -249 q 410 -217 451 -222 q 429 -96 406 -150 q 588 -54 529 -92 z "},"Ġ":{"ha":982,"x_min":49,"x_max":933,"o":"m 532 -12 q 274 46 383 -12 q 107 215 165 104 q 49 478 49 325 q 110 733 49 626 q 283 896 172 840 q 542 951 394 951 q 717 931 631 951 q 869 881 804 911 q 854 665 854 793 q 803 651 831 654 q 733 649 775 649 q 679 809 728 763 q 540 856 631 856 q 358 756 418 856 q 297 511 297 657 q 328 292 297 389 q 415 142 358 196 q 551 88 472 88 q 624 97 596 88 q 658 128 647 107 q 669 199 669 149 l 669 251 q 662 322 669 300 q 633 353 654 344 q 565 364 611 363 q 556 460 556 401 q 743 456 631 456 q 933 458 831 456 q 925 364 933 400 q 888 355 899 363 q 873 328 876 347 q 869 268 869 310 l 869 228 q 874 152 869 179 q 892 94 878 125 q 731 17 825 46 q 532 -12 638 -12 z "},"Ḡ":{"ha":982,"x_min":49,"x_max":933,"o":"m 532 -12 q 274 46 383 -12 q 107 215 165 104 q 49 478 49 325 q 110 733 49 626 q 283 896 172 840 q 542 951 394 951 q 717 931 631 951 q 869 881 804 911 q 854 665 854 793 q 803 651 831 654 q 733 649 775 649 q 679 809 728 763 q 540 856 631 856 q 358 756 418 856 q 297 511 297 657 q 328 292 297 389 q 415 142 358 196 q 551 88 472 88 q 624 97 596 88 q 658 128 647 107 q 669 199 669 149 l 669 251 q 662 322 669 300 q 633 353 654 344 q 565 364 611 363 q 556 460 556 401 q 743 456 631 456 q 933 458 831 456 q 925 364 933 400 q 888 355 899 363 q 873 328 876 347 q 869 268 869 310 l 869 228 q 874 152 869 179 q 892 94 878 125 q 731 17 825 46 q 532 -12 638 -12 m 801 1142 q 789 1060 801 1104 q 265 1044 494 1060 q 278 1142 265 1108 l 801 1142 z "},"Ǥ":{"ha":982,"x_min":49,"x_max":974,"o":"m 974 288 q 960 178 974 221 q 871 179 922 179 q 892 94 875 135 q 731 17 825 46 q 532 -12 638 -12 q 274 46 383 -12 q 107 215 165 104 q 49 478 49 325 q 110 733 49 626 q 283 896 172 840 q 542 951 394 951 q 717 931 631 951 q 869 881 804 911 q 854 665 854 793 q 803 651 831 654 q 733 649 775 649 q 679 809 728 763 q 540 856 631 856 q 358 756 418 856 q 297 511 297 657 q 328 292 297 389 q 415 142 358 196 q 551 88 472 88 q 624 97 596 88 q 656 122 644 106 q 669 178 667 139 q 561 176 636 179 l 501 175 q 515 288 501 243 l 668 288 q 643 347 664 332 q 565 364 622 361 q 556 460 556 401 q 743 456 631 456 q 933 458 831 456 q 925 364 933 400 q 881 348 890 363 q 869 288 871 333 l 974 288 z "},"Ȝ":{"ha":799,"x_min":53,"x_max":747,"o":"m 429 425 q 662 353 576 426 q 747 146 747 279 q 688 -51 747 36 q 524 -188 629 -139 q 290 -237 419 -237 q 152 -220 215 -237 q 53 -172 89 -203 q 92 -87 57 -122 q 158 -122 115 -108 q 249 -135 201 -135 q 381 -99 324 -135 q 469 1 438 -62 q 500 142 500 64 q 453 288 500 239 q 318 338 406 338 q 200 315 253 338 q 178 399 178 350 q 179 418 178 411 q 388 524 319 458 q 457 700 457 589 q 424 818 457 778 q 324 858 390 858 q 234 817 261 858 q 190 669 207 775 q 123 674 158 668 q 63 693 88 681 q 69 814 69 744 q 67 896 69 843 q 343 951 165 951 q 615 892 525 951 q 706 721 706 832 q 634 550 706 622 q 429 425 563 478 z "},"H":{"ha":1096,"x_min":51,"x_max":1046,"o":"m 943 239 q 951 148 943 178 q 978 106 958 118 q 1036 92 997 94 q 1046 -4 1046 53 q 839 0 978 0 q 600 -4 692 0 q 603 46 600 18 q 613 92 607 74 q 670 106 651 94 q 696 148 689 118 q 703 239 703 178 l 703 436 q 394 425 490 436 l 394 239 q 402 148 394 178 q 428 106 410 118 q 486 92 447 94 q 497 -4 497 56 q 289 0 429 0 q 51 -4 140 0 q 63 92 51 44 q 120 106 101 94 q 147 148 139 118 q 154 239 154 178 l 154 703 q 147 791 154 763 q 122 831 140 819 q 63 847 103 842 q 51 943 51 888 q 279 939 122 939 q 497 943 414 939 q 486 847 497 882 q 427 832 446 843 q 401 792 408 821 q 394 703 394 763 l 394 533 l 703 533 l 703 703 q 696 791 703 763 q 670 831 689 819 q 611 847 651 842 q 600 943 600 888 q 828 939 671 939 q 1046 943 963 939 q 1044 889 1046 910 q 1035 847 1042 868 q 976 832 994 843 q 950 792 957 821 q 943 703 943 763 l 943 239 z "},"Ħ":{"ha":1096,"x_min":51,"x_max":1046,"o":"m 943 239 q 951 148 943 178 q 978 106 958 118 q 1036 92 997 94 q 1046 -4 1046 53 q 839 0 978 0 q 600 -4 692 0 q 603 46 600 18 q 613 92 607 74 q 670 106 651 94 q 696 148 689 118 q 703 239 703 178 l 703 436 q 394 425 490 436 l 394 239 q 402 148 394 178 q 428 106 410 118 q 486 92 447 94 q 497 -4 497 56 q 289 0 429 0 q 51 -4 140 0 q 63 92 51 44 q 120 106 101 94 q 147 148 139 118 q 154 239 154 178 l 154 618 l 57 617 q 76 717 57 674 l 154 717 q 146 795 153 769 q 120 831 139 821 q 63 847 101 842 q 51 943 51 888 q 279 939 122 939 q 497 943 414 939 q 486 847 497 882 q 428 833 447 843 q 403 796 410 822 q 394 717 396 769 l 703 717 q 694 795 701 769 q 669 831 688 821 q 611 847 650 842 q 600 943 600 888 q 828 939 671 939 q 1046 943 963 939 q 1044 889 1046 910 q 1035 847 1042 868 q 977 833 996 843 q 951 796 958 822 q 943 717 944 769 l 1039 717 q 1021 622 1039 669 l 943 622 l 943 239 m 703 533 l 703 622 l 394 621 l 394 533 l 703 533 z "},"Ḫ":{"ha":1096,"x_min":51,"x_max":1046,"o":"m 943 239 q 951 148 943 178 q 978 106 958 118 q 1036 92 997 94 q 1046 -4 1046 53 q 839 0 978 0 q 600 -4 692 0 q 603 46 600 18 q 613 92 607 74 q 670 106 651 94 q 696 148 689 118 q 703 239 703 178 l 703 436 q 394 425 490 436 l 394 239 q 402 148 394 178 q 428 106 410 118 q 486 92 447 94 q 497 -4 497 56 q 289 0 429 0 q 51 -4 140 0 q 63 92 51 44 q 120 106 101 94 q 147 148 139 118 q 154 239 154 178 l 154 703 q 147 791 154 763 q 122 831 140 819 q 63 847 103 842 q 51 943 51 888 q 279 939 122 939 q 497 943 414 939 q 486 847 497 882 q 427 832 446 843 q 401 792 408 821 q 394 703 394 763 l 394 533 l 703 533 l 703 703 q 696 791 703 763 q 670 831 689 819 q 611 847 651 842 q 600 943 600 888 q 828 939 671 939 q 1046 943 963 939 q 1044 889 1046 910 q 1035 847 1042 868 q 976 832 994 843 q 950 792 957 821 q 943 703 943 763 l 943 239 z "},"Ȟ":{"ha":1096,"x_min":51,"x_max":1046,"o":"m 943 239 q 951 148 943 178 q 978 106 958 118 q 1036 92 997 94 q 1046 -4 1046 53 q 839 0 978 0 q 600 -4 692 0 q 603 46 600 18 q 613 92 607 74 q 670 106 651 94 q 696 148 689 118 q 703 239 703 178 l 703 436 q 394 425 490 436 l 394 239 q 402 148 394 178 q 428 106 410 118 q 486 92 447 94 q 497 -4 497 56 q 289 0 429 0 q 51 -4 140 0 q 63 92 51 44 q 120 106 101 94 q 147 148 139 118 q 154 239 154 178 l 154 703 q 147 791 154 763 q 122 831 140 819 q 63 847 103 842 q 51 943 51 888 q 279 939 122 939 q 497 943 414 939 q 486 847 497 882 q 427 832 446 843 q 401 792 408 821 q 394 703 394 763 l 394 533 l 703 533 l 703 703 q 696 791 703 763 q 670 831 689 819 q 611 847 651 842 q 600 943 600 888 q 828 939 671 939 q 1046 943 963 939 q 1044 889 1046 910 q 1035 847 1042 868 q 976 832 994 843 q 950 792 957 821 q 943 703 943 763 l 943 239 m 472 1010 q 278 1169 407 1079 q 388 1236 318 1222 q 550 1153 450 1196 q 616 1183 558 1157 q 710 1233 674 1210 q 756 1210 736 1229 q 785 1167 776 1190 q 578 1022 657 1092 q 472 1010 542 1010 z "},"Ĥ":{"ha":1096,"x_min":51,"x_max":1046,"o":"m 943 239 q 951 148 943 178 q 978 106 958 118 q 1036 92 997 94 q 1046 -4 1046 53 q 839 0 978 0 q 600 -4 692 0 q 603 46 600 18 q 613 92 607 74 q 670 106 651 94 q 696 148 689 118 q 703 239 703 178 l 703 436 q 394 425 490 436 l 394 239 q 402 148 394 178 q 428 106 410 118 q 486 92 447 94 q 497 -4 497 56 q 289 0 429 0 q 51 -4 140 0 q 63 92 51 44 q 120 106 101 94 q 147 148 139 118 q 154 239 154 178 l 154 703 q 147 791 154 763 q 122 831 140 819 q 63 847 103 842 q 51 943 51 888 q 279 939 122 939 q 497 943 414 939 q 486 847 497 882 q 427 832 446 843 q 401 792 408 821 q 394 703 394 763 l 394 533 l 703 533 l 703 703 q 696 791 703 763 q 670 831 689 819 q 611 847 651 842 q 600 943 600 888 q 828 939 671 939 q 1046 943 963 939 q 1044 889 1046 910 q 1035 847 1042 868 q 976 832 994 843 q 950 792 957 821 q 943 703 943 763 l 943 239 m 369 1011 q 322 1036 342 1017 q 294 1078 301 1056 q 500 1224 435 1164 q 606 1236 543 1236 q 801 1075 682 1157 q 754 1033 779 1049 q 692 1010 729 1017 q 528 1093 617 1056 l 481 1071 q 429 1044 467 1064 q 369 1011 392 1025 z "},"Ḥ":{"ha":1096,"x_min":51,"x_max":1046,"o":"m 943 239 q 951 148 943 178 q 978 106 958 118 q 1036 92 997 94 q 1046 -4 1046 53 q 839 0 978 0 q 600 -4 692 0 q 603 46 600 18 q 613 92 607 74 q 670 106 651 94 q 696 148 689 118 q 703 239 703 178 l 703 436 q 394 425 490 436 l 394 239 q 402 148 394 178 q 428 106 410 118 q 486 92 447 94 q 497 -4 497 56 q 289 0 429 0 q 51 -4 140 0 q 63 92 51 44 q 120 106 101 94 q 147 148 139 118 q 154 239 154 178 l 154 703 q 147 791 154 763 q 122 831 140 819 q 63 847 103 842 q 51 943 51 888 q 279 939 122 939 q 497 943 414 939 q 486 847 497 882 q 427 832 446 843 q 401 792 408 821 q 394 703 394 763 l 394 533 l 703 533 l 703 703 q 696 791 703 763 q 670 831 689 819 q 611 847 651 842 q 600 943 600 888 q 828 939 671 939 q 1046 943 963 939 q 1044 889 1046 910 q 1035 847 1042 868 q 976 832 994 843 q 950 792 957 821 q 943 703 943 763 l 943 239 m 540 -318 q 448 -290 482 -318 q 414 -214 414 -261 q 451 -130 414 -160 q 547 -100 488 -100 q 646 -129 611 -100 q 681 -212 681 -158 q 642 -288 681 -258 q 540 -318 604 -318 z "},"I":{"ha":547,"x_min":51,"x_max":497,"o":"m 154 703 q 147 791 154 763 q 122 831 140 819 q 63 847 103 842 q 51 943 51 888 q 279 939 122 939 q 497 943 414 939 q 486 847 497 882 q 427 832 446 843 q 401 792 408 821 q 394 703 394 763 l 394 239 q 402 148 394 178 q 428 106 410 118 q 486 92 447 94 q 497 -4 497 56 q 289 0 429 0 q 51 -4 140 0 q 63 92 51 44 q 120 106 101 94 q 147 148 139 118 q 154 239 154 178 l 154 703 z "},"Ĳ":{"ha":1011,"x_min":51,"x_max":967,"o":"m 154 703 q 147 791 154 763 q 122 831 140 819 q 63 847 103 842 q 51 943 51 888 q 279 939 122 939 q 497 943 414 939 q 486 847 497 882 q 427 832 446 843 q 401 792 408 821 q 394 703 394 763 l 394 239 q 402 148 394 178 q 428 106 410 118 q 486 92 447 94 q 497 -4 497 56 q 289 0 429 0 q 51 -4 140 0 q 63 92 51 44 q 120 106 101 94 q 147 148 139 118 q 154 239 154 178 l 154 703 m 864 183 q 838 -50 864 43 q 736 -216 811 -143 q 518 -346 661 -289 q 474 -260 481 -318 q 560 -180 528 -221 q 608 -78 592 -139 q 624 76 624 -17 l 624 700 q 616 792 624 763 q 590 832 608 821 q 532 847 572 843 q 521 943 521 881 q 743 939 574 939 q 967 943 911 939 q 956 847 967 882 q 895 830 914 843 q 870 788 876 817 q 864 700 864 760 l 864 183 z "},"Í":{"ha":547,"x_min":51,"x_max":497,"o":"m 154 703 q 147 791 154 763 q 122 831 140 819 q 63 847 103 842 q 51 943 51 888 q 279 939 122 939 q 497 943 414 939 q 486 847 497 882 q 427 832 446 843 q 401 792 408 821 q 394 703 394 763 l 394 239 q 402 148 394 178 q 428 106 410 118 q 486 92 447 94 q 497 -4 497 56 q 289 0 429 0 q 51 -4 140 0 q 63 92 51 44 q 120 106 101 94 q 147 148 139 118 q 154 239 154 178 l 154 703 m 306 1019 q 186 1040 238 1019 q 269 1211 238 1129 q 383 1224 324 1224 q 471 1214 436 1224 q 306 1019 392 1132 z "},"Ĭ":{"ha":547,"x_min":49,"x_max":497,"o":"m 271 989 q 49 1197 49 989 q 122 1213 82 1213 q 150 1210 131 1213 q 286 1118 169 1118 q 376 1142 343 1118 q 411 1210 408 1165 q 444 1213 433 1213 q 497 1203 478 1213 q 271 989 497 989 m 154 703 q 147 791 154 763 q 122 831 140 819 q 63 847 103 842 q 51 943 51 888 q 279 939 122 939 q 497 943 414 939 q 486 847 497 882 q 427 832 446 843 q 401 792 408 821 q 394 703 394 763 l 394 239 q 402 148 394 178 q 428 106 410 118 q 486 92 447 94 q 497 -4 497 56 q 289 0 429 0 q 51 -4 140 0 q 63 92 51 44 q 120 106 101 94 q 147 148 139 118 q 154 239 154 178 l 154 703 z "},"Ǐ":{"ha":547,"x_min":49,"x_max":499,"o":"m 217 985 q 49 1164 161 1051 q 103 1202 69 1186 q 168 1222 136 1218 q 301 1136 214 1188 q 413 1222 369 1178 q 499 1157 472 1206 q 399 1069 453 1119 q 324 1001 349 1022 q 217 985 271 985 m 154 703 q 147 791 154 763 q 122 831 140 819 q 63 847 103 842 q 51 943 51 888 q 279 939 122 939 q 497 943 414 939 q 486 847 497 882 q 427 832 446 843 q 401 792 408 821 q 394 703 394 763 l 394 239 q 402 148 394 178 q 428 106 410 118 q 486 92 447 94 q 497 -4 497 56 q 289 0 429 0 q 51 -4 140 0 q 63 92 51 44 q 120 106 101 94 q 147 148 139 118 q 154 239 154 178 l 154 703 z "},"Î":{"ha":547,"x_min":49,"x_max":499,"o":"m 135 985 q 49 1050 74 1001 l 144 1135 q 225 1207 221 1203 q 331 1222 286 1222 q 499 1043 396 1146 q 444 1003 478 1019 q 379 985 411 988 q 246 1069 329 1024 q 135 985 185 1035 m 154 703 q 147 791 154 763 q 122 831 140 819 q 63 847 103 842 q 51 943 51 888 q 279 939 122 939 q 497 943 414 939 q 486 847 497 882 q 427 832 446 843 q 401 792 408 821 q 394 703 394 763 l 394 239 q 402 148 394 178 q 428 106 410 118 q 486 92 447 94 q 497 -4 497 56 q 289 0 429 0 q 51 -4 140 0 q 63 92 51 44 q 120 106 101 94 q 147 148 139 118 q 154 239 154 178 l 154 703 z "},"Ȉ":{"ha":547,"x_min":-19,"x_max":497,"o":"m 154 703 q 147 791 154 763 q 122 831 140 819 q 63 847 103 842 q 51 943 51 888 q 279 939 122 939 q 497 943 414 939 q 486 847 497 882 q 427 832 446 843 q 401 792 408 821 q 394 703 394 763 l 394 239 q 402 148 394 178 q 428 106 410 118 q 486 92 447 94 q 497 -4 497 56 q 289 0 429 0 q 51 -4 140 0 q 63 92 51 44 q 120 106 101 94 q 147 148 139 118 q 154 239 154 178 l 154 703 m 126 996 q -19 1167 31 1114 q 62 1190 14 1182 q 156 1197 110 1199 q 195 1106 171 1156 q 246 1015 219 1056 q 126 996 190 996 m 372 996 q 242 1171 293 1108 q 316 1192 272 1185 q 403 1197 360 1199 q 442 1106 418 1156 q 492 1015 467 1056 q 372 996 438 996 z "},"Ï":{"ha":547,"x_min":14,"x_max":532,"o":"m 133 996 q 47 1024 81 996 q 14 1092 14 1051 q 42 1168 14 1138 q 129 1199 71 1199 q 218 1169 189 1199 q 247 1093 247 1140 q 215 1024 247 1053 q 133 996 182 996 m 419 996 q 328 1025 360 996 q 296 1103 296 1054 q 328 1173 296 1147 q 414 1199 361 1199 q 498 1171 464 1199 q 532 1103 532 1143 q 505 1026 532 1057 q 419 996 478 996 m 154 703 q 147 791 154 763 q 122 831 140 819 q 63 847 103 842 q 51 943 51 888 q 279 939 122 939 q 497 943 414 939 q 486 847 497 882 q 427 832 446 843 q 401 792 408 821 q 394 703 394 763 l 394 239 q 402 148 394 178 q 428 106 410 118 q 486 92 447 94 q 497 -4 497 56 q 289 0 429 0 q 51 -4 140 0 q 63 92 51 44 q 120 106 101 94 q 147 148 139 118 q 154 239 154 178 l 154 703 z "},"Ḯ":{"ha":547,"x_min":14,"x_max":532,"o":"m 306 1240 q 186 1261 246 1240 q 269 1432 233 1339 q 383 1444 324 1444 q 471 1436 433 1444 q 306 1240 381 1338 m 133 996 q 47 1024 81 996 q 14 1092 14 1051 q 42 1168 14 1138 q 129 1199 71 1199 q 218 1169 189 1199 q 247 1093 247 1140 q 215 1024 247 1053 q 133 996 182 996 m 419 996 q 328 1025 360 996 q 296 1103 296 1054 q 328 1173 296 1147 q 414 1199 361 1199 q 498 1171 464 1199 q 532 1103 532 1143 q 505 1026 532 1057 q 419 996 478 996 m 154 703 q 147 791 154 763 q 122 831 140 819 q 63 847 103 842 q 51 943 51 888 q 279 939 122 939 q 497 943 414 939 q 486 847 497 882 q 427 832 446 843 q 401 792 408 821 q 394 703 394 763 l 394 239 q 402 148 394 178 q 428 106 410 118 q 486 92 447 94 q 497 -4 497 56 q 289 0 429 0 q 51 -4 140 0 q 63 92 51 44 q 120 106 101 94 q 147 148 139 118 q 154 239 154 178 l 154 703 z "},"İ":{"ha":547,"x_min":51,"x_max":497,"o":"m 154 703 q 147 791 154 763 q 122 831 140 819 q 63 847 103 842 q 51 943 51 888 q 279 939 122 939 q 497 943 414 939 q 486 847 497 882 q 427 832 446 843 q 401 792 408 821 q 394 703 394 763 l 394 239 q 402 148 394 178 q 428 106 410 118 q 486 92 447 94 q 497 -4 497 56 q 289 0 429 0 q 51 -4 140 0 q 63 92 51 44 q 120 106 101 94 q 147 148 139 118 q 154 239 154 178 l 154 703 z "},"Ị":{"ha":547,"x_min":51,"x_max":497,"o":"m 154 703 q 147 791 154 763 q 122 831 140 819 q 63 847 103 842 q 51 943 51 888 q 279 939 122 939 q 497 943 414 939 q 486 847 497 882 q 427 832 446 843 q 401 792 408 821 q 394 703 394 763 l 394 239 q 402 148 394 178 q 428 106 410 118 q 486 92 447 94 q 497 -4 497 56 q 289 0 429 0 q 51 -4 140 0 q 63 92 51 44 q 120 106 101 94 q 147 148 139 118 q 154 239 154 178 l 154 703 m 267 -318 q 174 -290 208 -318 q 140 -214 140 -261 q 177 -130 140 -160 q 274 -100 214 -100 q 372 -129 338 -100 q 407 -212 407 -158 q 369 -288 407 -258 q 267 -318 331 -318 z "},"Ì":{"ha":547,"x_min":51,"x_max":497,"o":"m 154 703 q 147 791 154 763 q 122 831 140 819 q 63 847 103 842 q 51 943 51 888 q 279 939 122 939 q 497 943 414 939 q 486 847 497 882 q 427 832 446 843 q 401 792 408 821 q 394 703 394 763 l 394 239 q 402 148 394 178 q 428 106 410 118 q 486 92 447 94 q 497 -4 497 56 q 289 0 429 0 q 51 -4 140 0 q 63 92 51 44 q 120 106 101 94 q 147 148 139 118 q 154 239 154 178 l 154 703 m 233 1019 q 88 1190 164 1115 q 170 1215 121 1207 q 268 1221 219 1222 q 310 1129 285 1179 q 361 1040 335 1079 q 233 1019 311 1019 z "},"Ỉ":{"ha":547,"x_min":51,"x_max":497,"o":"m 154 703 q 147 791 154 763 q 122 831 140 819 q 63 847 103 842 q 51 943 51 888 q 279 939 122 939 q 497 943 414 939 q 486 847 497 882 q 427 832 446 843 q 401 792 408 821 q 394 703 394 763 l 394 239 q 402 148 394 178 q 428 106 410 118 q 486 92 447 94 q 497 -4 497 56 q 289 0 429 0 q 51 -4 140 0 q 63 92 51 44 q 120 106 101 94 q 147 148 139 118 q 154 239 154 178 l 154 703 m 236 1000 q 226 1039 226 1019 q 238 1078 226 1063 q 268 1110 249 1094 q 292 1135 285 1125 q 300 1160 300 1144 q 291 1183 300 1175 q 268 1192 282 1192 q 233 1172 246 1192 q 213 1099 219 1151 q 125 1117 160 1099 q 129 1168 129 1144 q 125 1210 129 1192 q 283 1253 188 1253 q 421 1163 421 1253 q 405 1110 421 1129 q 360 1069 389 1090 q 333 1049 342 1058 q 325 1029 325 1040 q 329 1008 325 1019 q 267 997 300 997 q 236 1000 256 997 z "},"Ȋ":{"ha":547,"x_min":47,"x_max":497,"o":"m 154 703 q 147 791 154 763 q 122 831 140 819 q 63 847 103 842 q 51 943 51 888 q 279 939 122 939 q 497 943 414 939 q 486 847 497 882 q 427 832 446 843 q 401 792 408 821 q 394 703 394 763 l 394 239 q 402 148 394 178 q 428 106 410 118 q 486 92 447 94 q 497 -4 497 56 q 289 0 429 0 q 51 -4 140 0 q 63 92 51 44 q 120 106 101 94 q 147 148 139 118 q 154 239 154 178 l 154 703 m 274 1213 q 497 1004 497 1213 q 424 989 464 989 q 394 992 414 989 q 352 1060 386 1036 q 260 1083 318 1083 q 169 1060 203 1083 q 133 992 136 1036 q 100 989 122 989 q 47 999 67 989 q 103 1158 47 1104 q 274 1213 160 1213 z "},"Ī":{"ha":547,"x_min":36,"x_max":510,"o":"m 36 1039 q 51 1142 36 1110 l 510 1142 q 496 1054 510 1097 q 36 1039 282 1054 m 154 703 q 147 791 154 763 q 122 831 140 819 q 63 847 103 842 q 51 943 51 888 q 279 939 122 939 q 497 943 414 939 q 486 847 497 882 q 427 832 446 843 q 401 792 408 821 q 394 703 394 763 l 394 239 q 402 148 394 178 q 428 106 410 118 q 486 92 447 94 q 497 -4 497 56 q 289 0 429 0 q 51 -4 140 0 q 63 92 51 44 q 120 106 101 94 q 147 148 139 118 q 154 239 154 178 l 154 703 z "},"Į":{"ha":547,"x_min":51,"x_max":497,"o":"m 381 0 q 299 -51 329 -19 q 268 -121 268 -83 q 369 -189 268 -189 q 419 -183 399 -189 q 435 -221 429 -194 q 442 -271 442 -247 l 440 -286 q 275 -344 340 -304 q 244 -346 263 -346 q 167 -330 207 -346 q 99 -279 126 -314 q 72 -192 72 -244 q 238 0 72 -67 q 51 -4 122 0 q 63 92 51 44 q 120 106 101 94 q 147 148 139 118 q 154 239 154 178 l 154 703 q 147 791 154 763 q 122 831 140 819 q 63 847 103 842 q 51 943 51 888 q 279 939 122 939 q 497 943 414 939 q 486 847 497 882 q 427 832 446 843 q 401 792 408 821 q 394 703 394 763 l 394 239 q 402 148 394 178 q 428 106 410 118 q 486 92 447 94 q 497 -4 497 56 l 381 0 z "},"Ĩ":{"ha":547,"x_min":32,"x_max":514,"o":"m 344 1011 q 292 1019 313 1011 q 247 1040 272 1026 q 215 1058 229 1053 q 179 1064 200 1064 q 75 1014 128 1064 q 32 1085 38 1044 q 115 1181 72 1153 q 206 1210 157 1210 q 253 1202 235 1210 q 296 1181 272 1194 q 326 1163 313 1169 q 358 1157 340 1157 q 407 1169 383 1157 q 447 1204 431 1181 q 514 1142 496 1182 q 442 1043 483 1075 q 344 1011 401 1011 m 154 703 q 147 791 154 763 q 122 831 140 819 q 63 847 103 842 q 51 943 51 888 q 279 939 122 939 q 497 943 414 939 q 486 847 497 882 q 427 832 446 843 q 401 792 408 821 q 394 703 394 763 l 394 239 q 402 148 394 178 q 428 106 410 118 q 486 92 447 94 q 497 -4 497 56 q 289 0 429 0 q 51 -4 140 0 q 63 92 51 44 q 120 106 101 94 q 147 148 139 118 q 154 239 154 178 l 154 703 z "},"J":{"ha":524,"x_min":-14,"x_max":478,"o":"m 375 183 q 349 -50 375 43 q 247 -216 322 -143 q 29 -346 172 -289 q -14 -260 -10 -317 q 72 -180 40 -221 q 119 -78 103 -139 q 135 76 135 -17 l 135 700 q 127 792 135 763 q 101 832 119 821 q 43 847 83 843 q 32 943 32 881 q 254 939 86 939 q 478 943 422 939 q 467 847 478 882 q 406 830 425 843 q 381 788 388 817 q 375 700 375 760 l 375 183 z "},"Ĵ":{"ha":524,"x_min":-14,"x_max":481,"o":"m 115 985 q 29 1050 54 1001 q 140 1149 83 1093 l 206 1207 q 311 1222 267 1222 q 481 1043 381 1140 q 426 1003 460 1019 q 360 985 392 988 q 226 1069 310 1024 q 115 985 165 1035 m 375 183 q 349 -50 375 43 q 247 -216 322 -143 q 29 -346 172 -289 q -14 -260 -10 -317 q 72 -180 40 -221 q 119 -78 103 -139 q 135 76 135 -17 l 135 700 q 127 792 135 763 q 101 832 119 821 q 43 847 83 843 q 32 943 32 881 q 254 939 86 939 q 478 943 422 939 q 467 847 478 882 q 406 830 425 843 q 381 788 388 817 q 375 700 375 760 l 375 183 z "},"K":{"ha":1033,"x_min":51,"x_max":1015,"o":"m 826 232 q 915 129 874 160 q 1015 93 956 99 q 1001 0 1015 32 q 831 -3 932 0 q 683 -11 729 -6 q 551 217 626 101 q 394 426 476 332 l 394 239 q 402 148 394 178 q 428 106 410 118 q 486 92 447 94 q 497 -4 497 56 q 289 0 429 0 q 51 -4 140 0 q 63 92 51 44 q 120 106 101 94 q 147 148 139 118 q 154 239 154 178 l 154 703 q 147 791 154 763 q 122 831 140 819 q 63 847 103 842 q 51 943 51 888 q 279 939 122 939 q 497 943 414 939 q 486 847 497 882 q 427 832 446 843 q 401 792 408 821 q 394 703 394 763 l 394 514 l 600 722 q 663 818 663 785 q 624 847 663 844 q 613 943 613 885 q 765 939 663 939 q 961 943 910 939 q 957 892 961 921 q 947 847 953 863 q 850 819 896 844 q 751 739 804 793 l 583 563 q 826 232 704 419 z "},"Ǩ":{"ha":1033,"x_min":51,"x_max":1015,"o":"m 826 232 q 915 129 874 160 q 1015 93 956 99 q 1001 0 1015 32 q 831 -3 932 0 q 683 -11 729 -6 q 551 217 626 101 q 394 426 476 332 l 394 239 q 402 148 394 178 q 428 106 410 118 q 486 92 447 94 q 497 -4 497 56 q 289 0 429 0 q 51 -4 140 0 q 63 92 51 44 q 120 106 101 94 q 147 148 139 118 q 154 239 154 178 l 154 703 q 147 791 154 763 q 122 831 140 819 q 63 847 103 842 q 51 943 51 888 q 279 939 122 939 q 497 943 414 939 q 486 847 497 882 q 427 832 446 843 q 401 792 408 821 q 394 703 394 763 l 394 514 l 600 722 q 663 818 663 785 q 624 847 663 844 q 613 943 613 885 q 765 939 663 939 q 961 943 910 939 q 957 892 961 921 q 947 847 953 863 q 850 819 896 844 q 751 739 804 793 l 583 563 q 826 232 704 419 m 456 1010 q 261 1169 390 1079 q 371 1236 301 1222 q 533 1153 433 1196 q 599 1183 542 1157 q 693 1233 657 1210 q 740 1210 719 1229 q 768 1167 760 1190 q 561 1022 640 1092 q 456 1010 525 1010 z "},"Ķ":{"ha":1033,"x_min":51,"x_max":1015,"o":"m 826 232 q 915 129 874 160 q 1015 93 956 99 q 1001 0 1015 32 q 831 -3 932 0 q 683 -11 729 -6 q 551 217 626 101 q 394 426 476 332 l 394 239 q 402 148 394 178 q 428 106 410 118 q 486 92 447 94 q 497 -4 497 56 q 289 0 429 0 q 51 -4 140 0 q 63 92 51 44 q 120 106 101 94 q 147 148 139 118 q 154 239 154 178 l 154 703 q 147 791 154 763 q 122 831 140 819 q 63 847 103 842 q 51 943 51 888 q 279 939 122 939 q 497 943 414 939 q 486 847 497 882 q 427 832 446 843 q 401 792 408 821 q 394 703 394 763 l 394 514 l 600 722 q 663 818 663 785 q 624 847 663 844 q 613 943 613 885 q 765 939 663 939 q 961 943 910 939 q 957 892 961 921 q 947 847 953 863 q 850 819 896 844 q 751 739 804 793 l 583 563 q 826 232 704 419 m 569 -54 q 622 -90 606 -64 q 638 -164 638 -115 q 483 -425 638 -318 q 432 -417 456 -426 q 394 -390 408 -408 q 453 -331 433 -361 q 474 -274 474 -300 q 453 -235 474 -249 q 392 -217 433 -222 q 411 -96 388 -150 q 569 -54 511 -92 z "},"L":{"ha":861,"x_min":51,"x_max":844,"o":"m 526 93 q 651 135 607 93 q 724 279 694 178 q 795 262 763 274 q 844 235 828 250 q 801 -3 813 139 q 463 0 651 0 q 51 -4 247 0 q 61 92 51 58 q 119 106 100 94 q 147 149 139 118 q 154 242 154 179 l 154 703 q 147 790 154 763 q 120 830 139 818 q 60 847 101 842 q 51 943 51 885 q 274 939 169 939 q 497 943 414 939 q 495 886 497 908 q 486 847 493 864 q 427 832 446 843 q 401 792 408 821 q 394 701 394 763 l 394 247 q 404 152 394 185 q 438 106 414 119 q 507 93 461 93 l 526 93 z "},"Ǉ":{"ha":1385,"x_min":51,"x_max":1339,"o":"m 526 93 q 651 135 607 93 q 724 279 694 178 q 795 262 763 274 q 844 235 828 250 q 801 -3 813 139 q 463 0 651 0 q 51 -4 247 0 q 61 92 51 58 q 119 106 100 94 q 147 149 139 118 q 154 242 154 179 l 154 703 q 147 790 154 763 q 120 830 139 818 q 60 847 101 842 q 51 943 51 885 q 274 939 169 939 q 497 943 414 939 q 495 886 497 908 q 486 847 493 864 q 427 832 446 843 q 401 792 408 821 q 394 701 394 763 l 394 247 q 404 152 394 185 q 438 106 414 119 q 507 93 461 93 l 526 93 m 1236 183 q 1210 -50 1236 43 q 1108 -216 1183 -143 q 890 -346 1033 -289 q 847 -260 851 -317 q 933 -180 901 -221 q 980 -78 964 -139 q 996 76 996 -17 l 996 700 q 988 792 996 763 q 963 832 981 821 q 904 847 944 843 q 893 943 893 881 q 1115 939 947 939 q 1339 943 1283 939 q 1328 847 1339 882 q 1267 830 1286 843 q 1242 788 1249 817 q 1236 700 1236 760 l 1236 183 z "},"Ĺ":{"ha":861,"x_min":51,"x_max":844,"o":"m 526 93 q 651 135 607 93 q 724 279 694 178 q 795 262 763 274 q 844 235 828 250 q 801 -3 813 139 q 463 0 651 0 q 51 -4 247 0 q 61 92 51 58 q 119 106 100 94 q 147 149 139 118 q 154 242 154 179 l 154 703 q 147 790 154 763 q 120 830 139 818 q 60 847 101 842 q 51 943 51 885 q 274 939 169 939 q 497 943 414 939 q 495 886 497 908 q 486 847 493 864 q 427 832 446 843 q 401 792 408 821 q 394 701 394 763 l 394 247 q 404 152 394 185 q 438 106 414 119 q 507 93 461 93 l 526 93 m 306 1019 q 186 1040 238 1019 q 269 1211 238 1129 q 383 1224 324 1224 q 471 1214 436 1224 q 306 1019 392 1132 z "},"Ľ":{"ha":861,"x_min":51,"x_max":844,"o":"m 526 93 q 651 135 607 93 q 724 279 694 178 q 795 262 763 274 q 844 235 828 250 q 801 -3 813 139 q 463 0 651 0 q 51 -4 247 0 q 61 92 51 58 q 119 106 100 94 q 147 149 139 118 q 154 242 154 179 l 154 703 q 147 790 154 763 q 120 830 139 818 q 60 847 101 842 q 51 943 51 885 q 274 939 169 939 q 497 943 414 939 q 495 886 497 908 q 486 847 493 864 q 427 832 446 843 q 401 792 408 821 q 394 701 394 763 l 394 247 q 404 152 394 185 q 438 106 414 119 q 507 93 461 93 l 526 93 m 835 879 q 800 726 835 801 q 701 590 765 651 q 608 615 646 590 q 665 691 650 660 q 679 760 679 722 q 589 825 679 817 q 593 899 589 868 q 608 965 597 929 q 767 1010 711 972 q 819 970 804 999 q 835 879 835 942 z "},"Ļ":{"ha":861,"x_min":51,"x_max":844,"o":"m 526 93 q 651 135 607 93 q 724 279 694 178 q 795 262 763 274 q 844 235 828 250 q 801 -3 813 139 q 463 0 651 0 q 51 -4 247 0 q 61 92 51 58 q 119 106 100 94 q 147 149 139 118 q 154 242 154 179 l 154 703 q 147 790 154 763 q 120 830 139 818 q 60 847 101 842 q 51 943 51 885 q 274 939 169 939 q 497 943 414 939 q 495 886 497 908 q 486 847 493 864 q 427 832 446 843 q 401 792 408 821 q 394 701 394 763 l 394 247 q 404 152 394 185 q 438 106 414 119 q 507 93 461 93 l 526 93 m 488 -54 q 540 -90 524 -64 q 556 -164 556 -115 q 401 -425 556 -318 q 350 -417 374 -426 q 313 -390 326 -408 q 372 -331 351 -361 q 392 -274 392 -300 q 372 -235 392 -249 q 310 -217 351 -222 q 329 -96 306 -150 q 488 -54 429 -92 z "},"Ŀ":{"ha":861,"x_min":51,"x_max":844,"o":"m 526 93 q 651 135 607 93 q 724 279 694 178 q 795 262 763 274 q 844 235 828 250 q 801 -3 813 139 q 463 0 651 0 q 51 -4 247 0 q 61 92 51 58 q 119 106 100 94 q 147 149 139 118 q 154 242 154 179 l 154 703 q 147 790 154 763 q 120 830 139 818 q 60 847 101 842 q 51 943 51 885 q 274 939 169 939 q 497 943 414 939 q 495 886 497 908 q 486 847 493 864 q 427 832 446 843 q 401 792 408 821 q 394 701 394 763 l 394 247 q 404 152 394 185 q 438 106 414 119 q 507 93 461 93 l 526 93 m 706 410 q 636 435 663 410 q 610 501 610 460 q 638 568 610 543 q 711 593 667 593 q 776 567 751 593 q 801 506 801 540 q 776 436 801 463 q 706 410 750 410 z "},"Ḷ":{"ha":861,"x_min":51,"x_max":844,"o":"m 526 93 q 651 135 607 93 q 724 279 694 178 q 795 262 763 274 q 844 235 828 250 q 801 -3 813 139 q 463 0 651 0 q 51 -4 247 0 q 61 92 51 58 q 119 106 100 94 q 147 149 139 118 q 154 242 154 179 l 154 703 q 147 790 154 763 q 120 830 139 818 q 60 847 101 842 q 51 943 51 885 q 274 939 169 939 q 497 943 414 939 q 495 886 497 908 q 486 847 493 864 q 427 832 446 843 q 401 792 408 821 q 394 701 394 763 l 394 247 q 404 152 394 185 q 438 106 414 119 q 507 93 461 93 l 526 93 m 428 -318 q 335 -290 369 -318 q 301 -214 301 -261 q 338 -130 301 -160 q 435 -100 375 -100 q 533 -129 499 -100 q 568 -212 568 -158 q 530 -288 568 -258 q 428 -318 492 -318 z "},"ǈ":{"ha":1308,"x_min":51,"x_max":1240,"o":"m 526 93 q 651 135 607 93 q 724 279 694 178 q 795 262 763 274 q 844 235 828 250 q 801 -3 813 139 q 463 0 651 0 q 51 -4 247 0 q 61 92 51 58 q 119 106 100 94 q 147 149 139 118 q 154 242 154 179 l 154 703 q 147 790 154 763 q 120 830 139 818 q 60 847 101 842 q 51 943 51 885 q 274 939 169 939 q 497 943 414 939 q 495 886 497 908 q 486 847 493 864 q 427 832 446 843 q 401 792 408 821 q 394 701 394 763 l 394 247 q 404 152 394 185 q 438 106 414 119 q 507 93 461 93 l 526 93 m 1100 739 q 1008 767 1042 739 q 974 843 974 796 q 1010 927 974 897 q 1107 957 1047 957 q 1206 928 1171 957 q 1240 844 1240 899 q 1202 769 1240 799 q 1100 739 1164 739 m 938 -346 q 900 -311 915 -335 q 881 -260 885 -287 q 978 -121 951 -186 q 1006 44 1006 -56 l 1006 414 q 985 485 1006 464 q 901 511 964 507 q 918 603 901 571 q 1078 617 1000 603 q 1189 649 1156 631 q 1233 568 1233 631 l 1233 97 q 1143 -174 1233 -60 q 938 -346 1053 -287 z "},"Ḻ":{"ha":861,"x_min":51,"x_max":844,"o":"m 526 93 q 651 135 607 93 q 724 279 694 178 q 795 262 763 274 q 844 235 828 250 q 801 -3 813 139 q 463 0 651 0 q 51 -4 247 0 q 61 92 51 58 q 119 106 100 94 q 147 149 139 118 q 154 242 154 179 l 154 703 q 147 790 154 763 q 120 830 139 818 q 60 847 101 842 q 51 943 51 885 q 274 939 169 939 q 497 943 414 939 q 495 886 497 908 q 486 847 493 864 q 427 832 446 843 q 401 792 408 821 q 394 701 394 763 l 394 247 q 404 152 394 185 q 438 106 414 119 q 507 93 461 93 l 526 93 m 172 -221 q 185 -135 172 -165 l 699 -135 q 686 -210 699 -176 q 172 -221 404 -210 z "},"Ł":{"ha":861,"x_min":17,"x_max":844,"o":"m 724 279 q 795 262 763 274 q 844 235 828 250 q 801 -3 813 139 q 463 0 651 0 q 51 -4 247 0 q 61 92 51 58 q 119 106 100 94 q 147 149 139 118 q 154 242 154 179 l 154 329 l 60 268 q 31 324 43 294 q 17 374 19 354 l 154 460 l 154 703 q 147 790 154 763 q 120 830 139 818 q 60 847 101 842 q 51 943 51 885 q 274 939 169 939 q 497 943 414 939 q 495 886 497 908 q 486 847 493 864 q 427 832 446 843 q 401 792 408 821 q 394 701 394 763 l 394 579 l 500 644 q 526 592 515 619 q 539 544 536 564 l 394 453 l 394 247 q 404 152 394 185 q 438 106 414 119 q 507 93 461 93 l 526 93 q 651 135 607 93 q 724 279 694 178 z "},"M":{"ha":1363,"x_min":22,"x_max":1339,"o":"m 1331 93 q 1339 -4 1339 58 q 1096 0 1283 0 q 893 -4 1001 0 q 904 92 893 44 q 973 114 956 97 q 990 179 990 131 q 985 263 990 217 l 942 668 l 675 -1 q 583 -12 646 -12 l 282 667 l 246 317 q 240 222 240 267 q 261 122 240 149 q 331 92 282 94 q 340 -4 340 51 q 189 0 293 0 q 22 -4 114 0 q 33 92 22 53 q 93 114 71 94 q 129 181 115 133 q 150 315 143 228 l 185 694 q 188 749 188 736 q 167 827 188 807 q 97 847 147 847 q 86 943 86 881 q 258 939 144 939 q 426 943 381 939 l 701 299 l 940 943 q 1117 939 1008 939 q 1283 943 1224 939 q 1274 847 1283 885 q 1201 824 1222 847 q 1181 744 1181 801 q 1183 692 1181 731 l 1225 278 q 1244 160 1233 197 q 1273 110 1254 124 q 1331 93 1292 97 z "},"Ṃ":{"ha":1363,"x_min":22,"x_max":1339,"o":"m 1331 93 q 1339 -4 1339 58 q 1096 0 1283 0 q 893 -4 1001 0 q 904 92 893 44 q 973 114 956 97 q 990 179 990 131 q 985 263 990 217 l 942 668 l 675 -1 q 583 -12 646 -12 l 282 667 l 246 317 q 240 222 240 267 q 261 122 240 149 q 331 92 282 94 q 340 -4 340 51 q 189 0 293 0 q 22 -4 114 0 q 33 92 22 53 q 93 114 71 94 q 129 181 115 133 q 150 315 143 228 l 185 694 q 188 749 188 736 q 167 827 188 807 q 97 847 147 847 q 86 943 86 881 q 258 939 144 939 q 426 943 381 939 l 701 299 l 940 943 q 1117 939 1008 939 q 1283 943 1224 939 q 1274 847 1283 885 q 1201 824 1222 847 q 1181 744 1181 801 q 1183 692 1181 731 l 1225 278 q 1244 160 1233 197 q 1273 110 1254 124 q 1331 93 1292 97 m 617 -318 q 524 -290 558 -318 q 490 -214 490 -261 q 527 -130 490 -160 q 624 -100 564 -100 q 722 -129 688 -100 q 757 -212 757 -158 q 719 -288 757 -258 q 617 -318 681 -318 z "},"N":{"ha":999,"x_min":35,"x_max":953,"o":"m 810 939 q 953 943 900 939 q 944 847 953 879 q 890 827 908 843 q 865 771 872 811 q 858 649 858 731 l 858 0 q 749 -11 822 -11 l 250 657 l 250 292 q 258 169 250 210 q 289 113 267 129 q 356 92 311 96 q 364 -4 364 60 q 204 0 306 0 q 35 -4 88 0 q 46 92 35 61 q 112 113 89 96 q 144 170 135 129 q 154 292 154 211 l 154 785 l 138 807 q 106 835 124 828 q 46 847 88 843 q 35 943 35 885 q 199 939 88 939 q 340 943 306 939 l 763 368 l 763 649 q 753 769 763 729 q 722 826 744 810 q 650 847 699 843 q 640 943 640 885 q 810 939 700 939 z "},"Ǌ":{"ha":1522,"x_min":35,"x_max":1476,"o":"m 810 939 q 953 943 900 939 q 944 847 953 879 q 890 827 908 843 q 865 771 872 811 q 858 649 858 731 l 858 0 q 749 -11 822 -11 l 250 657 l 250 292 q 258 169 250 210 q 289 113 267 129 q 356 92 311 96 q 364 -4 364 60 q 204 0 306 0 q 35 -4 88 0 q 46 92 35 61 q 112 113 89 96 q 144 170 135 129 q 154 292 154 211 l 154 785 l 138 807 q 106 835 124 828 q 46 847 88 843 q 35 943 35 885 q 199 939 88 939 q 340 943 306 939 l 763 368 l 763 649 q 753 769 763 729 q 722 826 744 810 q 650 847 699 843 q 640 943 640 885 q 810 939 700 939 m 1374 183 q 1347 -50 1374 43 q 1246 -216 1321 -143 q 1028 -346 1171 -289 q 985 -260 989 -317 q 1070 -180 1039 -221 q 1117 -78 1101 -139 q 1133 76 1133 -17 l 1133 700 q 1126 792 1133 763 q 1100 832 1118 821 q 1042 847 1082 843 q 1031 943 1031 881 q 1253 939 1085 939 q 1476 943 1421 939 q 1465 847 1476 882 q 1405 830 1424 843 q 1380 788 1386 817 q 1374 700 1374 760 l 1374 183 z "},"Ń":{"ha":999,"x_min":35,"x_max":953,"o":"m 810 939 q 953 943 900 939 q 944 847 953 879 q 890 827 908 843 q 865 771 872 811 q 858 649 858 731 l 858 0 q 749 -11 822 -11 l 250 657 l 250 292 q 258 169 250 210 q 289 113 267 129 q 356 92 311 96 q 364 -4 364 60 q 204 0 306 0 q 35 -4 88 0 q 46 92 35 61 q 112 113 89 96 q 144 170 135 129 q 154 292 154 211 l 154 785 l 138 807 q 106 835 124 828 q 46 847 88 843 q 35 943 35 885 q 199 939 88 939 q 340 943 306 939 l 763 368 l 763 649 q 753 769 763 729 q 722 826 744 810 q 650 847 699 843 q 640 943 640 885 q 810 939 700 939 m 538 1019 q 418 1040 469 1019 q 501 1211 469 1129 q 615 1224 556 1224 q 703 1214 668 1224 q 538 1019 624 1132 z "},"Ň":{"ha":999,"x_min":35,"x_max":953,"o":"m 810 939 q 953 943 900 939 q 944 847 953 879 q 890 827 908 843 q 865 771 872 811 q 858 649 858 731 l 858 0 q 749 -11 822 -11 l 250 657 l 250 292 q 258 169 250 210 q 289 113 267 129 q 356 92 311 96 q 364 -4 364 60 q 204 0 306 0 q 35 -4 88 0 q 46 92 35 61 q 112 113 89 96 q 144 170 135 129 q 154 292 154 211 l 154 785 l 138 807 q 106 835 124 828 q 46 847 88 843 q 35 943 35 885 q 199 939 88 939 q 340 943 306 939 l 763 368 l 763 649 q 753 769 763 729 q 722 826 744 810 q 650 847 699 843 q 640 943 640 885 q 810 939 700 939 m 431 1010 q 236 1169 365 1079 q 346 1236 276 1222 q 508 1153 408 1196 q 574 1183 517 1157 q 668 1233 632 1210 q 715 1210 694 1229 q 743 1167 735 1190 q 536 1022 615 1092 q 431 1010 500 1010 z "},"Ņ":{"ha":999,"x_min":35,"x_max":953,"o":"m 810 939 q 953 943 900 939 q 944 847 953 879 q 890 827 908 843 q 865 771 872 811 q 858 649 858 731 l 858 0 q 749 -11 822 -11 l 250 657 l 250 292 q 258 169 250 210 q 289 113 267 129 q 356 92 311 96 q 364 -4 364 60 q 204 0 306 0 q 35 -4 88 0 q 46 92 35 61 q 112 113 89 96 q 144 170 135 129 q 154 292 154 211 l 154 785 l 138 807 q 106 835 124 828 q 46 847 88 843 q 35 943 35 885 q 199 939 88 939 q 340 943 306 939 l 763 368 l 763 649 q 753 769 763 729 q 722 826 744 810 q 650 847 699 843 q 640 943 640 885 q 810 939 700 939 m 596 -54 q 648 -90 632 -64 q 664 -164 664 -115 q 510 -425 664 -318 q 458 -417 482 -426 q 421 -390 435 -408 q 480 -331 460 -361 q 500 -274 500 -300 q 480 -235 500 -249 q 418 -217 460 -222 q 438 -96 414 -150 q 596 -54 538 -92 z "},"Ṅ":{"ha":999,"x_min":35,"x_max":953,"o":"m 810 939 q 953 943 900 939 q 944 847 953 879 q 890 827 908 843 q 865 771 872 811 q 858 649 858 731 l 858 0 q 749 -11 822 -11 l 250 657 l 250 292 q 258 169 250 210 q 289 113 267 129 q 356 92 311 96 q 364 -4 364 60 q 204 0 306 0 q 35 -4 88 0 q 46 92 35 61 q 112 113 89 96 q 144 170 135 129 q 154 292 154 211 l 154 785 l 138 807 q 106 835 124 828 q 46 847 88 843 q 35 943 35 885 q 199 939 88 939 q 340 943 306 939 l 763 368 l 763 649 q 753 769 763 729 q 722 826 744 810 q 650 847 699 843 q 640 943 640 885 q 810 939 700 939 z "},"Ṇ":{"ha":999,"x_min":35,"x_max":953,"o":"m 810 939 q 953 943 900 939 q 944 847 953 879 q 890 827 908 843 q 865 771 872 811 q 858 649 858 731 l 858 0 q 749 -11 822 -11 l 250 657 l 250 292 q 258 169 250 210 q 289 113 267 129 q 356 92 311 96 q 364 -4 364 60 q 204 0 306 0 q 35 -4 88 0 q 46 92 35 61 q 112 113 89 96 q 144 170 135 129 q 154 292 154 211 l 154 785 l 138 807 q 106 835 124 828 q 46 847 88 843 q 35 943 35 885 q 199 939 88 939 q 340 943 306 939 l 763 368 l 763 649 q 753 769 763 729 q 722 826 744 810 q 650 847 699 843 q 640 943 640 885 q 810 939 700 939 m 536 -318 q 444 -290 478 -318 q 410 -214 410 -261 q 447 -130 410 -160 q 543 -100 483 -100 q 642 -129 607 -100 q 676 -212 676 -158 q 638 -288 676 -258 q 536 -318 600 -318 z "},"Ŋ":{"ha":978,"x_min":51,"x_max":926,"o":"m 578 -346 q 491 -327 531 -346 q 432 -282 451 -308 q 429 -247 429 -262 q 446 -144 429 -190 q 510 -160 471 -153 q 579 -167 550 -167 q 650 -146 628 -167 q 679 -83 672 -125 q 686 47 686 -40 l 686 596 q 658 756 686 710 q 568 801 629 801 q 440 733 486 801 q 394 526 394 664 l 394 239 q 402 148 394 178 q 429 106 410 118 q 488 92 449 94 q 497 -4 497 53 q 290 0 429 0 q 51 -4 143 0 q 55 46 51 18 q 64 92 58 74 q 122 106 103 94 q 147 148 140 118 q 154 239 154 178 l 154 697 q 148 765 154 743 q 120 799 142 788 q 54 814 99 811 q 71 904 54 874 q 237 919 160 906 q 351 951 314 933 q 394 871 394 932 q 379 775 394 840 l 381 775 q 488 902 415 858 q 665 946 561 946 q 857 881 788 946 q 926 672 926 815 l 926 165 q 877 -92 926 25 q 748 -278 828 -210 q 578 -346 668 -346 z "},"Ɲ":{"ha":999,"x_min":-194,"x_max":953,"o":"m 810 939 q 953 943 900 939 q 944 847 953 879 q 890 827 908 843 q 865 771 872 811 q 858 649 858 731 l 858 -1 q 749 -12 822 -12 l 250 656 l 250 110 q 213 -137 250 -35 q 109 -293 175 -240 q -42 -346 43 -346 q -132 -327 -93 -346 q -192 -282 -171 -308 q -194 -247 -194 -262 q -178 -144 -194 -190 q -114 -160 -151 -154 q -42 -167 -76 -167 q 107 -105 60 -167 q 154 93 154 -43 l 154 785 l 138 807 q 106 835 124 828 q 46 847 88 843 q 35 943 35 885 q 199 939 88 939 q 340 943 306 939 l 763 368 l 763 649 q 753 769 763 729 q 722 826 744 810 q 650 847 699 843 q 640 943 640 885 q 810 939 700 939 z "},"ǋ":{"ha":1446,"x_min":35,"x_max":1378,"o":"m 810 939 q 953 943 900 939 q 944 847 953 879 q 890 827 908 843 q 865 771 872 811 q 858 649 858 731 l 858 0 q 749 -11 822 -11 l 250 657 l 250 292 q 258 169 250 210 q 289 113 267 129 q 356 92 311 96 q 364 -4 364 60 q 204 0 306 0 q 35 -4 88 0 q 46 92 35 61 q 112 113 89 96 q 144 170 135 129 q 154 292 154 211 l 154 785 l 138 807 q 106 835 124 828 q 46 847 88 843 q 35 943 35 885 q 199 939 88 939 q 340 943 306 939 l 763 368 l 763 649 q 753 769 763 729 q 722 826 744 810 q 650 847 699 843 q 640 943 640 885 q 810 939 700 939 m 1238 739 q 1145 767 1179 739 q 1111 843 1111 796 q 1148 927 1111 897 q 1244 957 1185 957 q 1343 928 1308 957 q 1378 844 1378 899 q 1340 769 1378 799 q 1238 739 1301 739 m 1075 -346 q 1038 -311 1053 -335 q 1018 -260 1022 -287 q 1116 -121 1089 -186 q 1143 44 1143 -56 l 1143 414 q 1122 485 1143 464 q 1039 511 1101 507 q 1056 603 1039 571 q 1215 617 1138 603 q 1326 649 1293 631 q 1371 568 1371 631 l 1371 97 q 1281 -174 1371 -60 q 1075 -346 1190 -287 z "},"Ṉ":{"ha":999,"x_min":35,"x_max":953,"o":"m 810 939 q 953 943 900 939 q 944 847 953 879 q 890 827 908 843 q 865 771 872 811 q 858 649 858 731 l 858 0 q 749 -11 822 -11 l 250 657 l 250 292 q 258 169 250 210 q 289 113 267 129 q 356 92 311 96 q 364 -4 364 60 q 204 0 306 0 q 35 -4 88 0 q 46 92 35 61 q 112 113 89 96 q 144 170 135 129 q 154 292 154 211 l 154 785 l 138 807 q 106 835 124 828 q 46 847 88 843 q 35 943 35 885 q 199 939 88 939 q 340 943 306 939 l 763 368 l 763 649 q 753 769 763 729 q 722 826 744 810 q 650 847 699 843 q 640 943 640 885 q 810 939 700 939 m 281 -221 q 293 -135 281 -165 l 807 -135 q 794 -210 807 -176 q 281 -221 513 -210 z "},"Ñ":{"ha":999,"x_min":35,"x_max":953,"o":"m 810 939 q 953 943 900 939 q 944 847 953 879 q 890 827 908 843 q 865 771 872 811 q 858 649 858 731 l 858 0 q 749 -11 822 -11 l 250 657 l 250 292 q 258 169 250 210 q 289 113 267 129 q 356 92 311 96 q 364 -4 364 60 q 204 0 306 0 q 35 -4 88 0 q 46 92 35 61 q 112 113 89 96 q 144 170 135 129 q 154 292 154 211 l 154 785 l 138 807 q 106 835 124 828 q 46 847 88 843 q 35 943 35 885 q 199 939 88 939 q 340 943 306 939 l 763 368 l 763 649 q 753 769 763 729 q 722 826 744 810 q 650 847 699 843 q 640 943 640 885 q 810 939 700 939 m 576 1025 q 519 1034 543 1025 q 464 1060 496 1043 q 422 1082 440 1075 q 382 1089 404 1089 q 276 1029 325 1089 q 233 1118 235 1067 q 322 1195 271 1171 q 422 1219 374 1219 q 477 1211 453 1219 q 536 1186 501 1203 q 581 1167 563 1174 q 619 1160 600 1160 q 701 1210 667 1160 q 778 1169 750 1201 q 692 1063 743 1100 q 576 1025 640 1025 z "},"O":{"ha":1046,"x_min":49,"x_max":997,"o":"m 522 -12 q 271 49 378 -12 q 106 220 164 110 q 49 474 49 331 q 110 725 49 617 q 278 892 171 833 q 522 951 386 951 q 772 894 664 951 q 938 731 879 836 q 997 486 997 625 q 938 228 997 342 q 772 51 879 114 q 522 -12 664 -12 m 542 86 q 694 187 639 86 q 749 456 749 288 q 718 658 749 567 q 631 803 688 750 q 501 857 575 857 q 352 765 407 857 q 297 508 297 672 q 360 207 297 328 q 542 86 424 86 z "},"Ó":{"ha":1046,"x_min":49,"x_max":997,"o":"m 522 -12 q 271 49 378 -12 q 106 220 164 110 q 49 474 49 331 q 110 725 49 617 q 278 892 171 833 q 522 951 386 951 q 772 894 664 951 q 938 731 879 836 q 997 486 997 625 q 938 228 997 342 q 772 51 879 114 q 522 -12 664 -12 m 542 86 q 694 187 639 86 q 749 456 749 288 q 718 658 749 567 q 631 803 688 750 q 501 857 575 857 q 352 765 407 857 q 297 508 297 672 q 360 207 297 328 q 542 86 424 86 m 556 1019 q 436 1040 488 1019 q 519 1211 488 1129 q 633 1224 574 1224 q 721 1214 686 1224 q 556 1019 642 1132 z "},"Ŏ":{"ha":1046,"x_min":49,"x_max":997,"o":"m 522 -12 q 271 49 378 -12 q 106 220 164 110 q 49 474 49 331 q 110 725 49 617 q 278 892 171 833 q 522 951 386 951 q 772 894 664 951 q 938 731 879 836 q 997 486 997 625 q 938 228 997 342 q 772 51 879 114 q 522 -12 664 -12 m 542 86 q 694 187 639 86 q 749 456 749 288 q 718 658 749 567 q 631 803 688 750 q 501 857 575 857 q 352 765 407 857 q 297 508 297 672 q 360 207 297 328 q 542 86 424 86 m 764 1206 q 702 1055 764 1106 q 521 1004 640 1004 q 342 1053 403 1004 q 282 1200 282 1103 q 372 1217 325 1217 q 406 1214 383 1217 q 446 1155 411 1175 q 538 1135 481 1135 q 624 1155 592 1135 q 657 1214 656 1175 q 696 1217 669 1217 q 764 1206 731 1217 z "},"Ǒ":{"ha":1046,"x_min":49,"x_max":997,"o":"m 522 -12 q 271 49 378 -12 q 106 220 164 110 q 49 474 49 331 q 110 725 49 617 q 278 892 171 833 q 522 951 386 951 q 772 894 664 951 q 938 731 879 836 q 997 486 997 625 q 938 228 997 342 q 772 51 879 114 q 522 -12 664 -12 m 542 86 q 694 187 639 86 q 749 456 749 288 q 718 658 749 567 q 631 803 688 750 q 501 857 575 857 q 352 765 407 857 q 297 508 297 672 q 360 207 297 328 q 542 86 424 86 m 449 1010 q 254 1169 383 1079 q 364 1236 294 1222 q 526 1153 426 1196 q 592 1183 535 1157 q 686 1233 650 1210 q 733 1210 713 1229 q 761 1167 753 1190 q 554 1022 633 1092 q 449 1010 518 1010 z "},"Ô":{"ha":1046,"x_min":49,"x_max":997,"o":"m 522 -12 q 271 49 378 -12 q 106 220 164 110 q 49 474 49 331 q 110 725 49 617 q 278 892 171 833 q 522 951 386 951 q 772 894 664 951 q 938 731 879 836 q 997 486 997 625 q 938 228 997 342 q 772 51 879 114 q 522 -12 664 -12 m 542 86 q 694 187 639 86 q 749 456 749 288 q 718 658 749 567 q 631 803 688 750 q 501 857 575 857 q 352 765 407 857 q 297 508 297 672 q 360 207 297 328 q 542 86 424 86 m 344 1011 q 297 1036 317 1017 q 269 1078 276 1056 q 475 1224 410 1164 q 581 1236 518 1236 q 776 1075 657 1157 q 729 1033 754 1049 q 667 1010 704 1017 q 503 1093 592 1056 l 456 1071 q 404 1044 442 1064 q 344 1011 367 1025 z "},"Ố":{"ha":1046,"x_min":49,"x_max":997,"o":"m 522 -12 q 271 49 378 -12 q 106 220 164 110 q 49 474 49 331 q 110 725 49 617 q 278 892 171 833 q 522 951 386 951 q 772 894 664 951 q 938 731 879 836 q 997 486 997 625 q 938 228 997 342 q 772 51 879 114 q 522 -12 664 -12 m 542 86 q 694 187 639 86 q 749 456 749 288 q 718 658 749 567 q 631 803 688 750 q 501 857 575 857 q 352 765 407 857 q 297 508 297 672 q 360 207 297 328 q 542 86 424 86 m 786 1199 q 676 1217 731 1199 q 753 1372 721 1290 q 857 1385 803 1385 q 936 1376 903 1385 q 786 1199 858 1294 m 344 1011 q 297 1036 317 1017 q 269 1078 276 1056 q 475 1224 410 1164 q 581 1236 518 1236 q 776 1075 657 1157 q 729 1033 754 1049 q 667 1010 704 1017 q 503 1093 592 1056 l 456 1071 q 404 1044 442 1064 q 344 1011 367 1025 z "},"Ộ":{"ha":1046,"x_min":49,"x_max":997,"o":"m 522 -12 q 271 49 378 -12 q 106 220 164 110 q 49 474 49 331 q 110 725 49 617 q 278 892 171 833 q 522 951 386 951 q 772 894 664 951 q 938 731 879 836 q 997 486 997 625 q 938 228 997 342 q 772 51 879 114 q 522 -12 664 -12 m 542 86 q 694 187 639 86 q 749 456 749 288 q 718 658 749 567 q 631 803 688 750 q 501 857 575 857 q 352 765 407 857 q 297 508 297 672 q 360 207 297 328 q 542 86 424 86 m 517 -318 q 424 -290 458 -318 q 390 -214 390 -261 q 427 -130 390 -160 q 524 -100 464 -100 q 622 -129 588 -100 q 657 -212 657 -158 q 619 -288 657 -258 q 517 -318 581 -318 m 344 1011 q 297 1036 317 1017 q 269 1078 276 1056 q 475 1224 410 1164 q 581 1236 518 1236 q 776 1075 657 1157 q 729 1033 754 1049 q 667 1010 704 1017 q 503 1093 592 1056 l 456 1071 q 404 1044 442 1064 q 344 1011 367 1025 z "},"Ồ":{"ha":1046,"x_min":49,"x_max":997,"o":"m 522 -12 q 271 49 378 -12 q 106 220 164 110 q 49 474 49 331 q 110 725 49 617 q 278 892 171 833 q 522 951 386 951 q 772 894 664 951 q 938 731 879 836 q 997 486 997 625 q 938 228 997 342 q 772 51 879 114 q 522 -12 664 -12 m 542 86 q 694 187 639 86 q 749 456 749 288 q 718 658 749 567 q 631 803 688 750 q 501 857 575 857 q 352 765 407 857 q 297 508 297 672 q 360 207 297 328 q 542 86 424 86 z "},"Ổ":{"ha":1046,"x_min":49,"x_max":997,"o":"m 522 -12 q 271 49 378 -12 q 106 220 164 110 q 49 474 49 331 q 110 725 49 617 q 278 892 171 833 q 522 951 386 951 q 772 894 664 951 q 938 731 879 836 q 997 486 997 625 q 938 228 997 342 q 772 51 879 114 q 522 -12 664 -12 m 542 86 q 694 187 639 86 q 749 456 749 288 q 718 658 749 567 q 631 803 688 750 q 501 857 575 857 q 352 765 407 857 q 297 508 297 672 q 360 207 297 328 q 542 86 424 86 m 344 1011 q 297 1036 317 1017 q 269 1078 276 1056 q 475 1224 410 1164 q 581 1236 518 1236 q 776 1075 657 1157 q 729 1033 754 1049 q 667 1010 704 1017 q 503 1093 592 1056 l 456 1071 q 404 1044 442 1064 q 344 1011 367 1025 m 697 1201 q 688 1240 688 1221 q 699 1280 688 1264 q 729 1311 710 1296 q 753 1336 746 1326 q 761 1361 761 1346 q 752 1385 761 1376 q 729 1393 743 1393 q 694 1373 707 1393 q 674 1300 681 1353 q 586 1318 621 1300 q 590 1369 590 1346 q 586 1411 590 1393 q 744 1454 649 1454 q 882 1364 882 1454 q 866 1311 882 1331 q 821 1271 850 1292 q 794 1251 803 1260 q 786 1231 786 1242 q 790 1210 786 1221 q 728 1199 761 1199 q 697 1201 717 1199 z "},"Ỗ":{"ha":1046,"x_min":49,"x_max":997,"o":"m 522 -12 q 271 49 378 -12 q 106 220 164 110 q 49 474 49 331 q 110 725 49 617 q 278 892 171 833 q 522 951 386 951 q 772 894 664 951 q 938 731 879 836 q 997 486 997 625 q 938 228 997 342 q 772 51 879 114 q 522 -12 664 -12 m 542 86 q 694 187 639 86 q 749 456 749 288 q 718 658 749 567 q 631 803 688 750 q 501 857 575 857 q 352 765 407 857 q 297 508 297 672 q 360 207 297 328 q 542 86 424 86 m 344 1011 q 297 1036 317 1017 q 269 1078 276 1056 q 475 1224 410 1164 q 581 1236 518 1236 q 776 1075 657 1157 q 729 1033 754 1049 q 667 1010 704 1017 q 503 1093 592 1056 l 456 1071 q 404 1044 442 1064 q 344 1011 367 1025 m 594 1294 q 538 1303 561 1294 q 482 1329 514 1313 q 440 1351 458 1344 q 400 1358 422 1358 q 294 1299 343 1358 q 251 1388 253 1336 q 340 1465 289 1440 q 440 1489 392 1489 q 495 1481 471 1489 q 554 1456 519 1472 q 599 1436 581 1443 q 638 1429 618 1429 q 719 1479 685 1429 q 796 1439 768 1471 q 710 1332 761 1369 q 594 1294 658 1294 z "},"Ȍ":{"ha":1046,"x_min":49,"x_max":997,"o":"m 522 -12 q 271 49 378 -12 q 106 220 164 110 q 49 474 49 331 q 110 725 49 617 q 278 892 171 833 q 522 951 386 951 q 772 894 664 951 q 938 731 879 836 q 997 486 997 625 q 938 228 997 342 q 772 51 879 114 q 522 -12 664 -12 m 542 86 q 694 187 639 86 q 749 456 749 288 q 718 658 749 567 q 631 803 688 750 q 501 857 575 857 q 352 765 407 857 q 297 508 297 672 q 360 207 297 328 q 542 86 424 86 m 358 996 q 204 1167 275 1096 q 287 1191 238 1183 q 385 1197 336 1199 q 478 1015 421 1103 q 358 996 424 996 m 618 996 q 475 1171 533 1107 q 553 1192 507 1185 q 644 1197 600 1199 q 738 1015 681 1103 q 618 996 683 996 z "},"Ö":{"ha":1046,"x_min":49,"x_max":997,"o":"m 522 -12 q 271 49 378 -12 q 106 220 164 110 q 49 474 49 331 q 110 725 49 617 q 278 892 171 833 q 522 951 386 951 q 772 894 664 951 q 938 731 879 836 q 997 486 997 625 q 938 228 997 342 q 772 51 879 114 q 522 -12 664 -12 m 542 86 q 694 187 639 86 q 749 456 749 288 q 718 658 749 567 q 631 803 688 750 q 501 857 575 857 q 352 765 407 857 q 297 508 297 672 q 360 207 297 328 q 542 86 424 86 z "},"Ȫ":{"ha":1046,"x_min":49,"x_max":997,"o":"m 522 -12 q 271 49 378 -12 q 106 220 164 110 q 49 474 49 331 q 110 725 49 617 q 278 892 171 833 q 522 951 386 951 q 772 894 664 951 q 938 731 879 836 q 997 486 997 625 q 938 228 997 342 q 772 51 879 114 q 522 -12 664 -12 m 542 86 q 694 187 639 86 q 749 456 749 288 q 718 658 749 567 q 631 803 688 750 q 501 857 575 857 q 352 765 407 857 q 297 508 297 672 q 360 207 297 328 q 542 86 424 86 m 792 1396 q 779 1314 792 1358 q 256 1299 485 1314 q 268 1396 256 1363 l 792 1396 z "},"Ȱ":{"ha":1046,"x_min":49,"x_max":997,"o":"m 522 -12 q 271 49 378 -12 q 106 220 164 110 q 49 474 49 331 q 110 725 49 617 q 278 892 171 833 q 522 951 386 951 q 772 894 664 951 q 938 731 879 836 q 997 486 997 625 q 938 228 997 342 q 772 51 879 114 q 522 -12 664 -12 m 542 86 q 694 187 639 86 q 749 456 749 288 q 718 658 749 567 q 631 803 688 750 q 501 857 575 857 q 352 765 407 857 q 297 508 297 672 q 360 207 297 328 q 542 86 424 86 m 792 1360 q 779 1278 792 1322 q 256 1263 485 1278 q 268 1360 256 1326 l 792 1360 z "},"Ọ":{"ha":1046,"x_min":49,"x_max":997,"o":"m 522 -12 q 271 49 378 -12 q 106 220 164 110 q 49 474 49 331 q 110 725 49 617 q 278 892 171 833 q 522 951 386 951 q 772 894 664 951 q 938 731 879 836 q 997 486 997 625 q 938 228 997 342 q 772 51 879 114 q 522 -12 664 -12 m 542 86 q 694 187 639 86 q 749 456 749 288 q 718 658 749 567 q 631 803 688 750 q 501 857 575 857 q 352 765 407 857 q 297 508 297 672 q 360 207 297 328 q 542 86 424 86 m 517 -318 q 424 -290 458 -318 q 390 -214 390 -261 q 427 -130 390 -160 q 524 -100 464 -100 q 622 -129 588 -100 q 657 -212 657 -158 q 619 -288 657 -258 q 517 -318 581 -318 z "},"Ò":{"ha":1046,"x_min":49,"x_max":997,"o":"m 522 -12 q 271 49 378 -12 q 106 220 164 110 q 49 474 49 331 q 110 725 49 617 q 278 892 171 833 q 522 951 386 951 q 772 894 664 951 q 938 731 879 836 q 997 486 997 625 q 938 228 997 342 q 772 51 879 114 q 522 -12 664 -12 m 542 86 q 694 187 639 86 q 749 456 749 288 q 718 658 749 567 q 631 803 688 750 q 501 857 575 857 q 352 765 407 857 q 297 508 297 672 q 360 207 297 328 q 542 86 424 86 m 483 1019 q 338 1190 414 1115 q 420 1215 371 1207 q 518 1221 469 1222 q 560 1129 535 1179 q 611 1040 585 1079 q 483 1019 561 1019 z "},"Ỏ":{"ha":1046,"x_min":49,"x_max":997,"o":"m 522 -12 q 271 49 378 -12 q 106 220 164 110 q 49 474 49 331 q 110 725 49 617 q 278 892 171 833 q 522 951 386 951 q 772 894 664 951 q 938 731 879 836 q 997 486 997 625 q 938 228 997 342 q 772 51 879 114 q 522 -12 664 -12 m 542 86 q 694 187 639 86 q 749 456 749 288 q 718 658 749 567 q 631 803 688 750 q 501 857 575 857 q 352 765 407 857 q 297 508 297 672 q 360 207 297 328 q 542 86 424 86 m 486 1000 q 476 1039 476 1019 q 488 1078 476 1063 q 518 1110 499 1094 q 542 1135 535 1125 q 550 1160 550 1144 q 541 1183 550 1175 q 518 1192 532 1192 q 483 1172 496 1192 q 463 1099 469 1151 q 375 1117 410 1099 q 379 1168 379 1144 q 375 1210 379 1192 q 533 1253 438 1253 q 671 1163 671 1253 q 655 1110 671 1129 q 610 1069 639 1090 q 583 1049 592 1058 q 575 1029 575 1040 q 579 1008 575 1019 q 517 997 550 997 q 486 1000 506 997 z "},"Ơ":{"ha":1046,"x_min":49,"x_max":997,"o":"m 815 867 q 949 708 901 806 q 997 486 997 610 q 938 228 997 342 q 772 51 879 114 q 522 -12 664 -12 q 271 49 378 -12 q 106 220 164 110 q 49 474 49 331 q 110 725 49 617 q 278 892 171 833 q 522 951 386 951 q 646 942 571 951 q 713 936 693 936 q 796 959 765 936 q 826 1031 826 982 q 818 1089 826 1054 q 913 1107 857 1107 q 946 1104 926 1107 q 974 1013 974 1061 q 926 908 974 949 q 815 867 879 868 m 542 86 q 694 187 639 86 q 749 456 749 288 q 718 658 749 567 q 631 803 688 750 q 501 857 575 857 q 352 765 407 857 q 297 508 297 672 q 360 207 297 328 q 542 86 424 86 z "},"Ớ":{"ha":1046,"x_min":49,"x_max":997,"o":"m 815 867 q 949 708 901 806 q 997 486 997 610 q 938 228 997 342 q 772 51 879 114 q 522 -12 664 -12 q 271 49 378 -12 q 106 220 164 110 q 49 474 49 331 q 110 725 49 617 q 278 892 171 833 q 522 951 386 951 q 646 942 571 951 q 713 936 693 936 q 796 959 765 936 q 826 1031 826 982 q 818 1089 826 1054 q 913 1107 857 1107 q 946 1104 926 1107 q 974 1013 974 1061 q 926 908 974 949 q 815 867 879 868 m 542 86 q 694 187 639 86 q 749 456 749 288 q 718 658 749 567 q 631 803 688 750 q 501 857 575 857 q 352 765 407 857 q 297 508 297 672 q 360 207 297 328 q 542 86 424 86 m 556 1019 q 436 1040 488 1019 q 519 1211 488 1129 q 633 1224 574 1224 q 721 1214 686 1224 q 556 1019 642 1132 z "},"Ợ":{"ha":1046,"x_min":49,"x_max":997,"o":"m 815 867 q 949 708 901 806 q 997 486 997 610 q 938 228 997 342 q 772 51 879 114 q 522 -12 664 -12 q 271 49 378 -12 q 106 220 164 110 q 49 474 49 331 q 110 725 49 617 q 278 892 171 833 q 522 951 386 951 q 646 942 571 951 q 713 936 693 936 q 796 959 765 936 q 826 1031 826 982 q 818 1089 826 1054 q 913 1107 857 1107 q 946 1104 926 1107 q 974 1013 974 1061 q 926 908 974 949 q 815 867 879 868 m 542 86 q 694 187 639 86 q 749 456 749 288 q 718 658 749 567 q 631 803 688 750 q 501 857 575 857 q 352 765 407 857 q 297 508 297 672 q 360 207 297 328 q 542 86 424 86 m 517 -318 q 424 -290 458 -318 q 390 -214 390 -261 q 427 -130 390 -160 q 524 -100 464 -100 q 622 -129 588 -100 q 657 -212 657 -158 q 619 -288 657 -258 q 517 -318 581 -318 z "},"Ờ":{"ha":1046,"x_min":49,"x_max":997,"o":"m 815 867 q 949 708 901 806 q 997 486 997 610 q 938 228 997 342 q 772 51 879 114 q 522 -12 664 -12 q 271 49 378 -12 q 106 220 164 110 q 49 474 49 331 q 110 725 49 617 q 278 892 171 833 q 522 951 386 951 q 646 942 571 951 q 713 936 693 936 q 796 959 765 936 q 826 1031 826 982 q 818 1089 826 1054 q 913 1107 857 1107 q 946 1104 926 1107 q 974 1013 974 1061 q 926 908 974 949 q 815 867 879 868 m 542 86 q 694 187 639 86 q 749 456 749 288 q 718 658 749 567 q 631 803 688 750 q 501 857 575 857 q 352 765 407 857 q 297 508 297 672 q 360 207 297 328 q 542 86 424 86 m 483 1019 q 338 1190 414 1115 q 420 1215 371 1207 q 518 1221 469 1222 q 560 1129 535 1179 q 611 1040 585 1079 q 483 1019 561 1019 z "},"Ở":{"ha":1046,"x_min":49,"x_max":997,"o":"m 815 867 q 949 708 901 806 q 997 486 997 610 q 938 228 997 342 q 772 51 879 114 q 522 -12 664 -12 q 271 49 378 -12 q 106 220 164 110 q 49 474 49 331 q 110 725 49 617 q 278 892 171 833 q 522 951 386 951 q 646 942 571 951 q 713 936 693 936 q 796 959 765 936 q 826 1031 826 982 q 818 1089 826 1054 q 913 1107 857 1107 q 946 1104 926 1107 q 974 1013 974 1061 q 926 908 974 949 q 815 867 879 868 m 542 86 q 694 187 639 86 q 749 456 749 288 q 718 658 749 567 q 631 803 688 750 q 501 857 575 857 q 352 765 407 857 q 297 508 297 672 q 360 207 297 328 q 542 86 424 86 m 486 1000 q 476 1039 476 1019 q 488 1078 476 1063 q 518 1110 499 1094 q 542 1135 535 1125 q 550 1160 550 1144 q 541 1183 550 1175 q 518 1192 532 1192 q 483 1172 496 1192 q 463 1099 469 1151 q 375 1117 410 1099 q 379 1168 379 1144 q 375 1210 379 1192 q 533 1253 438 1253 q 671 1163 671 1253 q 655 1110 671 1129 q 610 1069 639 1090 q 583 1049 592 1058 q 575 1029 575 1040 q 579 1008 575 1019 q 517 997 550 997 q 486 1000 506 997 z "},"Ỡ":{"ha":1046,"x_min":49,"x_max":997,"o":"m 815 867 q 949 708 901 806 q 997 486 997 610 q 938 228 997 342 q 772 51 879 114 q 522 -12 664 -12 q 271 49 378 -12 q 106 220 164 110 q 49 474 49 331 q 110 725 49 617 q 278 892 171 833 q 522 951 386 951 q 646 942 571 951 q 713 936 693 936 q 796 959 765 936 q 826 1031 826 982 q 818 1089 826 1054 q 913 1107 857 1107 q 946 1104 926 1107 q 974 1013 974 1061 q 926 908 974 949 q 815 867 879 868 m 542 86 q 694 187 639 86 q 749 456 749 288 q 718 658 749 567 q 631 803 688 750 q 501 857 575 857 q 352 765 407 857 q 297 508 297 672 q 360 207 297 328 q 542 86 424 86 m 594 1025 q 538 1034 561 1025 q 482 1060 514 1043 q 440 1082 458 1075 q 400 1089 422 1089 q 294 1029 343 1089 q 251 1118 253 1067 q 340 1195 289 1171 q 440 1219 392 1219 q 495 1211 471 1219 q 554 1186 519 1203 q 599 1167 581 1174 q 638 1160 618 1160 q 719 1210 685 1160 q 796 1169 768 1201 q 710 1063 761 1100 q 594 1025 658 1025 z "},"Ő":{"ha":1046,"x_min":49,"x_max":997,"o":"m 522 -12 q 271 49 378 -12 q 106 220 164 110 q 49 474 49 331 q 110 725 49 617 q 278 892 171 833 q 522 951 386 951 q 772 894 664 951 q 938 731 879 836 q 997 486 997 625 q 938 228 997 342 q 772 51 879 114 q 522 -12 664 -12 m 542 86 q 694 187 639 86 q 749 456 749 288 q 718 658 749 567 q 631 803 688 750 q 501 857 575 857 q 352 765 407 857 q 297 508 297 672 q 360 207 297 328 q 542 86 424 86 m 426 1021 q 364 1031 396 1022 q 314 1050 332 1039 q 375 1206 347 1119 q 506 1225 428 1225 q 581 1217 556 1225 q 426 1021 501 1128 m 690 1021 q 628 1031 660 1022 q 578 1050 596 1039 q 639 1206 611 1119 q 769 1225 689 1225 q 844 1217 819 1225 q 690 1021 765 1128 z "},"Ȏ":{"ha":1046,"x_min":49,"x_max":997,"o":"m 522 -12 q 271 49 378 -12 q 106 220 164 110 q 49 474 49 331 q 110 725 49 617 q 278 892 171 833 q 522 951 386 951 q 772 894 664 951 q 938 731 879 836 q 997 486 997 625 q 938 228 997 342 q 772 51 879 114 q 522 -12 664 -12 m 542 86 q 694 187 639 86 q 749 456 749 288 q 718 658 749 567 q 631 803 688 750 q 501 857 575 857 q 352 765 407 857 q 297 508 297 672 q 360 207 297 328 q 542 86 424 86 m 282 1017 q 344 1167 282 1117 q 525 1218 406 1218 q 703 1169 643 1218 q 764 1022 764 1119 q 675 1006 721 1006 q 640 1008 663 1006 q 599 1067 633 1047 q 508 1088 565 1088 q 422 1067 454 1088 q 389 1008 390 1046 q 350 1004 371 1004 q 282 1017 319 1004 z "},"Ō":{"ha":1046,"x_min":49,"x_max":997,"o":"m 522 -12 q 271 49 378 -12 q 106 220 164 110 q 49 474 49 331 q 110 725 49 617 q 278 892 171 833 q 522 951 386 951 q 772 894 664 951 q 938 731 879 836 q 997 486 997 625 q 938 228 997 342 q 772 51 879 114 q 522 -12 664 -12 m 542 86 q 694 187 639 86 q 749 456 749 288 q 718 658 749 567 q 631 803 688 750 q 501 857 575 857 q 352 765 407 857 q 297 508 297 672 q 360 207 297 328 q 542 86 424 86 m 792 1142 q 779 1060 792 1104 q 256 1044 485 1060 q 268 1142 256 1108 l 792 1142 z "},"Ṓ":{"ha":1046,"x_min":49,"x_max":997,"o":"m 522 -12 q 271 49 378 -12 q 106 220 164 110 q 49 474 49 331 q 110 725 49 617 q 278 892 171 833 q 522 951 386 951 q 772 894 664 951 q 938 731 879 836 q 997 486 997 625 q 938 228 997 342 q 772 51 879 114 q 522 -12 664 -12 m 542 86 q 694 187 639 86 q 749 456 749 288 q 718 658 749 567 q 631 803 688 750 q 501 857 575 857 q 352 765 407 857 q 297 508 297 672 q 360 207 297 328 q 542 86 424 86 m 792 1142 q 779 1060 792 1104 q 256 1044 485 1060 q 268 1142 256 1108 l 792 1142 m 556 1222 q 436 1243 488 1222 q 519 1414 488 1332 q 633 1426 574 1426 q 721 1417 686 1426 q 556 1222 642 1335 z "},"Ṑ":{"ha":1046,"x_min":49,"x_max":997,"o":"m 522 -12 q 271 49 378 -12 q 106 220 164 110 q 49 474 49 331 q 110 725 49 617 q 278 892 171 833 q 522 951 386 951 q 772 894 664 951 q 938 731 879 836 q 997 486 997 625 q 938 228 997 342 q 772 51 879 114 q 522 -12 664 -12 m 542 86 q 694 187 639 86 q 749 456 749 288 q 718 658 749 567 q 631 803 688 750 q 501 857 575 857 q 352 765 407 857 q 297 508 297 672 q 360 207 297 328 q 542 86 424 86 m 792 1142 q 779 1060 792 1104 q 256 1044 485 1060 q 268 1142 256 1108 l 792 1142 m 483 1222 q 338 1393 414 1318 q 420 1417 371 1410 q 518 1424 469 1425 q 560 1332 535 1382 q 611 1243 585 1282 q 483 1222 561 1222 z "},"Ǫ":{"ha":1046,"x_min":49,"x_max":997,"o":"m 717 24 q 640 -40 667 -1 q 614 -117 614 -78 q 713 -193 614 -193 q 765 -187 744 -193 q 780 -224 774 -199 q 786 -274 786 -250 l 785 -290 q 621 -349 685 -310 q 590 -350 608 -350 q 511 -333 551 -350 q 444 -281 471 -315 q 418 -200 418 -247 q 448 -99 418 -147 q 536 -12 478 -50 l 522 -12 q 271 49 378 -12 q 106 220 164 110 q 49 474 49 331 q 110 725 49 617 q 278 892 171 833 q 522 951 386 951 q 772 894 664 951 q 938 731 879 836 q 997 486 997 625 q 923 200 997 322 q 717 24 849 78 m 297 508 q 360 207 297 328 q 542 86 424 86 q 694 187 639 86 q 749 456 749 288 q 718 658 749 567 q 631 803 688 750 q 501 857 575 857 q 352 765 407 857 q 297 508 297 672 z "},"Ø":{"ha":1046,"x_min":49,"x_max":997,"o":"m 882 808 q 967 665 938 747 q 997 486 997 583 q 938 228 997 342 q 772 51 879 114 q 522 -12 664 -12 q 271 49 381 -12 l 200 -37 q 129 -29 163 -37 q 76 -7 96 -21 l 181 117 q 83 273 117 182 q 49 474 49 364 q 110 725 49 617 q 278 892 171 833 q 522 951 386 951 q 790 883 678 951 l 861 972 q 934 965 900 972 q 988 942 968 957 l 882 808 m 501 857 q 352 765 407 857 q 297 508 297 672 q 325 293 297 392 l 676 747 q 599 828 643 800 q 501 857 554 857 m 542 86 q 694 187 639 86 q 749 456 749 288 q 728 624 749 547 l 381 175 q 542 86 443 86 z "},"Ǿ":{"ha":1046,"x_min":49,"x_max":997,"o":"m 882 808 q 967 665 938 747 q 997 486 997 583 q 938 228 997 342 q 772 51 879 114 q 522 -12 664 -12 q 271 49 381 -12 l 200 -37 q 129 -29 163 -37 q 76 -7 96 -21 l 181 117 q 83 273 117 182 q 49 474 49 364 q 110 725 49 617 q 278 892 171 833 q 522 951 386 951 q 790 883 678 951 l 861 972 q 934 965 900 972 q 988 942 968 957 l 882 808 m 501 857 q 352 765 407 857 q 297 508 297 672 q 325 293 297 392 l 676 747 q 599 828 643 800 q 501 857 554 857 m 542 86 q 694 187 639 86 q 749 456 749 288 q 728 624 749 547 l 381 175 q 542 86 443 86 m 556 1019 q 436 1040 488 1019 q 519 1211 488 1129 q 633 1224 574 1224 q 721 1214 686 1224 q 556 1019 642 1132 z "},"Õ":{"ha":1046,"x_min":49,"x_max":997,"o":"m 522 -12 q 271 49 378 -12 q 106 220 164 110 q 49 474 49 331 q 110 725 49 617 q 278 892 171 833 q 522 951 386 951 q 772 894 664 951 q 938 731 879 836 q 997 486 997 625 q 938 228 997 342 q 772 51 879 114 q 522 -12 664 -12 m 542 86 q 694 187 639 86 q 749 456 749 288 q 718 658 749 567 q 631 803 688 750 q 501 857 575 857 q 352 765 407 857 q 297 508 297 672 q 360 207 297 328 q 542 86 424 86 m 594 1025 q 538 1034 561 1025 q 482 1060 514 1043 q 440 1082 458 1075 q 400 1089 422 1089 q 294 1029 343 1089 q 251 1118 253 1067 q 340 1195 289 1171 q 440 1219 392 1219 q 495 1211 471 1219 q 554 1186 519 1203 q 599 1167 581 1174 q 638 1160 618 1160 q 719 1210 685 1160 q 796 1169 768 1201 q 710 1063 761 1100 q 594 1025 658 1025 z "},"Ṍ":{"ha":1046,"x_min":49,"x_max":997,"o":"m 522 -12 q 271 49 378 -12 q 106 220 164 110 q 49 474 49 331 q 110 725 49 617 q 278 892 171 833 q 522 951 386 951 q 772 894 664 951 q 938 731 879 836 q 997 486 997 625 q 938 228 997 342 q 772 51 879 114 q 522 -12 664 -12 m 542 86 q 694 187 639 86 q 749 456 749 288 q 718 658 749 567 q 631 803 688 750 q 501 857 575 857 q 352 765 407 857 q 297 508 297 672 q 360 207 297 328 q 542 86 424 86 m 594 1025 q 538 1034 561 1025 q 482 1060 514 1043 q 440 1082 458 1075 q 400 1089 422 1089 q 294 1029 343 1089 q 251 1118 253 1067 q 340 1195 289 1171 q 440 1219 392 1219 q 495 1211 471 1219 q 554 1186 519 1203 q 599 1167 581 1174 q 638 1160 618 1160 q 719 1210 685 1160 q 796 1169 768 1201 q 710 1063 761 1100 q 594 1025 658 1025 m 556 1282 q 436 1303 488 1282 q 519 1474 488 1392 q 633 1486 574 1486 q 721 1476 686 1486 q 556 1282 642 1394 z "},"Ṏ":{"ha":1046,"x_min":49,"x_max":997,"o":"m 522 -12 q 271 49 378 -12 q 106 220 164 110 q 49 474 49 331 q 110 725 49 617 q 278 892 171 833 q 522 951 386 951 q 772 894 664 951 q 938 731 879 836 q 997 486 997 625 q 938 228 997 342 q 772 51 879 114 q 522 -12 664 -12 m 542 86 q 694 187 639 86 q 749 456 749 288 q 718 658 749 567 q 631 803 688 750 q 501 857 575 857 q 352 765 407 857 q 297 508 297 672 q 360 207 297 328 q 542 86 424 86 m 594 1025 q 538 1034 561 1025 q 482 1060 514 1043 q 440 1082 458 1075 q 400 1089 422 1089 q 294 1029 343 1089 q 251 1118 253 1067 q 340 1195 289 1171 q 440 1219 392 1219 q 495 1211 471 1219 q 554 1186 519 1203 q 599 1167 581 1174 q 638 1160 618 1160 q 719 1210 685 1160 q 796 1169 768 1201 q 710 1063 761 1100 q 594 1025 658 1025 z "},"Ȭ":{"ha":1046,"x_min":49,"x_max":997,"o":"m 522 -12 q 271 49 378 -12 q 106 220 164 110 q 49 474 49 331 q 110 725 49 617 q 278 892 171 833 q 522 951 386 951 q 772 894 664 951 q 938 731 879 836 q 997 486 997 625 q 938 228 997 342 q 772 51 879 114 q 522 -12 664 -12 m 542 86 q 694 187 639 86 q 749 456 749 288 q 718 658 749 567 q 631 803 688 750 q 501 857 575 857 q 352 765 407 857 q 297 508 297 672 q 360 207 297 328 q 542 86 424 86 m 594 1025 q 538 1034 561 1025 q 482 1060 514 1043 q 440 1082 458 1075 q 400 1089 422 1089 q 294 1029 343 1089 q 251 1118 253 1067 q 340 1195 289 1171 q 440 1219 392 1219 q 495 1211 471 1219 q 554 1186 519 1203 q 599 1167 581 1174 q 638 1160 618 1160 q 719 1210 685 1160 q 796 1169 768 1201 q 710 1063 761 1100 q 594 1025 658 1025 m 792 1404 q 779 1322 792 1367 q 256 1307 485 1322 q 268 1404 256 1371 l 792 1404 z "},"Œ":{"ha":1403,"x_min":49,"x_max":1372,"o":"m 511 950 q 608 949 565 950 q 683 946 651 947 q 938 939 806 939 q 1301 943 1181 939 q 1312 816 1304 883 q 1331 704 1319 749 q 1211 681 1279 681 q 1156 807 1199 764 q 1008 850 1113 850 l 813 850 q 957 508 950 740 l 972 508 q 1060 531 1036 508 q 1085 611 1083 554 q 1193 625 1124 625 q 1189 465 1189 567 q 1193 301 1189 360 q 1088 314 1125 301 q 1058 394 1082 372 q 967 417 1033 417 l 954 417 q 906 231 944 314 q 803 93 868 149 l 1056 93 q 1181 136 1139 93 q 1251 279 1224 179 q 1324 262 1292 274 q 1372 235 1357 250 q 1329 -3 1344 150 q 951 0 1182 0 q 706 -7 883 0 q 510 -12 578 -12 q 261 47 365 -12 q 103 216 157 107 q 49 471 49 325 q 106 725 49 617 q 267 892 163 833 q 511 950 372 950 m 493 856 q 345 763 397 856 q 293 503 293 671 q 352 202 293 318 q 526 86 411 86 q 669 185 618 86 q 719 460 719 283 q 691 665 719 575 q 611 806 663 756 q 493 856 560 856 z "},"P":{"ha":922,"x_min":51,"x_max":874,"o":"m 488 411 q 586 460 546 411 q 626 615 626 510 q 583 783 626 721 q 453 844 540 844 q 394 835 424 844 l 394 256 q 425 132 394 167 q 538 92 456 97 q 549 -4 549 61 q 306 0 474 0 q 51 -4 138 0 q 60 92 51 64 q 119 106 99 94 q 147 148 139 118 q 154 239 154 178 l 154 703 q 147 791 154 763 q 122 831 140 819 q 63 847 103 842 q 51 943 51 888 q 268 939 176 939 l 426 940 q 517 942 465 942 q 792 866 711 942 q 874 657 874 790 q 833 479 874 557 q 716 357 793 401 q 532 313 639 313 q 438 326 474 313 q 435 360 435 338 q 446 415 435 390 q 488 411 469 411 z "},"Þ":{"ha":917,"x_min":51,"x_max":868,"o":"m 499 304 q 597 346 557 304 q 638 476 638 388 q 594 609 638 558 q 468 660 550 660 q 394 649 424 660 l 394 256 q 425 132 394 167 q 538 92 456 97 q 549 -4 549 61 q 303 0 474 0 q 51 -4 147 0 q 63 92 51 44 q 120 106 101 94 q 147 148 139 118 q 154 239 154 178 l 154 703 q 147 791 154 763 q 122 831 140 819 q 63 847 103 842 q 51 943 51 888 q 279 939 122 939 q 497 943 414 939 q 486 847 497 882 q 418 825 436 843 q 396 753 400 807 q 563 756 490 756 q 794 683 719 756 q 868 497 868 611 q 828 349 868 415 q 715 246 789 283 q 543 208 642 208 q 446 219 479 208 q 443 249 443 239 q 456 306 443 283 q 480 303 467 303 q 499 304 493 304 z "},"Q":{"ha":1046,"x_min":49,"x_max":1088,"o":"m 1085 -124 q 1072 -225 1088 -176 q 838 -292 950 -240 q 762 -242 790 -274 q 696 -153 733 -211 q 621 -55 656 -89 q 524 -12 586 -21 l 522 -12 q 271 49 378 -12 q 106 220 164 110 q 49 474 49 331 q 110 725 49 617 q 278 892 171 833 q 522 951 386 951 q 772 894 664 951 q 938 731 879 836 q 997 486 997 625 q 922 199 997 321 q 714 24 847 76 q 781 -6 753 10 q 853 -50 810 -22 q 963 -110 915 -92 q 1085 -124 1010 -128 m 297 508 q 360 207 297 328 q 542 86 424 86 q 694 187 639 86 q 749 456 749 288 q 718 658 749 567 q 631 803 688 750 q 501 857 575 857 q 352 765 407 857 q 297 508 297 672 z "},"R":{"ha":985,"x_min":51,"x_max":965,"o":"m 838 199 q 893 119 869 139 q 965 96 917 99 q 953 0 965 44 q 665 -12 740 0 q 603 129 638 44 q 575 196 594 151 q 521 307 546 268 q 457 378 496 346 l 426 376 l 394 378 l 394 249 q 401 148 394 181 q 423 104 408 115 q 468 92 438 93 q 476 -4 476 69 q 254 0 396 0 q 51 -4 139 0 q 61 92 51 58 q 119 106 100 94 q 147 148 139 118 q 154 239 154 178 l 154 704 q 147 792 154 764 q 120 833 139 821 q 60 849 101 844 q 51 943 51 881 q 271 939 197 939 q 369 942 292 939 q 544 944 472 944 q 795 874 711 944 q 879 690 879 803 q 824 508 879 579 q 674 411 768 436 q 752 345 722 385 q 838 199 782 306 m 440 474 q 574 522 519 474 q 629 663 629 571 q 586 801 629 751 q 464 850 543 850 q 394 840 425 850 l 394 478 q 440 474 426 474 z "},"Ŕ":{"ha":985,"x_min":51,"x_max":965,"o":"m 838 199 q 893 119 869 139 q 965 96 917 99 q 953 0 965 44 q 665 -12 740 0 q 603 129 638 44 q 575 196 594 151 q 521 307 546 268 q 457 378 496 346 l 426 376 l 394 378 l 394 249 q 401 148 394 181 q 423 104 408 115 q 468 92 438 93 q 476 -4 476 69 q 254 0 396 0 q 51 -4 139 0 q 61 92 51 58 q 119 106 100 94 q 147 148 139 118 q 154 239 154 178 l 154 704 q 147 792 154 764 q 120 833 139 821 q 60 849 101 844 q 51 943 51 881 q 271 939 197 939 q 369 942 292 939 q 544 944 472 944 q 795 874 711 944 q 879 690 879 803 q 824 508 879 579 q 674 411 768 436 q 752 345 722 385 q 838 199 782 306 m 440 474 q 574 522 519 474 q 629 663 629 571 q 586 801 629 751 q 464 850 543 850 q 394 840 425 850 l 394 478 q 440 474 426 474 m 492 1019 q 372 1040 424 1019 q 456 1211 424 1129 q 569 1224 510 1224 q 657 1214 622 1224 q 492 1019 578 1132 z "},"Ř":{"ha":985,"x_min":51,"x_max":965,"o":"m 838 199 q 893 119 869 139 q 965 96 917 99 q 953 0 965 44 q 665 -12 740 0 q 603 129 638 44 q 575 196 594 151 q 521 307 546 268 q 457 378 496 346 l 426 376 l 394 378 l 394 249 q 401 148 394 181 q 423 104 408 115 q 468 92 438 93 q 476 -4 476 69 q 254 0 396 0 q 51 -4 139 0 q 61 92 51 58 q 119 106 100 94 q 147 148 139 118 q 154 239 154 178 l 154 704 q 147 792 154 764 q 120 833 139 821 q 60 849 101 844 q 51 943 51 881 q 271 939 197 939 q 369 942 292 939 q 544 944 472 944 q 795 874 711 944 q 879 690 879 803 q 824 508 879 579 q 674 411 768 436 q 752 345 722 385 q 838 199 782 306 m 440 474 q 574 522 519 474 q 629 663 629 571 q 586 801 629 751 q 464 850 543 850 q 394 840 425 850 l 394 478 q 440 474 426 474 m 383 1010 q 189 1169 318 1079 q 299 1236 229 1222 q 461 1153 361 1196 q 527 1183 469 1157 q 621 1233 585 1210 q 667 1210 647 1229 q 696 1167 688 1190 q 489 1022 568 1092 q 383 1010 453 1010 z "},"Ŗ":{"ha":985,"x_min":51,"x_max":965,"o":"m 838 199 q 893 119 869 139 q 965 96 917 99 q 953 0 965 44 q 665 -12 740 0 q 603 129 638 44 q 575 196 594 151 q 521 307 546 268 q 457 378 496 346 l 426 376 l 394 378 l 394 249 q 401 148 394 181 q 423 104 408 115 q 468 92 438 93 q 476 -4 476 69 q 254 0 396 0 q 51 -4 139 0 q 61 92 51 58 q 119 106 100 94 q 147 148 139 118 q 154 239 154 178 l 154 704 q 147 792 154 764 q 120 833 139 821 q 60 849 101 844 q 51 943 51 881 q 271 939 197 939 q 369 942 292 939 q 544 944 472 944 q 795 874 711 944 q 879 690 879 803 q 824 508 879 579 q 674 411 768 436 q 752 345 722 385 q 838 199 782 306 m 440 474 q 574 522 519 474 q 629 663 629 571 q 586 801 629 751 q 464 850 543 850 q 394 840 425 850 l 394 478 q 440 474 426 474 m 588 -54 q 640 -90 624 -64 q 656 -164 656 -115 q 501 -425 656 -318 q 450 -417 474 -426 q 413 -390 426 -408 q 472 -331 451 -361 q 492 -274 492 -300 q 472 -235 492 -249 q 410 -217 451 -222 q 429 -96 406 -150 q 588 -54 529 -92 z "},"Ȑ":{"ha":985,"x_min":51,"x_max":965,"o":"m 838 199 q 893 119 869 139 q 965 96 917 99 q 953 0 965 44 q 665 -12 740 0 q 603 129 638 44 q 575 196 594 151 q 521 307 546 268 q 457 378 496 346 l 426 376 l 394 378 l 394 249 q 401 148 394 181 q 423 104 408 115 q 468 92 438 93 q 476 -4 476 69 q 254 0 396 0 q 51 -4 139 0 q 61 92 51 58 q 119 106 100 94 q 147 148 139 118 q 154 239 154 178 l 154 704 q 147 792 154 764 q 120 833 139 821 q 60 849 101 844 q 51 943 51 881 q 271 939 197 939 q 369 942 292 939 q 544 944 472 944 q 795 874 711 944 q 879 690 879 803 q 824 508 879 579 q 674 411 768 436 q 752 345 722 385 q 838 199 782 306 m 440 474 q 574 522 519 474 q 629 663 629 571 q 586 801 629 751 q 464 850 543 850 q 394 840 425 850 l 394 478 q 440 474 426 474 m 294 996 q 140 1167 211 1096 q 223 1191 174 1183 q 321 1197 272 1199 q 414 1015 357 1103 q 294 996 360 996 m 554 996 q 411 1171 469 1107 q 490 1192 443 1185 q 581 1197 536 1199 q 674 1015 617 1103 q 554 996 619 996 z "},"Ṛ":{"ha":985,"x_min":51,"x_max":965,"o":"m 838 199 q 893 119 869 139 q 965 96 917 99 q 953 0 965 44 q 665 -12 740 0 q 603 129 638 44 q 575 196 594 151 q 521 307 546 268 q 457 378 496 346 l 426 376 l 394 378 l 394 249 q 401 148 394 181 q 423 104 408 115 q 468 92 438 93 q 476 -4 476 69 q 254 0 396 0 q 51 -4 139 0 q 61 92 51 58 q 119 106 100 94 q 147 148 139 118 q 154 239 154 178 l 154 704 q 147 792 154 764 q 120 833 139 821 q 60 849 101 844 q 51 943 51 881 q 271 939 197 939 q 369 942 292 939 q 544 944 472 944 q 795 874 711 944 q 879 690 879 803 q 824 508 879 579 q 674 411 768 436 q 752 345 722 385 q 838 199 782 306 m 440 474 q 574 522 519 474 q 629 663 629 571 q 586 801 629 751 q 464 850 543 850 q 394 840 425 850 l 394 478 q 440 474 426 474 m 528 -318 q 435 -290 469 -318 q 401 -214 401 -261 q 438 -130 401 -160 q 535 -100 475 -100 q 633 -129 599 -100 q 668 -212 668 -158 q 630 -288 668 -258 q 528 -318 592 -318 z "},"Ȓ":{"ha":985,"x_min":51,"x_max":965,"o":"m 838 199 q 893 119 869 139 q 965 96 917 99 q 953 0 965 44 q 665 -12 740 0 q 603 129 638 44 q 575 196 594 151 q 521 307 546 268 q 457 378 496 346 l 426 376 l 394 378 l 394 249 q 401 148 394 181 q 423 104 408 115 q 468 92 438 93 q 476 -4 476 69 q 254 0 396 0 q 51 -4 139 0 q 61 92 51 58 q 119 106 100 94 q 147 148 139 118 q 154 239 154 178 l 154 704 q 147 792 154 764 q 120 833 139 821 q 60 849 101 844 q 51 943 51 881 q 271 939 197 939 q 369 942 292 939 q 544 944 472 944 q 795 874 711 944 q 879 690 879 803 q 824 508 879 579 q 674 411 768 436 q 752 345 722 385 q 838 199 782 306 m 440 474 q 574 522 519 474 q 629 663 629 571 q 586 801 629 751 q 464 850 543 850 q 394 840 425 850 l 394 478 q 440 474 426 474 m 218 1017 q 280 1167 218 1117 q 461 1218 342 1218 q 640 1169 579 1218 q 700 1022 700 1119 q 611 1006 657 1006 q 576 1008 599 1006 q 535 1067 569 1047 q 444 1088 501 1088 q 358 1067 390 1088 q 325 1008 326 1046 q 286 1004 307 1004 q 218 1017 256 1004 z "},"Ṟ":{"ha":985,"x_min":51,"x_max":965,"o":"m 838 199 q 893 119 869 139 q 965 96 917 99 q 953 0 965 44 q 665 -12 740 0 q 603 129 638 44 q 575 196 594 151 q 521 307 546 268 q 457 378 496 346 l 426 376 l 394 378 l 394 249 q 401 148 394 181 q 423 104 408 115 q 468 92 438 93 q 476 -4 476 69 q 254 0 396 0 q 51 -4 139 0 q 61 92 51 58 q 119 106 100 94 q 147 148 139 118 q 154 239 154 178 l 154 704 q 147 792 154 764 q 120 833 139 821 q 60 849 101 844 q 51 943 51 881 q 271 939 197 939 q 369 942 292 939 q 544 944 472 944 q 795 874 711 944 q 879 690 879 803 q 824 508 879 579 q 674 411 768 436 q 752 345 722 385 q 838 199 782 306 m 440 474 q 574 522 519 474 q 629 663 629 571 q 586 801 629 751 q 464 850 543 850 q 394 840 425 850 l 394 478 q 440 474 426 474 m 272 -221 q 285 -135 272 -165 l 799 -135 q 786 -210 799 -176 q 272 -221 504 -210 z "},"S":{"ha":779,"x_min":53,"x_max":740,"o":"m 379 -12 q 53 69 208 -12 q 71 294 71 157 q 217 310 126 310 q 238 177 222 224 q 288 110 254 131 q 379 89 321 89 q 488 119 451 89 q 524 196 524 150 q 483 274 524 243 q 354 344 442 304 q 209 422 265 386 q 113 519 153 457 q 72 674 72 582 q 163 882 72 813 q 396 951 253 951 q 551 933 472 951 q 669 890 629 915 q 678 688 669 740 q 616 667 656 674 q 539 660 576 660 q 484 810 522 768 q 382 853 446 853 q 295 828 328 853 q 263 758 263 804 q 287 692 263 721 q 348 642 311 664 q 450 592 385 621 q 600 514 542 550 q 699 418 658 478 q 740 269 740 358 q 647 64 740 140 q 379 -12 553 -12 z "},"Ś":{"ha":779,"x_min":53,"x_max":740,"o":"m 379 -12 q 53 69 208 -12 q 71 294 71 157 q 217 310 126 310 q 238 177 222 224 q 288 110 254 131 q 379 89 321 89 q 488 119 451 89 q 524 196 524 150 q 483 274 524 243 q 354 344 442 304 q 209 422 265 386 q 113 519 153 457 q 72 674 72 582 q 163 882 72 813 q 396 951 253 951 q 551 933 472 951 q 669 890 629 915 q 678 688 669 740 q 616 667 656 674 q 539 660 576 660 q 484 810 522 768 q 382 853 446 853 q 295 828 328 853 q 263 758 263 804 q 287 692 263 721 q 348 642 311 664 q 450 592 385 621 q 600 514 542 550 q 699 418 658 478 q 740 269 740 358 q 647 64 740 140 q 379 -12 553 -12 m 431 1019 q 311 1040 363 1019 q 394 1211 363 1129 q 508 1224 449 1224 q 596 1214 561 1224 q 431 1019 517 1132 z "},"Ṥ":{"ha":779,"x_min":53,"x_max":740,"o":"m 379 -12 q 53 69 208 -12 q 71 294 71 157 q 217 310 126 310 q 238 177 222 224 q 288 110 254 131 q 379 89 321 89 q 488 119 451 89 q 524 196 524 150 q 483 274 524 243 q 354 344 442 304 q 209 422 265 386 q 113 519 153 457 q 72 674 72 582 q 163 882 72 813 q 396 951 253 951 q 551 933 472 951 q 669 890 629 915 q 678 688 669 740 q 616 667 656 674 q 539 660 576 660 q 484 810 522 768 q 382 853 446 853 q 295 828 328 853 q 263 758 263 804 q 287 692 263 721 q 348 642 311 664 q 450 592 385 621 q 600 514 542 550 q 699 418 658 478 q 740 269 740 358 q 647 64 740 140 q 379 -12 553 -12 m 431 1019 q 311 1040 363 1019 q 394 1211 363 1129 q 508 1224 449 1224 q 596 1214 561 1224 q 431 1019 517 1132 z "},"Š":{"ha":779,"x_min":53,"x_max":740,"o":"m 379 -12 q 53 69 208 -12 q 71 294 71 157 q 217 310 126 310 q 238 177 222 224 q 288 110 254 131 q 379 89 321 89 q 488 119 451 89 q 524 196 524 150 q 483 274 524 243 q 354 344 442 304 q 209 422 265 386 q 113 519 153 457 q 72 674 72 582 q 163 882 72 813 q 396 951 253 951 q 551 933 472 951 q 669 890 629 915 q 678 688 669 740 q 616 667 656 674 q 539 660 576 660 q 484 810 522 768 q 382 853 446 853 q 295 828 328 853 q 263 758 263 804 q 287 692 263 721 q 348 642 311 664 q 450 592 385 621 q 600 514 542 550 q 699 418 658 478 q 740 269 740 358 q 647 64 740 140 q 379 -12 553 -12 m 324 1010 q 129 1169 258 1079 q 239 1236 169 1222 q 401 1153 301 1196 q 467 1183 410 1157 q 561 1233 525 1210 q 608 1210 588 1229 q 636 1167 628 1190 q 429 1022 508 1092 q 324 1010 393 1010 z "},"Ṧ":{"ha":779,"x_min":53,"x_max":740,"o":"m 379 -12 q 53 69 208 -12 q 71 294 71 157 q 217 310 126 310 q 238 177 222 224 q 288 110 254 131 q 379 89 321 89 q 488 119 451 89 q 524 196 524 150 q 483 274 524 243 q 354 344 442 304 q 209 422 265 386 q 113 519 153 457 q 72 674 72 582 q 163 882 72 813 q 396 951 253 951 q 551 933 472 951 q 669 890 629 915 q 678 688 669 740 q 616 667 656 674 q 539 660 576 660 q 484 810 522 768 q 382 853 446 853 q 295 828 328 853 q 263 758 263 804 q 287 692 263 721 q 348 642 311 664 q 450 592 385 621 q 600 514 542 550 q 699 418 658 478 q 740 269 740 358 q 647 64 740 140 q 379 -12 553 -12 m 324 1010 q 129 1169 258 1079 q 239 1236 169 1222 q 401 1153 301 1196 q 467 1183 410 1157 q 561 1233 525 1210 q 608 1210 588 1229 q 636 1167 628 1190 q 429 1022 508 1092 q 324 1010 393 1010 z "},"Ş":{"ha":779,"x_min":53,"x_max":740,"o":"m 740 269 q 661 76 740 151 q 433 -10 582 1 l 394 -62 q 485 -108 453 -72 q 518 -193 518 -144 q 456 -299 518 -261 q 290 -336 394 -336 q 279 -272 279 -312 q 356 -255 325 -272 q 388 -207 388 -237 q 364 -166 388 -182 q 304 -150 340 -150 q 279 -87 279 -122 l 338 -11 q 53 69 189 -3 q 71 294 71 157 q 217 310 126 310 q 238 177 222 224 q 288 110 254 131 q 379 89 321 89 q 488 119 451 89 q 524 196 524 150 q 483 274 524 243 q 354 344 442 304 q 209 422 265 386 q 113 519 153 457 q 72 674 72 582 q 163 882 72 813 q 396 951 253 951 q 551 933 472 951 q 669 890 629 915 q 678 688 669 740 q 616 667 656 674 q 539 660 576 660 q 484 810 522 768 q 382 853 446 853 q 295 828 328 853 q 263 758 263 804 q 287 692 263 721 q 348 642 311 664 q 450 592 385 621 q 600 514 542 550 q 699 418 658 478 q 740 269 740 358 z "},"Ŝ":{"ha":779,"x_min":53,"x_max":740,"o":"m 379 -12 q 53 69 208 -12 q 71 294 71 157 q 217 310 126 310 q 238 177 222 224 q 288 110 254 131 q 379 89 321 89 q 488 119 451 89 q 524 196 524 150 q 483 274 524 243 q 354 344 442 304 q 209 422 265 386 q 113 519 153 457 q 72 674 72 582 q 163 882 72 813 q 396 951 253 951 q 551 933 472 951 q 669 890 629 915 q 678 688 669 740 q 616 667 656 674 q 539 660 576 660 q 484 810 522 768 q 382 853 446 853 q 295 828 328 853 q 263 758 263 804 q 287 692 263 721 q 348 642 311 664 q 450 592 385 621 q 600 514 542 550 q 699 418 658 478 q 740 269 740 358 q 647 64 740 140 q 379 -12 553 -12 m 219 1011 q 172 1036 192 1017 q 144 1078 151 1056 q 350 1224 285 1164 q 456 1236 393 1236 q 651 1075 532 1157 q 604 1033 629 1049 q 542 1010 579 1017 q 378 1093 467 1056 l 331 1071 q 279 1044 317 1064 q 219 1011 242 1025 z "},"Ș":{"ha":779,"x_min":53,"x_max":740,"o":"m 379 -12 q 53 69 208 -12 q 71 294 71 157 q 217 310 126 310 q 238 177 222 224 q 288 110 254 131 q 379 89 321 89 q 488 119 451 89 q 524 196 524 150 q 483 274 524 243 q 354 344 442 304 q 209 422 265 386 q 113 519 153 457 q 72 674 72 582 q 163 882 72 813 q 396 951 253 951 q 551 933 472 951 q 669 890 629 915 q 678 688 669 740 q 616 667 656 674 q 539 660 576 660 q 484 810 522 768 q 382 853 446 853 q 295 828 328 853 q 263 758 263 804 q 287 692 263 721 q 348 642 311 664 q 450 592 385 621 q 600 514 542 550 q 699 418 658 478 q 740 269 740 358 q 647 64 740 140 q 379 -12 553 -12 m 450 -54 q 502 -90 486 -64 q 518 -164 518 -115 q 364 -425 518 -318 q 313 -417 336 -426 q 275 -390 289 -408 q 334 -331 314 -361 q 354 -274 354 -300 q 334 -235 354 -249 q 272 -217 314 -222 q 292 -96 268 -150 q 450 -54 392 -92 z "},"Ṡ":{"ha":779,"x_min":53,"x_max":740,"o":"m 379 -12 q 53 69 208 -12 q 71 294 71 157 q 217 310 126 310 q 238 177 222 224 q 288 110 254 131 q 379 89 321 89 q 488 119 451 89 q 524 196 524 150 q 483 274 524 243 q 354 344 442 304 q 209 422 265 386 q 113 519 153 457 q 72 674 72 582 q 163 882 72 813 q 396 951 253 951 q 551 933 472 951 q 669 890 629 915 q 678 688 669 740 q 616 667 656 674 q 539 660 576 660 q 484 810 522 768 q 382 853 446 853 q 295 828 328 853 q 263 758 263 804 q 287 692 263 721 q 348 642 311 664 q 450 592 385 621 q 600 514 542 550 q 699 418 658 478 q 740 269 740 358 q 647 64 740 140 q 379 -12 553 -12 z "},"Ṣ":{"ha":779,"x_min":53,"x_max":740,"o":"m 379 -12 q 53 69 208 -12 q 71 294 71 157 q 217 310 126 310 q 238 177 222 224 q 288 110 254 131 q 379 89 321 89 q 488 119 451 89 q 524 196 524 150 q 483 274 524 243 q 354 344 442 304 q 209 422 265 386 q 113 519 153 457 q 72 674 72 582 q 163 882 72 813 q 396 951 253 951 q 551 933 472 951 q 669 890 629 915 q 678 688 669 740 q 616 667 656 674 q 539 660 576 660 q 484 810 522 768 q 382 853 446 853 q 295 828 328 853 q 263 758 263 804 q 287 692 263 721 q 348 642 311 664 q 450 592 385 621 q 600 514 542 550 q 699 418 658 478 q 740 269 740 358 q 647 64 740 140 q 379 -12 553 -12 m 390 -318 q 298 -290 332 -318 q 264 -214 264 -261 q 301 -130 264 -160 q 397 -100 338 -100 q 496 -129 461 -100 q 531 -212 531 -158 q 492 -288 531 -258 q 390 -318 454 -318 z "},"Ṩ":{"ha":779,"x_min":53,"x_max":740,"o":"m 379 -12 q 53 69 208 -12 q 71 294 71 157 q 217 310 126 310 q 238 177 222 224 q 288 110 254 131 q 379 89 321 89 q 488 119 451 89 q 524 196 524 150 q 483 274 524 243 q 354 344 442 304 q 209 422 265 386 q 113 519 153 457 q 72 674 72 582 q 163 882 72 813 q 396 951 253 951 q 551 933 472 951 q 669 890 629 915 q 678 688 669 740 q 616 667 656 674 q 539 660 576 660 q 484 810 522 768 q 382 853 446 853 q 295 828 328 853 q 263 758 263 804 q 287 692 263 721 q 348 642 311 664 q 450 592 385 621 q 600 514 542 550 q 699 418 658 478 q 740 269 740 358 q 647 64 740 140 q 379 -12 553 -12 m 390 -318 q 298 -290 332 -318 q 264 -214 264 -261 q 301 -130 264 -160 q 397 -100 338 -100 q 496 -129 461 -100 q 531 -212 531 -158 q 492 -288 531 -258 q 390 -318 454 -318 z "},"ẞ":{"ha":1057,"x_min":36,"x_max":1018,"o":"m 778 546 q 954 450 890 518 q 1018 269 1018 382 q 929 62 1018 136 q 676 -12 840 -12 q 544 3 597 -12 q 450 49 492 19 q 467 247 467 125 q 601 264 518 264 q 613 158 603 194 q 640 106 622 121 q 689 92 658 92 q 763 127 733 92 q 793 239 793 163 q 731 398 793 343 q 544 464 668 453 q 525 513 533 482 q 517 567 517 544 q 696 842 607 675 q 626 844 643 844 q 533 849 575 849 q 444 828 476 849 q 395 752 411 808 q 379 586 379 696 l 379 -3 q 243 0 321 0 q 36 -4 135 0 q 47 92 36 44 q 105 107 86 94 q 131 151 124 119 q 139 251 139 183 l 139 576 q 244 863 139 781 q 540 946 350 946 q 624 943 571 946 q 738 939 669 939 q 931 946 832 939 q 950 897 942 929 q 958 839 958 864 q 778 546 888 697 z "},"Ə":{"ha":953,"x_min":49,"x_max":904,"o":"m 414 951 q 786 823 668 951 q 904 489 904 694 q 849 230 904 343 q 690 53 793 117 q 447 -10 586 -10 q 153 112 250 -10 q 49 426 57 233 q 89 501 57 475 l 654 501 q 583 762 646 667 q 383 857 521 857 q 290 837 324 857 q 239 776 256 817 q 214 663 222 735 q 188 661 206 661 q 94 682 133 661 q 100 785 100 728 q 93 888 100 844 q 241 935 157 919 q 414 951 325 951 m 467 85 q 599 158 547 85 q 656 403 650 231 q 285 408 478 408 q 331 168 285 251 q 467 85 376 85 z "},"T":{"ha":951,"x_min":35,"x_max":917,"o":"m 889 943 q 917 690 889 821 q 790 669 867 669 q 740 804 775 763 q 633 846 706 846 l 594 846 l 594 239 q 604 147 594 176 q 640 106 614 118 q 724 92 667 94 q 735 -4 735 63 q 488 0 656 0 q 201 -4 292 0 q 206 46 201 18 q 217 92 210 74 q 302 106 274 94 q 342 148 331 118 q 354 239 354 178 l 354 846 l 333 846 q 218 804 256 846 q 158 669 181 763 q 35 689 74 669 q 58 817 49 746 q 67 943 67 889 q 481 939 174 939 q 889 943 731 939 z "},"Ŧ":{"ha":951,"x_min":35,"x_max":917,"o":"m 594 846 l 594 533 l 764 533 q 746 424 764 468 q 594 425 682 425 l 594 239 q 604 147 594 176 q 640 106 614 118 q 724 92 667 94 q 735 -4 735 63 q 488 0 656 0 q 201 -4 292 0 q 206 46 201 18 q 217 92 210 74 q 302 106 274 94 q 342 148 331 118 q 354 239 354 178 l 354 424 l 231 422 q 192 421 218 421 q 208 533 192 488 l 354 533 l 354 846 l 333 846 q 218 804 256 846 q 158 669 181 763 q 35 689 74 669 q 58 817 49 746 q 67 943 67 889 q 481 939 174 939 q 889 943 731 939 q 917 690 889 821 q 790 669 867 669 q 740 804 775 763 q 633 846 706 846 l 594 846 z "},"Ť":{"ha":951,"x_min":35,"x_max":917,"o":"m 889 943 q 917 690 889 821 q 790 669 867 669 q 740 804 775 763 q 633 846 706 846 l 594 846 l 594 239 q 604 147 594 176 q 640 106 614 118 q 724 92 667 94 q 735 -4 735 63 q 488 0 656 0 q 201 -4 292 0 q 206 46 201 18 q 217 92 210 74 q 302 106 274 94 q 342 148 331 118 q 354 239 354 178 l 354 846 l 333 846 q 218 804 256 846 q 158 669 181 763 q 35 689 74 669 q 58 817 49 746 q 67 943 67 889 q 481 939 174 939 q 889 943 731 939 m 403 1010 q 208 1169 338 1079 q 318 1236 249 1222 q 481 1153 381 1196 q 547 1183 489 1157 q 640 1233 604 1210 q 687 1210 667 1229 q 715 1167 707 1190 q 508 1022 588 1092 q 403 1010 472 1010 z "},"Ţ":{"ha":951,"x_min":35,"x_max":917,"o":"m 889 943 q 917 690 889 821 q 790 669 867 669 q 740 804 775 763 q 633 846 706 846 l 594 846 l 594 239 q 604 147 594 176 q 640 106 614 118 q 724 92 667 94 q 735 -4 735 63 q 513 0 663 0 l 465 -62 q 556 -108 524 -72 q 589 -193 589 -144 q 527 -299 589 -261 q 361 -336 465 -336 q 349 -272 349 -312 q 426 -255 394 -272 q 458 -207 458 -237 q 435 -166 458 -182 q 375 -150 411 -150 q 350 -87 350 -122 l 418 0 q 201 -4 272 0 q 206 46 201 18 q 217 92 210 74 q 302 106 274 94 q 342 148 331 118 q 354 239 354 178 l 354 846 l 333 846 q 218 804 256 846 q 158 669 181 763 q 35 689 74 669 q 58 817 49 746 q 67 943 67 889 q 481 939 174 939 q 889 943 731 939 z "},"Ț":{"ha":951,"x_min":35,"x_max":917,"o":"m 889 943 q 917 690 889 821 q 790 669 867 669 q 740 804 775 763 q 633 846 706 846 l 594 846 l 594 239 q 604 147 594 176 q 640 106 614 118 q 724 92 667 94 q 735 -4 735 63 q 488 0 656 0 q 201 -4 292 0 q 206 46 201 18 q 217 92 210 74 q 302 106 274 94 q 342 148 331 118 q 354 239 354 178 l 354 846 l 333 846 q 218 804 256 846 q 158 669 181 763 q 35 689 74 669 q 58 817 49 746 q 67 943 67 889 q 481 939 174 939 q 889 943 731 939 m 521 -54 q 573 -90 557 -64 q 589 -164 589 -115 q 435 -425 589 -318 q 383 -417 407 -426 q 346 -390 360 -408 q 405 -331 385 -361 q 425 -274 425 -300 q 405 -235 425 -249 q 343 -217 385 -222 q 363 -96 339 -150 q 521 -54 463 -92 z "},"Ṭ":{"ha":951,"x_min":35,"x_max":917,"o":"m 889 943 q 917 690 889 821 q 790 669 867 669 q 740 804 775 763 q 633 846 706 846 l 594 846 l 594 239 q 604 147 594 176 q 640 106 614 118 q 724 92 667 94 q 735 -4 735 63 q 488 0 656 0 q 201 -4 292 0 q 206 46 201 18 q 217 92 210 74 q 302 106 274 94 q 342 148 331 118 q 354 239 354 178 l 354 846 l 333 846 q 218 804 256 846 q 158 669 181 763 q 35 689 74 669 q 58 817 49 746 q 67 943 67 889 q 481 939 174 939 q 889 943 731 939 m 461 -318 q 369 -290 403 -318 q 335 -214 335 -261 q 372 -130 335 -160 q 468 -100 408 -100 q 567 -129 532 -100 q 601 -212 601 -158 q 563 -288 601 -258 q 461 -318 525 -318 z "},"Ṯ":{"ha":951,"x_min":35,"x_max":917,"o":"m 889 943 q 917 690 889 821 q 790 669 867 669 q 740 804 775 763 q 633 846 706 846 l 594 846 l 594 239 q 604 147 594 176 q 640 106 614 118 q 724 92 667 94 q 735 -4 735 63 q 488 0 656 0 q 201 -4 292 0 q 206 46 201 18 q 217 92 210 74 q 302 106 274 94 q 342 148 331 118 q 354 239 354 178 l 354 846 l 333 846 q 218 804 256 846 q 158 669 181 763 q 35 689 74 669 q 58 817 49 746 q 67 943 67 889 q 481 939 174 939 q 889 943 731 939 m 206 -221 q 218 -135 206 -165 l 732 -135 q 719 -210 732 -176 q 206 -221 438 -210 z "},"U":{"ha":960,"x_min":36,"x_max":915,"o":"m 818 382 q 801 182 818 256 q 736 63 783 108 q 496 -12 657 -12 q 281 24 360 -12 q 169 133 203 60 q 135 329 135 207 l 135 697 q 128 788 135 758 q 103 829 121 817 q 46 847 85 842 q 36 943 36 885 q 218 939 93 939 q 474 943 410 939 q 465 847 474 882 q 407 830 425 842 q 382 789 389 818 q 375 697 375 760 l 375 351 q 417 156 375 221 q 551 90 460 90 q 622 104 588 90 q 678 149 656 118 q 711 233 700 179 q 722 389 722 286 l 722 664 q 714 770 722 733 q 686 824 706 807 q 629 847 667 840 q 621 943 621 900 q 771 939 675 939 q 915 943 861 939 q 904 847 915 888 q 850 826 868 842 q 825 774 832 810 q 818 672 818 739 l 818 382 z "},"Ú":{"ha":960,"x_min":36,"x_max":915,"o":"m 818 382 q 801 182 818 256 q 736 63 783 108 q 496 -12 657 -12 q 281 24 360 -12 q 169 133 203 60 q 135 329 135 207 l 135 697 q 128 788 135 758 q 103 829 121 817 q 46 847 85 842 q 36 943 36 885 q 218 939 93 939 q 474 943 410 939 q 465 847 474 882 q 407 830 425 842 q 382 789 389 818 q 375 697 375 760 l 375 351 q 417 156 375 221 q 551 90 460 90 q 622 104 588 90 q 678 149 656 118 q 711 233 700 179 q 722 389 722 286 l 722 664 q 714 770 722 733 q 686 824 706 807 q 629 847 667 840 q 621 943 621 900 q 771 939 675 939 q 915 943 861 939 q 904 847 915 888 q 850 826 868 842 q 825 774 832 810 q 818 672 818 739 l 818 382 m 579 1019 q 460 1040 511 1019 q 543 1211 511 1129 q 657 1224 597 1224 q 744 1214 710 1224 q 579 1019 665 1132 z "},"Ŭ":{"ha":960,"x_min":36,"x_max":915,"o":"m 818 382 q 801 182 818 256 q 736 63 783 108 q 496 -12 657 -12 q 281 24 360 -12 q 169 133 203 60 q 135 329 135 207 l 135 697 q 128 788 135 758 q 103 829 121 817 q 46 847 85 842 q 36 943 36 885 q 218 939 93 939 q 474 943 410 939 q 465 847 474 882 q 407 830 425 842 q 382 789 389 818 q 375 697 375 760 l 375 351 q 417 156 375 221 q 551 90 460 90 q 622 104 588 90 q 678 149 656 118 q 711 233 700 179 q 722 389 722 286 l 722 664 q 714 770 722 733 q 686 824 706 807 q 629 847 667 840 q 621 943 621 900 q 771 939 675 939 q 915 943 861 939 q 904 847 915 888 q 850 826 868 842 q 825 774 832 810 q 818 672 818 739 l 818 382 m 789 1206 q 727 1055 789 1106 q 546 1004 665 1004 q 367 1053 428 1004 q 307 1200 307 1103 q 397 1217 350 1217 q 431 1214 408 1217 q 471 1155 436 1175 q 563 1135 506 1135 q 649 1155 617 1135 q 682 1214 681 1175 q 721 1217 694 1217 q 789 1206 756 1217 z "},"Ǔ":{"ha":960,"x_min":36,"x_max":915,"o":"m 818 382 q 801 182 818 256 q 736 63 783 108 q 496 -12 657 -12 q 281 24 360 -12 q 169 133 203 60 q 135 329 135 207 l 135 697 q 128 788 135 758 q 103 829 121 817 q 46 847 85 842 q 36 943 36 885 q 218 939 93 939 q 474 943 410 939 q 465 847 474 882 q 407 830 425 842 q 382 789 389 818 q 375 697 375 760 l 375 351 q 417 156 375 221 q 551 90 460 90 q 622 104 588 90 q 678 149 656 118 q 711 233 700 179 q 722 389 722 286 l 722 664 q 714 770 722 733 q 686 824 706 807 q 629 847 667 840 q 621 943 621 900 q 771 939 675 939 q 915 943 861 939 q 904 847 915 888 q 850 826 868 842 q 825 774 832 810 q 818 672 818 739 l 818 382 m 472 1010 q 278 1169 407 1079 q 388 1236 318 1222 q 550 1153 450 1196 q 616 1183 558 1157 q 710 1233 674 1210 q 756 1210 736 1229 q 785 1167 776 1190 q 578 1022 657 1092 q 472 1010 542 1010 z "},"Û":{"ha":960,"x_min":36,"x_max":915,"o":"m 818 382 q 801 182 818 256 q 736 63 783 108 q 496 -12 657 -12 q 281 24 360 -12 q 169 133 203 60 q 135 329 135 207 l 135 697 q 128 788 135 758 q 103 829 121 817 q 46 847 85 842 q 36 943 36 885 q 218 939 93 939 q 474 943 410 939 q 465 847 474 882 q 407 830 425 842 q 382 789 389 818 q 375 697 375 760 l 375 351 q 417 156 375 221 q 551 90 460 90 q 622 104 588 90 q 678 149 656 118 q 711 233 700 179 q 722 389 722 286 l 722 664 q 714 770 722 733 q 686 824 706 807 q 629 847 667 840 q 621 943 621 900 q 771 939 675 939 q 915 943 861 939 q 904 847 915 888 q 850 826 868 842 q 825 774 832 810 q 818 672 818 739 l 818 382 m 368 1011 q 320 1036 340 1017 q 293 1078 300 1056 q 499 1224 433 1164 q 604 1236 542 1236 q 800 1075 681 1157 q 753 1033 778 1049 q 690 1010 728 1017 q 526 1093 615 1056 l 479 1071 q 428 1044 465 1064 q 368 1011 390 1025 z "},"Ȕ":{"ha":960,"x_min":36,"x_max":915,"o":"m 818 382 q 801 182 818 256 q 736 63 783 108 q 496 -12 657 -12 q 281 24 360 -12 q 169 133 203 60 q 135 329 135 207 l 135 697 q 128 788 135 758 q 103 829 121 817 q 46 847 85 842 q 36 943 36 885 q 218 939 93 939 q 474 943 410 939 q 465 847 474 882 q 407 830 425 842 q 382 789 389 818 q 375 697 375 760 l 375 351 q 417 156 375 221 q 551 90 460 90 q 622 104 588 90 q 678 149 656 118 q 711 233 700 179 q 722 389 722 286 l 722 664 q 714 770 722 733 q 686 824 706 807 q 629 847 667 840 q 621 943 621 900 q 771 939 675 939 q 915 943 861 939 q 904 847 915 888 q 850 826 868 842 q 825 774 832 810 q 818 672 818 739 l 818 382 m 382 996 q 228 1167 299 1096 q 310 1191 261 1183 q 408 1197 360 1199 q 501 1015 444 1103 q 382 996 447 996 m 642 996 q 499 1171 557 1107 q 577 1192 531 1185 q 668 1197 624 1199 q 761 1015 704 1103 q 642 996 707 996 z "},"Ü":{"ha":960,"x_min":36,"x_max":915,"o":"m 818 382 q 801 182 818 256 q 736 63 783 108 q 496 -12 657 -12 q 281 24 360 -12 q 169 133 203 60 q 135 329 135 207 l 135 697 q 128 788 135 758 q 103 829 121 817 q 46 847 85 842 q 36 943 36 885 q 218 939 93 939 q 474 943 410 939 q 465 847 474 882 q 407 830 425 842 q 382 789 389 818 q 375 697 375 760 l 375 351 q 417 156 375 221 q 551 90 460 90 q 622 104 588 90 q 678 149 656 118 q 711 233 700 179 q 722 389 722 286 l 722 664 q 714 770 722 733 q 686 824 706 807 q 629 847 667 840 q 621 943 621 900 q 771 939 675 939 q 915 943 861 939 q 904 847 915 888 q 850 826 868 842 q 825 774 832 810 q 818 672 818 739 l 818 382 z "},"Ǘ":{"ha":960,"x_min":36,"x_max":915,"o":"m 818 382 q 801 182 818 256 q 736 63 783 108 q 496 -12 657 -12 q 281 24 360 -12 q 169 133 203 60 q 135 329 135 207 l 135 697 q 128 788 135 758 q 103 829 121 817 q 46 847 85 842 q 36 943 36 885 q 218 939 93 939 q 474 943 410 939 q 465 847 474 882 q 407 830 425 842 q 382 789 389 818 q 375 697 375 760 l 375 351 q 417 156 375 221 q 551 90 460 90 q 622 104 588 90 q 678 149 656 118 q 711 233 700 179 q 722 389 722 286 l 722 664 q 714 770 722 733 q 686 824 706 807 q 629 847 667 840 q 621 943 621 900 q 771 939 675 939 q 915 943 861 939 q 904 847 915 888 q 850 826 868 842 q 825 774 832 810 q 818 672 818 739 l 818 382 m 579 1274 q 460 1294 511 1274 q 543 1465 511 1383 q 657 1478 597 1478 q 744 1468 710 1478 q 579 1274 665 1386 z "},"Ǚ":{"ha":960,"x_min":36,"x_max":915,"o":"m 818 382 q 801 182 818 256 q 736 63 783 108 q 496 -12 657 -12 q 281 24 360 -12 q 169 133 203 60 q 135 329 135 207 l 135 697 q 128 788 135 758 q 103 829 121 817 q 46 847 85 842 q 36 943 36 885 q 218 939 93 939 q 474 943 410 939 q 465 847 474 882 q 407 830 425 842 q 382 789 389 818 q 375 697 375 760 l 375 351 q 417 156 375 221 q 551 90 460 90 q 622 104 588 90 q 678 149 656 118 q 711 233 700 179 q 722 389 722 286 l 722 664 q 714 770 722 733 q 686 824 706 807 q 629 847 667 840 q 621 943 621 900 q 771 939 675 939 q 915 943 861 939 q 904 847 915 888 q 850 826 868 842 q 825 774 832 810 q 818 672 818 739 l 818 382 m 472 1264 q 278 1424 407 1333 q 388 1490 318 1476 q 550 1407 450 1450 q 616 1438 558 1411 q 710 1488 674 1464 q 756 1464 736 1483 q 785 1421 776 1444 q 578 1276 657 1346 q 472 1264 542 1264 z "},"Ǜ":{"ha":960,"x_min":36,"x_max":915,"o":"m 818 382 q 801 182 818 256 q 736 63 783 108 q 496 -12 657 -12 q 281 24 360 -12 q 169 133 203 60 q 135 329 135 207 l 135 697 q 128 788 135 758 q 103 829 121 817 q 46 847 85 842 q 36 943 36 885 q 218 939 93 939 q 474 943 410 939 q 465 847 474 882 q 407 830 425 842 q 382 789 389 818 q 375 697 375 760 l 375 351 q 417 156 375 221 q 551 90 460 90 q 622 104 588 90 q 678 149 656 118 q 711 233 700 179 q 722 389 722 286 l 722 664 q 714 770 722 733 q 686 824 706 807 q 629 847 667 840 q 621 943 621 900 q 771 939 675 939 q 915 943 861 939 q 904 847 915 888 q 850 826 868 842 q 825 774 832 810 q 818 672 818 739 l 818 382 m 507 1274 q 361 1444 438 1369 q 444 1469 394 1461 q 542 1475 493 1476 q 583 1383 558 1433 q 635 1294 608 1333 q 507 1274 585 1274 z "},"Ǖ":{"ha":960,"x_min":36,"x_max":915,"o":"m 818 382 q 801 182 818 256 q 736 63 783 108 q 496 -12 657 -12 q 281 24 360 -12 q 169 133 203 60 q 135 329 135 207 l 135 697 q 128 788 135 758 q 103 829 121 817 q 46 847 85 842 q 36 943 36 885 q 218 939 93 939 q 474 943 410 939 q 465 847 474 882 q 407 830 425 842 q 382 789 389 818 q 375 697 375 760 l 375 351 q 417 156 375 221 q 551 90 460 90 q 622 104 588 90 q 678 149 656 118 q 711 233 700 179 q 722 389 722 286 l 722 664 q 714 770 722 733 q 686 824 706 807 q 629 847 667 840 q 621 943 621 900 q 771 939 675 939 q 915 943 861 939 q 904 847 915 888 q 850 826 868 842 q 825 774 832 810 q 818 672 818 739 l 818 382 m 815 1396 q 803 1314 815 1358 q 279 1299 508 1314 q 292 1396 279 1363 l 815 1396 z "},"Ụ":{"ha":960,"x_min":36,"x_max":915,"o":"m 818 382 q 801 182 818 256 q 736 63 783 108 q 496 -12 657 -12 q 281 24 360 -12 q 169 133 203 60 q 135 329 135 207 l 135 697 q 128 788 135 758 q 103 829 121 817 q 46 847 85 842 q 36 943 36 885 q 218 939 93 939 q 474 943 410 939 q 465 847 474 882 q 407 830 425 842 q 382 789 389 818 q 375 697 375 760 l 375 351 q 417 156 375 221 q 551 90 460 90 q 622 104 588 90 q 678 149 656 118 q 711 233 700 179 q 722 389 722 286 l 722 664 q 714 770 722 733 q 686 824 706 807 q 629 847 667 840 q 621 943 621 900 q 771 939 675 939 q 915 943 861 939 q 904 847 915 888 q 850 826 868 842 q 825 774 832 810 q 818 672 818 739 l 818 382 m 486 -318 q 394 -290 428 -318 q 360 -214 360 -261 q 397 -130 360 -160 q 493 -100 433 -100 q 592 -129 557 -100 q 626 -212 626 -158 q 588 -288 626 -258 q 486 -318 550 -318 z "},"Ù":{"ha":960,"x_min":36,"x_max":915,"o":"m 818 382 q 801 182 818 256 q 736 63 783 108 q 496 -12 657 -12 q 281 24 360 -12 q 169 133 203 60 q 135 329 135 207 l 135 697 q 128 788 135 758 q 103 829 121 817 q 46 847 85 842 q 36 943 36 885 q 218 939 93 939 q 474 943 410 939 q 465 847 474 882 q 407 830 425 842 q 382 789 389 818 q 375 697 375 760 l 375 351 q 417 156 375 221 q 551 90 460 90 q 622 104 588 90 q 678 149 656 118 q 711 233 700 179 q 722 389 722 286 l 722 664 q 714 770 722 733 q 686 824 706 807 q 629 847 667 840 q 621 943 621 900 q 771 939 675 939 q 915 943 861 939 q 904 847 915 888 q 850 826 868 842 q 825 774 832 810 q 818 672 818 739 l 818 382 m 507 1019 q 361 1190 438 1115 q 444 1215 394 1207 q 542 1221 493 1222 q 583 1129 558 1179 q 635 1040 608 1079 q 507 1019 585 1019 z "},"Ủ":{"ha":960,"x_min":36,"x_max":915,"o":"m 818 382 q 801 182 818 256 q 736 63 783 108 q 496 -12 657 -12 q 281 24 360 -12 q 169 133 203 60 q 135 329 135 207 l 135 697 q 128 788 135 758 q 103 829 121 817 q 46 847 85 842 q 36 943 36 885 q 218 939 93 939 q 474 943 410 939 q 465 847 474 882 q 407 830 425 842 q 382 789 389 818 q 375 697 375 760 l 375 351 q 417 156 375 221 q 551 90 460 90 q 622 104 588 90 q 678 149 656 118 q 711 233 700 179 q 722 389 722 286 l 722 664 q 714 770 722 733 q 686 824 706 807 q 629 847 667 840 q 621 943 621 900 q 771 939 675 939 q 915 943 861 939 q 904 847 915 888 q 850 826 868 842 q 825 774 832 810 q 818 672 818 739 l 818 382 m 510 1000 q 500 1039 500 1019 q 511 1078 500 1063 q 542 1110 522 1094 q 566 1135 558 1125 q 574 1160 574 1144 q 565 1183 574 1175 q 542 1192 556 1192 q 506 1172 519 1192 q 486 1099 493 1151 q 399 1117 433 1099 q 403 1168 403 1144 q 399 1210 403 1192 q 557 1253 461 1253 q 694 1163 694 1253 q 678 1110 694 1129 q 633 1069 663 1090 q 607 1049 615 1058 q 599 1029 599 1040 q 603 1008 599 1019 q 540 997 574 997 q 510 1000 529 997 z "},"Ư":{"ha":1085,"x_min":36,"x_max":1049,"o":"m 1021 1107 q 1049 1011 1049 1061 q 1007 899 1049 940 q 904 847 965 858 q 850 826 868 842 q 825 774 832 810 q 818 672 818 739 l 818 382 q 801 182 818 256 q 736 63 783 108 q 496 -12 657 -12 q 281 24 360 -12 q 169 133 203 60 q 135 329 135 207 l 135 697 q 128 788 135 758 q 103 829 121 817 q 46 847 85 842 q 36 943 36 885 q 218 939 93 939 q 474 943 410 939 q 465 847 474 882 q 407 830 425 842 q 382 789 389 818 q 375 697 375 760 l 375 351 q 417 156 375 221 q 551 90 460 90 q 622 104 588 90 q 678 149 656 118 q 711 233 700 179 q 722 389 722 286 l 722 664 q 714 770 722 733 q 686 824 706 807 q 629 847 667 840 q 621 943 621 900 q 769 939 675 939 q 871 961 840 939 q 901 1029 901 983 q 893 1092 901 1054 q 988 1110 932 1110 q 1021 1107 1001 1110 z "},"Ứ":{"ha":1085,"x_min":36,"x_max":1049,"o":"m 1021 1107 q 1049 1011 1049 1061 q 1007 899 1049 940 q 904 847 965 858 q 850 826 868 842 q 825 774 832 810 q 818 672 818 739 l 818 382 q 801 182 818 256 q 736 63 783 108 q 496 -12 657 -12 q 281 24 360 -12 q 169 133 203 60 q 135 329 135 207 l 135 697 q 128 788 135 758 q 103 829 121 817 q 46 847 85 842 q 36 943 36 885 q 218 939 93 939 q 474 943 410 939 q 465 847 474 882 q 407 830 425 842 q 382 789 389 818 q 375 697 375 760 l 375 351 q 417 156 375 221 q 551 90 460 90 q 622 104 588 90 q 678 149 656 118 q 711 233 700 179 q 722 389 722 286 l 722 664 q 714 770 722 733 q 686 824 706 807 q 629 847 667 840 q 621 943 621 900 q 769 939 675 939 q 871 961 840 939 q 901 1029 901 983 q 893 1092 901 1054 q 988 1110 932 1110 q 1021 1107 1001 1110 m 579 1019 q 460 1040 511 1019 q 543 1211 511 1129 q 657 1224 597 1224 q 744 1214 710 1224 q 579 1019 665 1132 z "},"Ự":{"ha":1085,"x_min":36,"x_max":1049,"o":"m 1021 1107 q 1049 1011 1049 1061 q 1007 899 1049 940 q 904 847 965 858 q 850 826 868 842 q 825 774 832 810 q 818 672 818 739 l 818 382 q 801 182 818 256 q 736 63 783 108 q 496 -12 657 -12 q 281 24 360 -12 q 169 133 203 60 q 135 329 135 207 l 135 697 q 128 788 135 758 q 103 829 121 817 q 46 847 85 842 q 36 943 36 885 q 218 939 93 939 q 474 943 410 939 q 465 847 474 882 q 407 830 425 842 q 382 789 389 818 q 375 697 375 760 l 375 351 q 417 156 375 221 q 551 90 460 90 q 622 104 588 90 q 678 149 656 118 q 711 233 700 179 q 722 389 722 286 l 722 664 q 714 770 722 733 q 686 824 706 807 q 629 847 667 840 q 621 943 621 900 q 769 939 675 939 q 871 961 840 939 q 901 1029 901 983 q 893 1092 901 1054 q 988 1110 932 1110 q 1021 1107 1001 1110 m 486 -318 q 394 -290 428 -318 q 360 -214 360 -261 q 397 -130 360 -160 q 493 -100 433 -100 q 592 -129 557 -100 q 626 -212 626 -158 q 588 -288 626 -258 q 486 -318 550 -318 z "},"Ừ":{"ha":1085,"x_min":36,"x_max":1049,"o":"m 1021 1107 q 1049 1011 1049 1061 q 1007 899 1049 940 q 904 847 965 858 q 850 826 868 842 q 825 774 832 810 q 818 672 818 739 l 818 382 q 801 182 818 256 q 736 63 783 108 q 496 -12 657 -12 q 281 24 360 -12 q 169 133 203 60 q 135 329 135 207 l 135 697 q 128 788 135 758 q 103 829 121 817 q 46 847 85 842 q 36 943 36 885 q 218 939 93 939 q 474 943 410 939 q 465 847 474 882 q 407 830 425 842 q 382 789 389 818 q 375 697 375 760 l 375 351 q 417 156 375 221 q 551 90 460 90 q 622 104 588 90 q 678 149 656 118 q 711 233 700 179 q 722 389 722 286 l 722 664 q 714 770 722 733 q 686 824 706 807 q 629 847 667 840 q 621 943 621 900 q 769 939 675 939 q 871 961 840 939 q 901 1029 901 983 q 893 1092 901 1054 q 988 1110 932 1110 q 1021 1107 1001 1110 m 507 1019 q 361 1190 438 1115 q 444 1215 394 1207 q 542 1221 493 1222 q 583 1129 558 1179 q 635 1040 608 1079 q 507 1019 585 1019 z "},"Ử":{"ha":1085,"x_min":36,"x_max":1049,"o":"m 1021 1107 q 1049 1011 1049 1061 q 1007 899 1049 940 q 904 847 965 858 q 850 826 868 842 q 825 774 832 810 q 818 672 818 739 l 818 382 q 801 182 818 256 q 736 63 783 108 q 496 -12 657 -12 q 281 24 360 -12 q 169 133 203 60 q 135 329 135 207 l 135 697 q 128 788 135 758 q 103 829 121 817 q 46 847 85 842 q 36 943 36 885 q 218 939 93 939 q 474 943 410 939 q 465 847 474 882 q 407 830 425 842 q 382 789 389 818 q 375 697 375 760 l 375 351 q 417 156 375 221 q 551 90 460 90 q 622 104 588 90 q 678 149 656 118 q 711 233 700 179 q 722 389 722 286 l 722 664 q 714 770 722 733 q 686 824 706 807 q 629 847 667 840 q 621 943 621 900 q 769 939 675 939 q 871 961 840 939 q 901 1029 901 983 q 893 1092 901 1054 q 988 1110 932 1110 q 1021 1107 1001 1110 m 510 1000 q 500 1039 500 1019 q 511 1078 500 1063 q 542 1110 522 1094 q 566 1135 558 1125 q 574 1160 574 1144 q 565 1183 574 1175 q 542 1192 556 1192 q 506 1172 519 1192 q 486 1099 493 1151 q 399 1117 433 1099 q 403 1168 403 1144 q 399 1210 403 1192 q 557 1253 461 1253 q 694 1163 694 1253 q 678 1110 694 1129 q 633 1069 663 1090 q 607 1049 615 1058 q 599 1029 599 1040 q 603 1008 599 1019 q 540 997 574 997 q 510 1000 529 997 z "},"Ữ":{"ha":1085,"x_min":36,"x_max":1049,"o":"m 1021 1107 q 1049 1011 1049 1061 q 1007 899 1049 940 q 904 847 965 858 q 850 826 868 842 q 825 774 832 810 q 818 672 818 739 l 818 382 q 801 182 818 256 q 736 63 783 108 q 496 -12 657 -12 q 281 24 360 -12 q 169 133 203 60 q 135 329 135 207 l 135 697 q 128 788 135 758 q 103 829 121 817 q 46 847 85 842 q 36 943 36 885 q 218 939 93 939 q 474 943 410 939 q 465 847 474 882 q 407 830 425 842 q 382 789 389 818 q 375 697 375 760 l 375 351 q 417 156 375 221 q 551 90 460 90 q 622 104 588 90 q 678 149 656 118 q 711 233 700 179 q 722 389 722 286 l 722 664 q 714 770 722 733 q 686 824 706 807 q 629 847 667 840 q 621 943 621 900 q 769 939 675 939 q 871 961 840 939 q 901 1029 901 983 q 893 1092 901 1054 q 988 1110 932 1110 q 1021 1107 1001 1110 m 618 1025 q 561 1034 585 1025 q 506 1060 538 1043 q 464 1082 482 1075 q 424 1089 446 1089 q 318 1029 367 1089 q 275 1118 276 1067 q 364 1195 313 1171 q 464 1219 415 1219 q 519 1211 494 1219 q 578 1186 543 1203 q 623 1167 604 1174 q 661 1160 642 1160 q 743 1210 708 1160 q 819 1169 792 1201 q 733 1063 785 1100 q 618 1025 682 1025 z "},"Ű":{"ha":960,"x_min":36,"x_max":915,"o":"m 818 382 q 801 182 818 256 q 736 63 783 108 q 496 -12 657 -12 q 281 24 360 -12 q 169 133 203 60 q 135 329 135 207 l 135 697 q 128 788 135 758 q 103 829 121 817 q 46 847 85 842 q 36 943 36 885 q 218 939 93 939 q 474 943 410 939 q 465 847 474 882 q 407 830 425 842 q 382 789 389 818 q 375 697 375 760 l 375 351 q 417 156 375 221 q 551 90 460 90 q 622 104 588 90 q 678 149 656 118 q 711 233 700 179 q 722 389 722 286 l 722 664 q 714 770 722 733 q 686 824 706 807 q 629 847 667 840 q 621 943 621 900 q 771 939 675 939 q 915 943 861 939 q 904 847 915 888 q 850 826 868 842 q 825 774 832 810 q 818 672 818 739 l 818 382 m 450 1021 q 388 1031 419 1022 q 338 1050 356 1039 q 399 1206 371 1119 q 529 1225 451 1225 q 604 1217 579 1225 q 450 1021 525 1128 m 714 1021 q 651 1031 683 1022 q 601 1050 619 1039 q 663 1206 635 1119 q 793 1225 713 1225 q 868 1217 843 1225 q 714 1021 789 1128 z "},"Ȗ":{"ha":960,"x_min":36,"x_max":915,"o":"m 818 382 q 801 182 818 256 q 736 63 783 108 q 496 -12 657 -12 q 281 24 360 -12 q 169 133 203 60 q 135 329 135 207 l 135 697 q 128 788 135 758 q 103 829 121 817 q 46 847 85 842 q 36 943 36 885 q 218 939 93 939 q 474 943 410 939 q 465 847 474 882 q 407 830 425 842 q 382 789 389 818 q 375 697 375 760 l 375 351 q 417 156 375 221 q 551 90 460 90 q 622 104 588 90 q 678 149 656 118 q 711 233 700 179 q 722 389 722 286 l 722 664 q 714 770 722 733 q 686 824 706 807 q 629 847 667 840 q 621 943 621 900 q 771 939 675 939 q 915 943 861 939 q 904 847 915 888 q 850 826 868 842 q 825 774 832 810 q 818 672 818 739 l 818 382 m 307 1017 q 369 1167 307 1117 q 550 1218 431 1218 q 728 1169 668 1218 q 789 1022 789 1119 q 700 1006 746 1006 q 665 1008 688 1006 q 624 1067 658 1047 q 533 1088 590 1088 q 447 1067 479 1088 q 414 1008 415 1046 q 375 1004 396 1004 q 307 1017 344 1004 z "},"Ū":{"ha":960,"x_min":36,"x_max":915,"o":"m 818 382 q 801 182 818 256 q 736 63 783 108 q 496 -12 657 -12 q 281 24 360 -12 q 169 133 203 60 q 135 329 135 207 l 135 697 q 128 788 135 758 q 103 829 121 817 q 46 847 85 842 q 36 943 36 885 q 218 939 93 939 q 474 943 410 939 q 465 847 474 882 q 407 830 425 842 q 382 789 389 818 q 375 697 375 760 l 375 351 q 417 156 375 221 q 551 90 460 90 q 622 104 588 90 q 678 149 656 118 q 711 233 700 179 q 722 389 722 286 l 722 664 q 714 770 722 733 q 686 824 706 807 q 629 847 667 840 q 621 943 621 900 q 771 939 675 939 q 915 943 861 939 q 904 847 915 888 q 850 826 868 842 q 825 774 832 810 q 818 672 818 739 l 818 382 m 815 1142 q 803 1060 815 1104 q 279 1044 508 1060 q 292 1142 279 1108 l 815 1142 z "},"Ṻ":{"ha":960,"x_min":36,"x_max":915,"o":"m 818 382 q 801 182 818 256 q 736 63 783 108 q 496 -12 657 -12 q 281 24 360 -12 q 169 133 203 60 q 135 329 135 207 l 135 697 q 128 788 135 758 q 103 829 121 817 q 46 847 85 842 q 36 943 36 885 q 218 939 93 939 q 474 943 410 939 q 465 847 474 882 q 407 830 425 842 q 382 789 389 818 q 375 697 375 760 l 375 351 q 417 156 375 221 q 551 90 460 90 q 622 104 588 90 q 678 149 656 118 q 711 233 700 179 q 722 389 722 286 l 722 664 q 714 770 722 733 q 686 824 706 807 q 629 847 667 840 q 621 943 621 900 q 771 939 675 939 q 915 943 861 939 q 904 847 915 888 q 850 826 868 842 q 825 774 832 810 q 818 672 818 739 l 818 382 m 815 1142 q 803 1060 815 1104 q 279 1044 508 1060 q 292 1142 279 1108 l 815 1142 z "},"Ų":{"ha":960,"x_min":36,"x_max":915,"o":"m 771 939 q 915 943 861 939 q 904 847 915 888 q 850 826 868 842 q 825 774 832 810 q 818 672 818 739 l 818 382 q 801 182 818 256 q 736 63 783 108 q 689 28 719 46 q 583 -114 583 -42 q 685 -189 583 -189 q 735 -183 714 -189 q 751 -221 744 -194 q 757 -271 757 -247 l 756 -286 q 590 -344 656 -304 q 560 -346 578 -346 q 480 -328 519 -346 q 414 -274 440 -311 q 388 -181 388 -236 q 416 -92 388 -132 q 521 -12 444 -51 l 496 -12 q 281 24 360 -12 q 169 133 203 60 q 135 329 135 207 l 135 697 q 128 788 135 758 q 103 829 121 817 q 46 847 85 842 q 36 943 36 885 q 218 939 93 939 q 474 943 410 939 q 465 847 474 882 q 407 830 425 842 q 382 789 389 818 q 375 697 375 760 l 375 351 q 417 156 375 221 q 551 90 460 90 q 622 104 588 90 q 678 149 656 118 q 711 233 700 179 q 722 389 722 286 l 722 664 q 714 770 722 733 q 686 824 706 807 q 629 847 667 840 q 621 943 621 900 q 771 939 675 939 z "},"Ů":{"ha":960,"x_min":36,"x_max":915,"o":"m 818 382 q 801 182 818 256 q 736 63 783 108 q 496 -12 657 -12 q 281 24 360 -12 q 169 133 203 60 q 135 329 135 207 l 135 697 q 128 788 135 758 q 103 829 121 817 q 46 847 85 842 q 36 943 36 885 q 218 939 93 939 q 474 943 410 939 q 465 847 474 882 q 407 830 425 842 q 382 789 389 818 q 375 697 375 760 l 375 351 q 417 156 375 221 q 551 90 460 90 q 622 104 588 90 q 678 149 656 118 q 711 233 700 179 q 722 389 722 286 l 722 664 q 714 770 722 733 q 686 824 706 807 q 629 847 667 840 q 621 943 621 900 q 771 939 675 939 q 915 943 861 939 q 904 847 915 888 q 850 826 868 842 q 825 774 832 810 q 818 672 818 739 l 818 382 m 539 994 q 424 1026 469 994 q 378 1113 378 1058 q 426 1205 378 1171 q 553 1239 475 1239 q 672 1209 626 1239 q 717 1121 717 1179 q 667 1029 717 1064 q 539 994 618 994 m 551 1053 q 587 1069 572 1053 q 601 1111 601 1085 q 586 1163 601 1139 q 542 1186 571 1186 q 508 1169 521 1186 q 494 1119 494 1151 q 509 1071 494 1089 q 551 1053 524 1053 z "},"Ũ":{"ha":960,"x_min":36,"x_max":915,"o":"m 818 382 q 801 182 818 256 q 736 63 783 108 q 496 -12 657 -12 q 281 24 360 -12 q 169 133 203 60 q 135 329 135 207 l 135 697 q 128 788 135 758 q 103 829 121 817 q 46 847 85 842 q 36 943 36 885 q 218 939 93 939 q 474 943 410 939 q 465 847 474 882 q 407 830 425 842 q 382 789 389 818 q 375 697 375 760 l 375 351 q 417 156 375 221 q 551 90 460 90 q 622 104 588 90 q 678 149 656 118 q 711 233 700 179 q 722 389 722 286 l 722 664 q 714 770 722 733 q 686 824 706 807 q 629 847 667 840 q 621 943 621 900 q 771 939 675 939 q 915 943 861 939 q 904 847 915 888 q 850 826 868 842 q 825 774 832 810 q 818 672 818 739 l 818 382 m 618 1025 q 561 1034 585 1025 q 506 1060 538 1043 q 464 1082 482 1075 q 424 1089 446 1089 q 318 1029 367 1089 q 275 1118 276 1067 q 364 1195 313 1171 q 464 1219 415 1219 q 519 1211 494 1219 q 578 1186 543 1203 q 623 1167 604 1174 q 661 1160 642 1160 q 743 1210 708 1160 q 819 1169 792 1201 q 733 1063 785 1100 q 618 1025 682 1025 z "},"Ṹ":{"ha":960,"x_min":36,"x_max":915,"o":"m 818 382 q 801 182 818 256 q 736 63 783 108 q 496 -12 657 -12 q 281 24 360 -12 q 169 133 203 60 q 135 329 135 207 l 135 697 q 128 788 135 758 q 103 829 121 817 q 46 847 85 842 q 36 943 36 885 q 218 939 93 939 q 474 943 410 939 q 465 847 474 882 q 407 830 425 842 q 382 789 389 818 q 375 697 375 760 l 375 351 q 417 156 375 221 q 551 90 460 90 q 622 104 588 90 q 678 149 656 118 q 711 233 700 179 q 722 389 722 286 l 722 664 q 714 770 722 733 q 686 824 706 807 q 629 847 667 840 q 621 943 621 900 q 771 939 675 939 q 915 943 861 939 q 904 847 915 888 q 850 826 868 842 q 825 774 832 810 q 818 672 818 739 l 818 382 m 618 1025 q 561 1034 585 1025 q 506 1060 538 1043 q 464 1082 482 1075 q 424 1089 446 1089 q 318 1029 367 1089 q 275 1118 276 1067 q 364 1195 313 1171 q 464 1219 415 1219 q 519 1211 494 1219 q 578 1186 543 1203 q 623 1167 604 1174 q 661 1160 642 1160 q 743 1210 708 1160 q 819 1169 792 1201 q 733 1063 785 1100 q 618 1025 682 1025 m 579 1282 q 460 1303 511 1282 q 543 1474 511 1392 q 657 1486 597 1486 q 744 1476 710 1486 q 579 1282 665 1394 z "},"V":{"ha":975,"x_min":18,"x_max":956,"o":"m 817 939 q 956 943 910 939 q 943 847 956 894 q 882 808 906 839 q 828 701 858 778 q 540 -1 700 372 q 432 -11 513 -11 q 150 683 275 403 q 99 785 117 754 q 67 830 82 817 q 29 847 51 843 q 19 943 18 888 q 231 939 86 939 q 450 943 369 939 q 439 847 449 882 q 388 833 403 843 q 372 800 372 822 q 401 706 372 775 q 488 484 454 576 q 556 282 522 392 q 731 725 654 507 q 742 781 742 758 q 679 847 742 839 q 668 943 668 876 q 817 939 721 939 z "},"W":{"ha":1375,"x_min":19,"x_max":1356,"o":"m 1208 939 q 1356 943 1300 939 q 1343 847 1356 882 q 1301 820 1318 839 q 1267 762 1283 801 q 1228 647 1250 722 l 1033 -1 q 976 -10 1014 -7 q 907 -12 939 -12 q 679 589 810 257 l 472 -3 q 350 -12 436 -12 q 138 668 210 449 q 94 786 108 753 q 66 831 79 819 q 28 844 53 842 q 19 943 19 874 q 233 939 86 939 q 454 943 392 939 q 444 847 454 890 q 381 830 400 842 q 363 790 363 818 q 388 690 363 760 q 493 350 429 565 l 700 940 q 803 950 735 950 q 1036 333 911 676 l 1133 649 q 1154 756 1154 715 q 1132 819 1154 799 q 1063 847 1110 840 q 1050 943 1050 879 q 1208 939 1108 939 z "},"Ẃ":{"ha":1375,"x_min":19,"x_max":1356,"o":"m 1208 939 q 1356 943 1300 939 q 1343 847 1356 882 q 1301 820 1318 839 q 1267 762 1283 801 q 1228 647 1250 722 l 1033 -1 q 976 -10 1014 -7 q 907 -12 939 -12 q 679 589 810 257 l 472 -3 q 350 -12 436 -12 q 138 668 210 449 q 94 786 108 753 q 66 831 79 819 q 28 844 53 842 q 19 943 19 874 q 233 939 86 939 q 454 943 392 939 q 444 847 454 890 q 381 830 400 842 q 363 790 363 818 q 388 690 363 760 q 493 350 429 565 l 700 940 q 803 950 735 950 q 1036 333 911 676 l 1133 649 q 1154 756 1154 715 q 1132 819 1154 799 q 1063 847 1110 840 q 1050 943 1050 879 q 1208 939 1108 939 m 783 1019 q 664 1040 715 1019 q 747 1211 715 1129 q 861 1224 801 1224 q 949 1214 914 1224 q 783 1019 869 1132 z "},"Ŵ":{"ha":1375,"x_min":19,"x_max":1356,"o":"m 1208 939 q 1356 943 1300 939 q 1343 847 1356 882 q 1301 820 1318 839 q 1267 762 1283 801 q 1228 647 1250 722 l 1033 -1 q 976 -10 1014 -7 q 907 -12 939 -12 q 679 589 810 257 l 472 -3 q 350 -12 436 -12 q 138 668 210 449 q 94 786 108 753 q 66 831 79 819 q 28 844 53 842 q 19 943 19 874 q 233 939 86 939 q 454 943 392 939 q 444 847 454 890 q 381 830 400 842 q 363 790 363 818 q 388 690 363 760 q 493 350 429 565 l 700 940 q 803 950 735 950 q 1036 333 911 676 l 1133 649 q 1154 756 1154 715 q 1132 819 1154 799 q 1063 847 1110 840 q 1050 943 1050 879 q 1208 939 1108 939 m 572 1011 q 524 1036 544 1017 q 497 1078 504 1056 q 703 1224 638 1164 q 808 1236 746 1236 q 1004 1075 885 1157 q 957 1033 982 1049 q 894 1010 932 1017 q 731 1093 819 1056 l 683 1071 q 632 1044 669 1064 q 572 1011 594 1025 z "},"Ẅ":{"ha":1375,"x_min":19,"x_max":1356,"o":"m 1208 939 q 1356 943 1300 939 q 1343 847 1356 882 q 1301 820 1318 839 q 1267 762 1283 801 q 1228 647 1250 722 l 1033 -1 q 976 -10 1014 -7 q 907 -12 939 -12 q 679 589 810 257 l 472 -3 q 350 -12 436 -12 q 138 668 210 449 q 94 786 108 753 q 66 831 79 819 q 28 844 53 842 q 19 943 19 874 q 233 939 86 939 q 454 943 392 939 q 444 847 454 890 q 381 830 400 842 q 363 790 363 818 q 388 690 363 760 q 493 350 429 565 l 700 940 q 803 950 735 950 q 1036 333 911 676 l 1133 649 q 1154 756 1154 715 q 1132 819 1154 799 q 1063 847 1110 840 q 1050 943 1050 879 q 1208 939 1108 939 z "},"Ẁ":{"ha":1375,"x_min":19,"x_max":1356,"o":"m 1208 939 q 1356 943 1300 939 q 1343 847 1356 882 q 1301 820 1318 839 q 1267 762 1283 801 q 1228 647 1250 722 l 1033 -1 q 976 -10 1014 -7 q 907 -12 939 -12 q 679 589 810 257 l 472 -3 q 350 -12 436 -12 q 138 668 210 449 q 94 786 108 753 q 66 831 79 819 q 28 844 53 842 q 19 943 19 874 q 233 939 86 939 q 454 943 392 939 q 444 847 454 890 q 381 830 400 842 q 363 790 363 818 q 388 690 363 760 q 493 350 429 565 l 700 940 q 803 950 735 950 q 1036 333 911 676 l 1133 649 q 1154 756 1154 715 q 1132 819 1154 799 q 1063 847 1110 840 q 1050 943 1050 879 q 1208 939 1108 939 m 711 1019 q 565 1190 642 1115 q 648 1215 599 1207 q 746 1221 697 1222 q 788 1129 763 1179 q 839 1040 813 1079 q 711 1019 789 1019 z "},"X":{"ha":992,"x_min":35,"x_max":957,"o":"m 946 92 q 957 -4 957 60 q 719 0 897 0 q 494 -3 578 0 q 503 92 494 51 q 540 101 528 94 q 551 122 551 107 q 535 176 551 140 q 481 275 518 213 l 432 356 l 365 258 q 317 180 332 208 q 303 133 303 151 q 317 107 303 117 q 360 92 331 97 q 371 -4 371 57 q 200 0 300 0 q 35 -4 92 0 q 46 94 35 63 q 147 144 101 108 q 247 257 193 181 l 378 443 q 219 690 324 532 q 150 788 175 758 q 108 829 125 818 q 64 846 90 840 q 51 943 51 882 q 310 939 125 939 q 504 942 418 939 q 496 847 504 896 q 456 835 468 843 q 443 810 443 826 q 489 711 443 781 l 542 631 l 568 590 l 631 690 q 681 804 681 772 q 668 833 681 824 q 629 847 656 843 q 619 943 619 879 q 783 939 688 939 q 936 943 883 939 q 928 847 936 883 q 863 823 888 838 q 815 780 839 808 q 751 693 790 751 l 625 501 q 646 467 636 483 q 664 439 656 451 l 744 306 q 832 169 800 211 q 887 112 864 126 q 946 92 910 97 z "},"Y":{"ha":879,"x_min":19,"x_max":860,"o":"m 733 939 q 860 942 818 939 q 849 849 860 886 q 795 815 819 840 q 742 724 771 789 l 567 346 l 567 263 q 576 156 567 189 q 611 110 585 124 q 697 92 638 97 q 710 -4 710 49 q 443 0 596 0 q 232 -3 363 0 l 174 -4 q 189 92 176 61 q 283 109 256 97 q 318 152 310 121 q 326 258 326 183 l 326 350 l 124 765 q 81 826 103 808 q 29 847 58 844 q 19 942 19 886 q 229 939 79 939 q 451 942 397 939 q 442 849 451 897 q 392 804 392 843 q 413 733 392 782 q 526 461 456 639 q 643 735 582 596 q 661 796 661 775 q 604 847 661 840 q 592 942 592 889 q 733 939 638 939 z "},"Ý":{"ha":879,"x_min":19,"x_max":860,"o":"m 733 939 q 860 942 818 939 q 849 849 860 886 q 795 815 819 840 q 742 724 771 789 l 567 346 l 567 263 q 576 156 567 189 q 611 110 585 124 q 697 92 638 97 q 710 -4 710 49 q 443 0 596 0 q 232 -3 363 0 l 174 -4 q 189 92 176 61 q 283 109 256 97 q 318 152 310 121 q 326 258 326 183 l 326 350 l 124 765 q 81 826 103 808 q 29 847 58 844 q 19 942 19 886 q 229 939 79 939 q 451 942 397 939 q 442 849 451 897 q 392 804 392 843 q 413 733 392 782 q 526 461 456 639 q 643 735 582 596 q 661 796 661 775 q 604 847 661 840 q 592 942 592 889 q 733 939 638 939 m 546 1019 q 426 1040 478 1019 q 510 1211 478 1129 q 624 1224 564 1224 q 711 1214 676 1224 q 546 1019 632 1132 z "},"Ŷ":{"ha":879,"x_min":19,"x_max":860,"o":"m 733 939 q 860 942 818 939 q 849 849 860 886 q 795 815 819 840 q 742 724 771 789 l 567 346 l 567 263 q 576 156 567 189 q 611 110 585 124 q 697 92 638 97 q 710 -4 710 49 q 443 0 596 0 q 232 -3 363 0 l 174 -4 q 189 92 176 61 q 283 109 256 97 q 318 152 310 121 q 326 258 326 183 l 326 350 l 124 765 q 81 826 103 808 q 29 847 58 844 q 19 942 19 886 q 229 939 79 939 q 451 942 397 939 q 442 849 451 897 q 392 804 392 843 q 413 733 392 782 q 526 461 456 639 q 643 735 582 596 q 661 796 661 775 q 604 847 661 840 q 592 942 592 889 q 733 939 638 939 m 335 1011 q 287 1036 307 1017 q 260 1078 267 1056 q 465 1224 400 1164 q 571 1236 508 1236 q 767 1075 647 1157 q 719 1033 744 1049 q 657 1010 694 1017 q 493 1093 582 1056 l 446 1071 q 394 1044 432 1064 q 335 1011 357 1025 z "},"Ÿ":{"ha":879,"x_min":19,"x_max":860,"o":"m 733 939 q 860 942 818 939 q 849 849 860 886 q 795 815 819 840 q 742 724 771 789 l 567 346 l 567 263 q 576 156 567 189 q 611 110 585 124 q 697 92 638 97 q 710 -4 710 49 q 443 0 596 0 q 232 -3 363 0 l 174 -4 q 189 92 176 61 q 283 109 256 97 q 318 152 310 121 q 326 258 326 183 l 326 350 l 124 765 q 81 826 103 808 q 29 847 58 844 q 19 942 19 886 q 229 939 79 939 q 451 942 397 939 q 442 849 451 897 q 392 804 392 843 q 413 733 392 782 q 526 461 456 639 q 643 735 582 596 q 661 796 661 775 q 604 847 661 840 q 592 942 592 889 q 733 939 638 939 z "},"Ẏ":{"ha":879,"x_min":19,"x_max":860,"o":"m 733 939 q 860 942 818 939 q 849 849 860 886 q 795 815 819 840 q 742 724 771 789 l 567 346 l 567 263 q 576 156 567 189 q 611 110 585 124 q 697 92 638 97 q 710 -4 710 49 q 443 0 596 0 q 232 -3 363 0 l 174 -4 q 189 92 176 61 q 283 109 256 97 q 318 152 310 121 q 326 258 326 183 l 326 350 l 124 765 q 81 826 103 808 q 29 847 58 844 q 19 942 19 886 q 229 939 79 939 q 451 942 397 939 q 442 849 451 897 q 392 804 392 843 q 413 733 392 782 q 526 461 456 639 q 643 735 582 596 q 661 796 661 775 q 604 847 661 840 q 592 942 592 889 q 733 939 638 939 z "},"Ỵ":{"ha":879,"x_min":19,"x_max":860,"o":"m 733 939 q 860 942 818 939 q 849 849 860 886 q 795 815 819 840 q 742 724 771 789 l 567 346 l 567 263 q 576 156 567 189 q 611 110 585 124 q 697 92 638 97 q 710 -4 710 49 q 443 0 596 0 q 232 -3 363 0 l 174 -4 q 189 92 176 61 q 283 109 256 97 q 318 152 310 121 q 326 258 326 183 l 326 350 l 124 765 q 81 826 103 808 q 29 847 58 844 q 19 942 19 886 q 229 939 79 939 q 451 942 397 939 q 442 849 451 897 q 392 804 392 843 q 413 733 392 782 q 526 461 456 639 q 643 735 582 596 q 661 796 661 775 q 604 847 661 840 q 592 942 592 889 q 733 939 638 939 m 435 -318 q 342 -290 376 -318 q 308 -214 308 -261 q 345 -130 308 -160 q 442 -100 382 -100 q 540 -129 506 -100 q 575 -212 575 -158 q 537 -288 575 -258 q 435 -318 499 -318 z "},"Ỳ":{"ha":879,"x_min":19,"x_max":860,"o":"m 733 939 q 860 942 818 939 q 849 849 860 886 q 795 815 819 840 q 742 724 771 789 l 567 346 l 567 263 q 576 156 567 189 q 611 110 585 124 q 697 92 638 97 q 710 -4 710 49 q 443 0 596 0 q 232 -3 363 0 l 174 -4 q 189 92 176 61 q 283 109 256 97 q 318 152 310 121 q 326 258 326 183 l 326 350 l 124 765 q 81 826 103 808 q 29 847 58 844 q 19 942 19 886 q 229 939 79 939 q 451 942 397 939 q 442 849 451 897 q 392 804 392 843 q 413 733 392 782 q 526 461 456 639 q 643 735 582 596 q 661 796 661 775 q 604 847 661 840 q 592 942 592 889 q 733 939 638 939 m 474 1019 q 328 1190 404 1115 q 410 1215 361 1207 q 508 1221 460 1222 q 550 1129 525 1179 q 601 1040 575 1079 q 474 1019 551 1019 z "},"Ỷ":{"ha":879,"x_min":19,"x_max":860,"o":"m 733 939 q 860 942 818 939 q 849 849 860 886 q 795 815 819 840 q 742 724 771 789 l 567 346 l 567 263 q 576 156 567 189 q 611 110 585 124 q 697 92 638 97 q 710 -4 710 49 q 443 0 596 0 q 232 -3 363 0 l 174 -4 q 189 92 176 61 q 283 109 256 97 q 318 152 310 121 q 326 258 326 183 l 326 350 l 124 765 q 81 826 103 808 q 29 847 58 844 q 19 942 19 886 q 229 939 79 939 q 451 942 397 939 q 442 849 451 897 q 392 804 392 843 q 413 733 392 782 q 526 461 456 639 q 643 735 582 596 q 661 796 661 775 q 604 847 661 840 q 592 942 592 889 q 733 939 638 939 m 476 1000 q 467 1039 467 1019 q 478 1078 467 1063 q 508 1110 489 1094 q 533 1135 525 1125 q 540 1160 540 1144 q 531 1183 540 1175 q 508 1192 522 1192 q 473 1172 486 1192 q 453 1099 460 1151 q 365 1117 400 1099 q 369 1168 369 1144 q 365 1210 369 1192 q 524 1253 428 1253 q 661 1163 661 1253 q 645 1110 661 1129 q 600 1069 629 1090 q 574 1049 582 1058 q 565 1029 565 1040 q 569 1008 565 1019 q 507 997 540 997 q 476 1000 496 997 z "},"Ȳ":{"ha":879,"x_min":19,"x_max":860,"o":"m 733 939 q 860 942 818 939 q 849 849 860 886 q 795 815 819 840 q 742 724 771 789 l 567 346 l 567 263 q 576 156 567 189 q 611 110 585 124 q 697 92 638 97 q 710 -4 710 49 q 443 0 596 0 q 232 -3 363 0 l 174 -4 q 189 92 176 61 q 283 109 256 97 q 318 152 310 121 q 326 258 326 183 l 326 350 l 124 765 q 81 826 103 808 q 29 847 58 844 q 19 942 19 886 q 229 939 79 939 q 451 942 397 939 q 442 849 451 897 q 392 804 392 843 q 413 733 392 782 q 526 461 456 639 q 643 735 582 596 q 661 796 661 775 q 604 847 661 840 q 592 942 592 889 q 733 939 638 939 m 782 1142 q 769 1060 782 1104 q 246 1044 475 1060 q 258 1142 246 1108 l 782 1142 z "},"Ỹ":{"ha":879,"x_min":19,"x_max":860,"o":"m 733 939 q 860 942 818 939 q 849 849 860 886 q 795 815 819 840 q 742 724 771 789 l 567 346 l 567 263 q 576 156 567 189 q 611 110 585 124 q 697 92 638 97 q 710 -4 710 49 q 443 0 596 0 q 232 -3 363 0 l 174 -4 q 189 92 176 61 q 283 109 256 97 q 318 152 310 121 q 326 258 326 183 l 326 350 l 124 765 q 81 826 103 808 q 29 847 58 844 q 19 942 19 886 q 229 939 79 939 q 451 942 397 939 q 442 849 451 897 q 392 804 392 843 q 413 733 392 782 q 526 461 456 639 q 643 735 582 596 q 661 796 661 775 q 604 847 661 840 q 592 942 592 889 q 733 939 638 939 m 586 1025 q 529 1034 553 1025 q 474 1060 506 1043 q 432 1082 450 1075 q 392 1089 414 1089 q 286 1029 335 1089 q 243 1118 244 1067 q 332 1195 281 1171 q 432 1219 383 1219 q 487 1211 463 1219 q 546 1186 511 1203 q 591 1167 572 1174 q 629 1160 610 1160 q 711 1210 676 1160 q 788 1169 760 1201 q 701 1063 753 1100 q 586 1025 650 1025 z "},"Z":{"ha":831,"x_min":51,"x_max":776,"o":"m 646 279 q 776 243 729 272 q 753 121 764 193 q 742 -4 743 49 q 382 0 626 0 q 75 -4 192 0 q 51 81 51 32 q 287 491 192 321 q 479 847 382 661 l 374 847 q 293 831 324 847 q 242 774 263 815 q 204 651 222 732 q 74 669 114 651 q 99 801 90 728 q 107 942 107 875 q 435 939 172 939 q 733 942 644 939 q 758 857 757 903 q 339 93 563 468 l 431 93 q 539 108 500 93 q 602 162 578 122 q 646 279 626 201 z "},"Ź":{"ha":831,"x_min":51,"x_max":776,"o":"m 646 279 q 776 243 729 272 q 753 121 764 193 q 742 -4 743 49 q 382 0 626 0 q 75 -4 192 0 q 51 81 51 32 q 287 491 192 321 q 479 847 382 661 l 374 847 q 293 831 324 847 q 242 774 263 815 q 204 651 222 732 q 74 669 114 651 q 99 801 90 728 q 107 942 107 875 q 435 939 172 939 q 733 942 644 939 q 758 857 757 903 q 339 93 563 468 l 431 93 q 539 108 500 93 q 602 162 578 122 q 646 279 626 201 m 460 1019 q 340 1040 392 1019 q 424 1211 392 1129 q 538 1224 478 1224 q 625 1214 590 1224 q 460 1019 546 1132 z "},"Ž":{"ha":831,"x_min":51,"x_max":776,"o":"m 646 279 q 776 243 729 272 q 753 121 764 193 q 742 -4 743 49 q 382 0 626 0 q 75 -4 192 0 q 51 81 51 32 q 287 491 192 321 q 479 847 382 661 l 374 847 q 293 831 324 847 q 242 774 263 815 q 204 651 222 732 q 74 669 114 651 q 99 801 90 728 q 107 942 107 875 q 435 939 172 939 q 733 942 644 939 q 758 857 757 903 q 339 93 563 468 l 431 93 q 539 108 500 93 q 602 162 578 122 q 646 279 626 201 m 353 1010 q 158 1169 288 1079 q 268 1236 199 1222 q 431 1153 331 1196 q 497 1183 439 1157 q 590 1233 554 1210 q 637 1210 617 1229 q 665 1167 657 1190 q 458 1022 538 1092 q 353 1010 422 1010 z "},"Ẑ":{"ha":831,"x_min":51,"x_max":776,"o":"m 646 279 q 776 243 729 272 q 753 121 764 193 q 742 -4 743 49 q 382 0 626 0 q 75 -4 192 0 q 51 81 51 32 q 287 491 192 321 q 479 847 382 661 l 374 847 q 293 831 324 847 q 242 774 263 815 q 204 651 222 732 q 74 669 114 651 q 99 801 90 728 q 107 942 107 875 q 435 939 172 939 q 733 942 644 939 q 758 857 757 903 q 339 93 563 468 l 431 93 q 539 108 500 93 q 602 162 578 122 q 646 279 626 201 m 249 1011 q 201 1036 221 1017 q 174 1078 181 1056 q 379 1224 314 1164 q 485 1236 422 1236 q 681 1075 561 1157 q 633 1033 658 1049 q 571 1010 608 1017 q 407 1093 496 1056 l 360 1071 q 308 1044 346 1064 q 249 1011 271 1025 z "},"Ż":{"ha":831,"x_min":51,"x_max":776,"o":"m 646 279 q 776 243 729 272 q 753 121 764 193 q 742 -4 743 49 q 382 0 626 0 q 75 -4 192 0 q 51 81 51 32 q 287 491 192 321 q 479 847 382 661 l 374 847 q 293 831 324 847 q 242 774 263 815 q 204 651 222 732 q 74 669 114 651 q 99 801 90 728 q 107 942 107 875 q 435 939 172 939 q 733 942 644 939 q 758 857 757 903 q 339 93 563 468 l 431 93 q 539 108 500 93 q 602 162 578 122 q 646 279 626 201 z "},"Ẓ":{"ha":831,"x_min":51,"x_max":776,"o":"m 646 279 q 776 243 729 272 q 753 121 764 193 q 742 -4 743 49 q 382 0 626 0 q 75 -4 192 0 q 51 81 51 32 q 287 491 192 321 q 479 847 382 661 l 374 847 q 293 831 324 847 q 242 774 263 815 q 204 651 222 732 q 74 669 114 651 q 99 801 90 728 q 107 942 107 875 q 435 939 172 939 q 733 942 644 939 q 758 857 757 903 q 339 93 563 468 l 431 93 q 539 108 500 93 q 602 162 578 122 q 646 279 626 201 m 407 -318 q 315 -290 349 -318 q 281 -214 281 -261 q 317 -130 281 -160 q 414 -100 354 -100 q 513 -129 478 -100 q 547 -212 547 -158 q 509 -288 547 -258 q 407 -318 471 -318 z "},"a":{"ha":786,"x_min":43,"x_max":758,"o":"m 756 132 q 758 100 758 110 q 743 33 758 63 q 518 -12 619 31 q 481 17 492 -3 q 469 68 469 36 q 476 125 469 90 q 414 40 451 69 q 247 -10 351 -10 q 97 31 150 -10 q 43 149 43 72 q 102 281 43 231 q 247 354 161 331 q 447 394 332 378 q 441 478 447 447 q 417 529 435 510 q 342 561 389 561 q 236 407 251 561 q 161 410 192 407 q 106 424 131 414 q 108 475 108 457 q 96 596 108 532 q 235 635 156 621 q 390 650 315 650 q 614 583 547 650 q 660 501 643 554 q 676 356 676 447 l 676 249 q 682 175 676 199 q 704 142 688 151 q 756 132 721 133 m 447 314 q 312 268 354 296 q 269 190 269 240 q 286 139 269 156 q 329 122 303 122 q 385 140 358 122 q 430 195 413 158 q 447 282 447 232 l 447 314 z "},"á":{"ha":786,"x_min":43,"x_max":758,"o":"m 756 132 q 758 100 758 110 q 743 33 758 63 q 518 -12 619 31 q 481 17 492 -3 q 469 68 469 36 q 476 125 469 90 q 414 40 451 69 q 247 -10 351 -10 q 97 31 150 -10 q 43 149 43 72 q 102 281 43 231 q 247 354 161 331 q 447 394 332 378 q 441 478 447 447 q 417 529 435 510 q 342 561 389 561 q 236 407 251 561 q 161 410 192 407 q 106 424 131 414 q 108 475 108 457 q 96 596 108 532 q 235 635 156 621 q 390 650 315 650 q 614 583 547 650 q 660 501 643 554 q 676 356 676 447 l 676 249 q 682 175 676 199 q 704 142 688 151 q 756 132 721 133 m 447 314 q 312 268 354 296 q 269 190 269 240 q 286 139 269 156 q 329 122 303 122 q 385 140 358 122 q 430 195 413 158 q 447 282 447 232 l 447 314 m 411 736 q 349 743 382 736 q 299 760 317 750 q 385 982 358 876 q 517 1000 439 1000 q 593 993 572 997 q 411 736 486 867 z "}}}
